<svg xmlns="http://www.w3.org/2000/svg" data-name="Layer 2" viewBox="0 0 100 100" x="0px" y="0px"><title>Artboard 34</title><path d="M40,64H60a1,1,0,0,0,1-1V48h2a1,1,0,0,0,.92-.62,1,1,0,0,0-.21-1.09L60,42.59V36a1,1,0,0,0-1-1H55a1,1,0,0,0-1,1v.59l-3.29-3.3a1,1,0,0,0-1.42,0l-13,13a1,1,0,0,0-.21,1.09A1,1,0,0,0,37,48h2V63A1,1,0,0,0,40,64Zm6-12h8V63H46Z"/><path d="M41.46,30.15a1,1,0,0,0,1.07.23,20.91,20.91,0,0,1,14.94,0,1.13,1.13,0,0,0,.36.06,1,1,0,0,0,.71-.29L74.8,13.88a1,1,0,0,0,.29-.81,1,1,0,0,0-.45-.73,44.9,44.9,0,0,0-49.28,0,1,1,0,0,0-.45.73,1,1,0,0,0,.29.81ZM50,10v5L54,15l-5.17,9L49,18l-4,0Z"/><path d="M30.38,57.47a20.91,20.91,0,0,1,0-14.94,1,1,0,0,0-.23-1.07L13.88,25.2a1,1,0,0,0-.81-.29,1,1,0,0,0-.73.45,44.9,44.9,0,0,0,0,49.28,1,1,0,0,0,.73.45h.11a1,1,0,0,0,.7-.3L30.15,58.54A1,1,0,0,0,30.38,57.47ZM17,55.06a4,4,0,0,1-4-4c0-2.23,4-8,4-8s4,5.8,4,8A4,4,0,0,1,17,55.06Z"/><path d="M87.66,25.36a1,1,0,0,0-.73-.45,1,1,0,0,0-.81.29L69.85,41.46a1,1,0,0,0-.23,1.07,20.91,20.91,0,0,1,0,14.94,1,1,0,0,0,.23,1.07L86.12,74.8a1,1,0,0,0,.7.3h.11a1,1,0,0,0,.73-.45A44.9,44.9,0,0,0,87.66,25.36ZM83,41a4,4,0,0,1,4,4v1H85V45a2,2,0,0,0-4,0v1H79V45A4,4,0,0,1,83,41Zm5,11a5,5,0,0,1-5,5h0a5,5,0,0,1-5-5V48H88Z"/><path d="M83,51a1,1,0,0,0-1,1v1a1,1,0,0,0,2,0V52A1,1,0,0,0,83,51Z"/><path d="M50,85a1,1,0,1,0,1,1A1,1,0,0,0,50,85Z"/><path d="M58.54,69.85a1,1,0,0,0-1.07-.23,20.91,20.91,0,0,1-14.94,0,1,1,0,0,0-1.07.23L25.2,86.12a1,1,0,0,0-.29.81,1,1,0,0,0,.45.73,44.93,44.93,0,0,0,49.28,0,1,1,0,0,0,.45-.73,1,1,0,0,0-.29-.81ZM52,80a1,1,0,1,1,0,2H51v1a1.55,1.55,0,0,1,0,.21,3,3,0,1,1-1.92,0A1.55,1.55,0,0,1,49,83V76a1,1,0,0,1,2,0v1h1a1,1,0,1,1,0,2H51v1Z"/></svg>