<?xml version="1.0" encoding="iso-8859-1"?>
<!-- Generator: Adobe Illustrator 19.0.0, SVG Export Plug-In . SVG Version: 6.00 Build 0)  -->
<svg xmlns="http://www.w3.org/2000/svg" xmlns:xlink="http://www.w3.org/1999/xlink" version="1.1" id="Layer_1" x="0px" y="0px" viewBox="0 0 512 512" style="enable-background:new 0 0 512 512;" xml:space="preserve">
<g>
	<g>
		<g>
			<polygon points="266.667,162.133 273.067,85.333 238.933,85.333 244.992,162.133    "/>
			<path d="M260.267,0h-8.448C159.532,3.633,86.308,78.997,85.333,171.349c0.23,41.017,15.225,80.58,42.24,111.445     c3.243,3.669,6.571,7.253,9.984,10.837c3.413,3.584,8.533,8.533,11.776,13.056c6.751,8.079,12.911,16.635,18.432,25.6     c6.675,10.705,12.06,22.163,16.043,34.133c2.648,8.625,3.971,17.602,3.925,26.624c0.277,9.225,7.837,16.559,17.067,16.555v17.067     c0,9.426,7.641,17.067,17.067,17.067V460.8c0.037,6.061,3.285,11.647,8.533,14.677v19.456c0,9.426,7.641,17.067,17.067,17.067     h17.067c9.426,0,17.067-7.641,17.067-17.067v-19.456c5.249-3.03,8.497-8.617,8.533-14.677v-17.067     c9.426,0,17.067-7.641,17.067-17.067V409.6c9.229,0.004,16.79-7.33,17.067-16.555c-0.063-9.079,1.26-18.115,3.925-26.795     c3.982-11.971,9.367-23.428,16.043-34.133c5.521-8.965,11.68-17.521,18.432-25.6c3.669-4.437,7.595-8.533,11.776-13.056     s6.741-7.168,9.984-10.837c26.977-30.821,41.969-70.316,42.24-111.275C425.694,79.028,352.519,3.677,260.267,0z M225.963,73.472     l0.256-0.171c3.03-3.227,7.264-5.051,11.691-5.035h36.181c4.542-0.044,8.887,1.849,11.947,5.205     c3.031,3.167,4.527,7.499,4.096,11.861l-6.315,79.872c-1,8.072-7.91,14.1-16.043,13.995h-23.552     c-8.187,0.047-15.082-6.11-15.957-14.251l-6.4-80.043C221.55,80.687,223.039,76.531,225.963,73.472z M281.6,217.344v9.045     c-0.047,11.621-9.456,21.031-21.077,21.077h-9.045c-11.621-0.047-21.031-9.456-21.077-21.077v-9.045     c0.047-11.621,9.456-21.031,21.077-21.077h9.045C272.144,196.313,281.553,205.723,281.6,217.344z M204.8,301.483L204.8,301.483     V281.6c0-4.713,3.821-8.533,8.533-8.533c4.713,0,8.533,3.821,8.533,8.533v19.968c0,17.067,21.163,30.464,21.419,30.635     c2.592,1.537,4.181,4.326,4.181,7.339v52.992H230.4v-48.555C221.867,338.005,204.8,322.816,204.8,301.483z M264.533,494.933     h-17.067v-17.067h17.067V494.933z M273.067,460.8h-34.133v-17.067h34.133V460.8z M290.133,426.667h-68.267V409.6h68.267V426.667z      M307.2,301.483c0,21.333-17.067,36.523-25.6,42.667v48.384h-17.067v-53.077c0.001-3.013,1.59-5.802,4.181-7.339     c0,0,21.419-13.056,21.419-30.635V281.6c0-4.713,3.82-8.533,8.533-8.533s8.533,3.821,8.533,8.533V301.483z"/>
			<path d="M260.523,213.333h-0.171h-8.875c-2.215,0-4.011,1.796-4.011,4.011v9.045c0,2.215,1.796,4.011,4.011,4.011h9.045     c2.215,0,4.011-1.796,4.011-4.011v-9.045C264.533,215.129,262.738,213.333,260.523,213.333z"/>
		</g>
	</g>
</g>
<g>
</g>
<g>
</g>
<g>
</g>
<g>
</g>
<g>
</g>
<g>
</g>
<g>
</g>
<g>
</g>
<g>
</g>
<g>
</g>
<g>
</g>
<g>
</g>
<g>
</g>
<g>
</g>
<g>
</g>
</svg>
