<?xml version="1.0" encoding="iso-8859-1"?>
<!-- Generator: Adobe Illustrator 19.0.0, SVG Export Plug-In . SVG Version: 6.00 Build 0)  -->
<svg xmlns="http://www.w3.org/2000/svg" xmlns:xlink="http://www.w3.org/1999/xlink" version="1.1" id="Layer_1" x="0px" y="0px" viewBox="0 0 512.365 512.365" style="enable-background:new 0 0 512.365 512.365;" xml:space="preserve">
<g>
	<g>
		<path d="M290.351,97.551c0,0.683,0,1.28,0,1.963c0,18.851-15.282,34.133-34.133,34.133c-18.851,0-34.133-15.282-34.133-34.133    c0-0.683,0-1.28,0-1.963c-12.696,6.888-23.779,16.4-32.512,27.904c18.091,27.136,41.216,42.069,65.451,42.667h0.427    c24.491,0,48.043-14.933,66.901-42.667C313.766,114.006,302.862,104.498,290.351,97.551z"/>
	</g>
</g>
<g>
	<g>
		<path d="M509.914,261.818c-2.277-3.924-6.024-6.78-10.411-7.936l-24.747-6.571c-13.664-3.63-27.685,4.504-31.315,18.168    c-0.001,0.003-0.001,0.005-0.002,0.008l-18.261-4.864l28.331-49.664c4.699-8.171,1.885-18.604-6.286-23.303    c-1.295-0.745-2.681-1.316-4.125-1.7l-65.451-17.067c22.564-66.995-13.455-139.596-80.45-162.16    c-66.995-22.564-139.596,13.455-162.16,80.45c-1.717,5.099-3.112,10.302-4.174,15.577L75.567,88.25    c-9.106-2.435-18.461,2.973-20.896,12.078c-0.003,0.013-0.007,0.026-0.01,0.039L32.73,182.799    c-2.385,9.093,3.033,18.403,12.117,20.821l6.571,1.536l2.048,41.131c0.194,7.554,5.332,14.081,12.629,16.043l97.707,25.6v0.853    c-3.431,12.768-0.474,26.407,7.936,36.608l-20.565,77.312c-9.202,2.546-17.285,8.104-22.955,15.787H54.831    c-7.847-19.284-23.274-34.495-42.667-42.069c-4.319-1.886-9.349,0.087-11.235,4.406c-0.486,1.112-0.728,2.316-0.712,3.529v119.467    c-0.005,4.713,3.812,8.537,8.525,8.542c1.084,0.001,2.158-0.204,3.166-0.606c19.489-7.516,35.017-22.735,42.923-42.069h73.387    c14.814,18.325,41.679,21.171,60.004,6.356c16.12-13.032,20.541-35.763,10.481-53.887l22.101-83.2    c12.353-4.694,21.691-15.048,25.088-27.819c0,0,0-0.683,0-1.024l89.259,23.723c1.446,0.393,2.938,0.594,4.437,0.597    c6.408-0.003,12.274-3.595,15.189-9.301l5.547-11.008l65.28,17.067c-3.74,13.635,4.282,27.72,17.917,31.46    c0.143,0.039,0.286,0.077,0.43,0.114l24.747,6.571c1.446,0.393,2.938,0.594,4.437,0.597c7.737-0.015,14.496-5.233,16.469-12.715    l21.931-82.432C512.738,270.421,512.154,265.755,509.914,261.818z M40.666,458.767h-0.085    c-3.856,12.756-12.11,23.732-23.296,30.976v-91.307c11.266,7.273,19.583,18.311,23.467,31.147c1.439,4.7,2.158,9.591,2.133,14.507    C42.896,449.067,42.148,454.016,40.666,458.767z M162.351,469.69c-14.138,0.872-26.307-9.883-27.179-24.021    c-0.872-14.138,9.883-26.307,24.021-27.179c1.051-0.089,2.107-0.089,3.157,0c5.952,0.008,11.715,2.09,16.299,5.888    c1.523,1.262,2.897,2.693,4.096,4.267c3.371,4.444,5.199,9.867,5.205,15.445C187.951,458.228,176.49,469.69,162.351,469.69z     M229.509,306.703c-2.448,8.51-9.3,15.036-17.92,17.067c-1.897,0.482-3.845,0.74-5.803,0.768    c-2.507,0.043-5.007-0.273-7.424-0.939c-2.429-0.638-4.755-1.615-6.912-2.901c-1.535-0.919-2.941-2.039-4.181-3.328l-0.427-0.427    c-6.422-6.041-9.01-15.118-6.741-23.637v-0.939l49.408,13.141V306.703z M340.442,129.722    c-22.613,35.584-52.651,55.125-84.565,55.125h-0.597c-31.744,0-61.184-19.883-82.944-55.296c-1.875-2.848-1.875-6.539,0-9.387    c14.422-21.73,35.967-37.753,60.928-45.312c1.248-0.606,2.624-0.899,4.011-0.853c12.338-2.98,25.209-2.98,37.547,0    c1.415-0.06,2.823,0.233,4.096,0.853c24.941,7.453,46.512,23.353,61.013,44.971c2.187,2.908,2.289,6.882,0.256,9.899H340.442z"/>
	</g>
</g>
<g>
	<g>
		<path d="M270.639,90.554c-9.487-2.21-19.355-2.21-28.843,0c-4.949,8.022-2.457,18.537,5.565,23.486    c2.663,1.643,5.727,2.522,8.856,2.541c9.425-0.057,17.02-7.745,16.962-17.17C273.161,96.281,272.282,93.217,270.639,90.554z"/>
	</g>
</g>
<g>
</g>
<g>
</g>
<g>
</g>
<g>
</g>
<g>
</g>
<g>
</g>
<g>
</g>
<g>
</g>
<g>
</g>
<g>
</g>
<g>
</g>
<g>
</g>
<g>
</g>
<g>
</g>
<g>
</g>
</svg>
