<?xml version="1.0" encoding="iso-8859-1"?>
<!-- Generator: Adobe Illustrator 19.0.0, SVG Export Plug-In . SVG Version: 6.00 Build 0)  -->
<svg xmlns="http://www.w3.org/2000/svg" xmlns:xlink="http://www.w3.org/1999/xlink" version="1.1" id="Layer_1" x="0px" y="0px" viewBox="0 0 511.872 511.872" style="enable-background:new 0 0 511.872 511.872;" xml:space="preserve">
<g>
	<g>
		<g>
			<polygon points="244.992,136.326 266.667,136.326 273.067,59.526 238.933,59.526    "/>
			<path d="M509.696,261.254l-0.171-0.085c-2.277-3.924-6.024-6.78-10.411-7.936l-24.747-6.571     c-13.664-3.63-27.685,4.504-31.315,18.168c-0.001,0.003-0.001,0.005-0.002,0.008l-18.176-4.864l28.331-49.664     c4.74-8.147,1.978-18.594-6.169-23.334c-1.328-0.773-2.755-1.363-4.242-1.754l-65.451-17.067     c4.388-13.005,6.636-26.637,6.656-40.363C383.842,57.1,326.406-0.079,255.714,0.079     c-60.607,0.136-112.811,42.758-125.068,102.113L75.349,87.686c-9.106-2.435-18.461,2.973-20.896,12.078     c-0.003,0.013-0.007,0.026-0.01,0.039l-21.931,82.432c-2.435,9.106,2.973,18.461,12.078,20.896     c0.013,0.003,0.026,0.007,0.039,0.01l6.571,1.451l1.963,41.216c0.242,7.546,5.413,14.036,12.715,15.957l97.707,25.6     c-0.014,0.284-0.014,0.569,0,0.853c-3.431,12.768-0.474,26.407,7.936,36.608l-20.565,77.312     c-9.186,2.581-17.258,8.133-22.955,15.787H54.613c-7.83-19.295-23.263-34.512-42.667-42.069     c-2.624-1.047-5.595-0.727-7.936,0.853c-2.449,1.53-3.958,4.195-4.011,7.083v119.467c-0.004,2.838,1.403,5.493,3.755,7.083     c1.413,0.949,3.077,1.454,4.779,1.451c1.082,0.016,2.156-0.187,3.157-0.597c19.5-7.498,35.034-22.723,42.923-42.069H128     c5.942,7.939,14.493,13.529,24.149,15.787c2.975,0.821,6.044,1.251,9.131,1.28h0.853c23.564-0.089,42.594-19.264,42.505-42.828     c-0.029-7.67-2.125-15.19-6.068-21.769l22.101-83.2c12.337-4.717,21.666-15.062,25.088-27.819c0,0,0-0.683,0-1.024l89.259,23.808     c1.453,0.361,2.941,0.561,4.437,0.597c6.427-0.019,12.297-3.648,15.189-9.387l5.632-11.008l65.28,17.067     c-1.765,6.568-0.844,13.568,2.56,19.456c3.373,5.967,8.998,10.332,15.616,12.117l24.747,6.571     c1.414,0.408,2.88,0.609,4.352,0.597c7.737-0.015,14.496-5.233,16.469-12.715l21.931-82.432     C512.46,269.868,511.908,265.203,509.696,261.254z M40.448,458.203l-0.256-0.085c-3.754,12.782-11.957,23.799-23.125,31.061     v-91.307c11.277,7.262,19.596,18.305,23.467,31.147c1.403,4.708,2.122,9.594,2.133,14.507     C42.659,448.501,41.911,453.448,40.448,458.203z M162.133,469.126c-2.245-0.021-4.479-0.307-6.656-0.853     c-13.645-3.701-21.707-17.764-18.005-31.409c0.583-2.148,1.443-4.212,2.56-6.138c0.491-0.856,1.032-1.683,1.621-2.475     c4.107-5.511,10.257-9.14,17.067-10.069c1.122-0.234,2.269-0.32,3.413-0.256c5.961-0.043,11.741,2.045,16.299,5.888     c1.487,1.304,2.832,2.763,4.011,4.352c3.43,4.385,5.293,9.793,5.291,15.36C187.733,457.664,176.272,469.126,162.133,469.126z      M229.291,306.139L229.291,306.139c-2.495,8.513-9.371,15.03-18.005,17.067c-1.901,0.463-3.846,0.721-5.803,0.768     c-2.507,0.052-5.009-0.264-7.424-0.939c-2.389-0.674-4.683-1.649-6.827-2.901c-1.563-0.916-2.998-2.035-4.267-3.328v-0.512     c-6.436-6.032-9.055-15.103-6.827-23.637c-0.022-0.313-0.022-0.626,0-0.939l49.408,13.141     C229.384,305.266,229.297,305.7,229.291,306.139z M281.6,200.667c-0.093,11.588-9.489,20.946-21.077,20.992h-9.045     c-11.588-0.046-20.984-9.404-21.077-20.992v-9.045c0-11.655,9.423-21.116,21.077-21.163h9.045     c11.654,0.047,21.077,9.508,21.077,21.163V200.667z M290.133,59.526l-6.4,79.616c-0.876,8.141-7.77,14.298-15.957,14.251h-23.552     c-8.187,0.047-15.082-6.11-15.957-14.251l-6.4-79.616c-0.339-4.207,1.118-8.361,4.011-11.435     c3.001-3.537,7.393-5.593,12.032-5.632h36.181c4.542-0.044,8.887,1.849,11.947,5.205     C289.078,50.825,290.576,55.162,290.133,59.526z"/>
			<path d="M260.609,187.527c-0.029-0.001-0.057-0.001-0.086-0.001h-0.171h-8.875c-2.215,0-4.011,1.796-4.011,4.011v9.045     c0,2.215,1.796,4.011,4.011,4.011h9.045c2.215,0,4.011-1.796,4.011-4.011v-8.96C264.58,189.407,262.823,187.574,260.609,187.527z     "/>
		</g>
	</g>
</g>
<g>
</g>
<g>
</g>
<g>
</g>
<g>
</g>
<g>
</g>
<g>
</g>
<g>
</g>
<g>
</g>
<g>
</g>
<g>
</g>
<g>
</g>
<g>
</g>
<g>
</g>
<g>
</g>
<g>
</g>
</svg>
