<?xml version="1.0" encoding="iso-8859-1"?>
<!-- Generator: Adobe Illustrator 19.0.0, SVG Export Plug-In . SVG Version: 6.00 Build 0)  -->
<svg xmlns="http://www.w3.org/2000/svg" xmlns:xlink="http://www.w3.org/1999/xlink" version="1.1" id="Layer_1" x="0px" y="0px" viewBox="0 0 511.93 511.93" style="enable-background:new 0 0 511.93 511.93;" xml:space="preserve">
<g>
	<g>
		<path d="M509.697,217.725c-2.277-3.924-6.024-6.78-10.411-7.936l-24.747-6.571c-13.664-3.63-27.685,4.504-31.315,18.168    c-0.001,0.003-0.001,0.005-0.002,0.008l-18.176-4.864l28.331-49.749c4.658-8.194,1.792-18.613-6.402-23.271    c-1.261-0.717-2.608-1.27-4.009-1.646L75.35,44.157c-9.106-2.435-18.461,2.973-20.896,12.078c-0.003,0.013-0.007,0.026-0.01,0.039    l-21.845,82.432c-2.435,9.106,2.973,18.461,12.078,20.896c0.013,0.003,0.026,0.007,0.039,0.01l6.485,1.536l1.963,41.131    c0.341,7.426,5.449,13.776,12.629,15.701l97.707,25.6v0.853c-3.431,12.768-0.474,26.407,7.936,36.608l-20.565,77.312    c-9.219,2.652-17.276,8.334-22.869,16.128H54.614c-7.847-19.284-23.274-34.495-42.667-42.069    c-4.319-1.886-9.349,0.087-11.235,4.406c-0.486,1.112-0.728,2.316-0.712,3.529v119.467c-0.005,4.713,3.812,8.537,8.525,8.542    c1.084,0.001,2.158-0.204,3.166-0.606c19.489-7.516,35.017-22.735,42.923-42.069h73.387c14.814,18.325,41.679,21.171,60.004,6.356    c16.12-13.032,20.541-35.763,10.481-53.887l22.101-83.2c12.353-4.694,21.691-15.048,25.088-27.819c0,0,0-0.683,0-1.024    l89.259,23.723c1.418,0.391,2.881,0.592,4.352,0.597c6.646,0.032,12.706-3.797,15.531-9.813l5.547-11.008l65.365,17.067    c-4.005,13.56,3.741,27.798,17.3,31.803c0.234,0.069,0.469,0.135,0.705,0.197l24.747,6.571c1.446,0.393,2.938,0.594,4.437,0.597    c7.737-0.015,14.496-5.233,16.469-12.715l21.931-82.432C512.521,226.328,511.937,221.662,509.697,217.725z M40.449,414.759    c-3.896,12.738-12.18,23.683-23.381,30.891v-91.307c11.266,7.273,19.583,18.311,23.467,31.147    c1.447,4.728,2.167,9.648,2.133,14.592C42.679,405.059,41.931,410.008,40.449,414.759z M162.134,425.682    c-9.121-0.025-17.541-4.901-22.101-12.8c-4.573-7.921-4.573-17.679,0-25.6c3.953-7.006,10.969-11.747,18.944-12.8    c1.051-0.089,2.107-0.089,3.157,0c5.942-0.016,11.704,2.036,16.299,5.803c1.523,1.262,2.897,2.693,4.096,4.267    c3.389,4.467,5.218,9.923,5.205,15.531C187.734,414.221,176.273,425.682,162.134,425.682z M211.371,279.762    c-4.333,1.159-8.894,1.159-13.227,0c-2.399-0.646-4.697-1.622-6.827-2.901c-1.565-0.913-3-2.033-4.267-3.328l-0.512-0.427    c-6.422-6.041-9.01-15.118-6.741-23.637v-0.939l49.408,13.141l0.085,1.024C226.843,271.206,219.991,277.731,211.371,279.762z"/>
	</g>
</g>
<g>
</g>
<g>
</g>
<g>
</g>
<g>
</g>
<g>
</g>
<g>
</g>
<g>
</g>
<g>
</g>
<g>
</g>
<g>
</g>
<g>
</g>
<g>
</g>
<g>
</g>
<g>
</g>
<g>
</g>
</svg>
