<?xml version="1.0" encoding="iso-8859-1"?>
<!-- Generator: Adobe Illustrator 19.0.0, SVG Export Plug-In . SVG Version: 6.00 Build 0)  -->
<svg xmlns="http://www.w3.org/2000/svg" xmlns:xlink="http://www.w3.org/1999/xlink" version="1.1" id="Layer_1" x="0px" y="0px" viewBox="0 0 477.867 477.867" style="enable-background:new 0 0 477.867 477.867;" xml:space="preserve">
<g>
	<g>
		<g>
			<path d="M204.8,247.467c0,4.713,3.82,8.533,8.533,8.533h51.2c4.713,0,8.533-3.82,8.533-8.533v-8.533H204.8V247.467z"/>
			<rect x="230.4" y="110.933" width="17.067" height="8.533"/>
			<rect x="204.8" y="204.8" width="68.267" height="17.067"/>
			<path d="M435.2,332.8h-76.8v55.723c0.001,7.505-2.226,14.84-6.4,21.077h23.467c4.713,0,8.533,3.82,8.533,8.533     s-3.821,8.533-8.533,8.533H102.4c-4.713,0-8.533-3.82-8.533-8.533s3.82-8.533,8.533-8.533h23.467     c-4.174-6.237-6.401-13.573-6.4-21.077V332.8h-76.8c-14.138,0-25.6,11.461-25.6,25.6v119.467H460.8V358.4     C460.8,344.262,449.339,332.8,435.2,332.8z M76.8,426.667h-8.533c-4.713,0-8.533-3.82-8.533-8.533s3.82-8.533,8.533-8.533H76.8     c4.713,0,8.533,3.82,8.533,8.533S81.513,426.667,76.8,426.667z M196.267,460.8H179.2c-4.713,0-8.533-3.82-8.533-8.533     s3.82-8.533,8.533-8.533h17.067c4.713,0,8.533,3.82,8.533,8.533S200.979,460.8,196.267,460.8z M247.467,460.8H230.4     c-4.713,0-8.533-3.82-8.533-8.533s3.82-8.533,8.533-8.533h17.067c4.713,0,8.533,3.82,8.533,8.533S252.18,460.8,247.467,460.8z      M298.667,460.8H281.6c-4.713,0-8.533-3.82-8.533-8.533s3.82-8.533,8.533-8.533h17.067c4.713,0,8.533,3.82,8.533,8.533     S303.38,460.8,298.667,460.8z M409.6,426.667h-8.533c-4.713,0-8.533-3.82-8.533-8.533s3.82-8.533,8.533-8.533h8.533     c4.713,0,8.533,3.82,8.533,8.533S414.313,426.667,409.6,426.667z"/>
			<path d="M341.333,21.077C341.287,9.456,331.877,0.047,320.256,0H157.611c-11.621,0.047-21.031,9.456-21.077,21.077v38.656h204.8     V21.077z M261.12,36.949h-44.373c-4.713,0-8.533-3.82-8.533-8.533s3.82-8.533,8.533-8.533h44.373c4.713,0,8.533,3.82,8.533,8.533     S265.833,36.949,261.12,36.949z"/>
			<circle cx="238.933" cy="358.4" r="17.067"/>
			<rect x="204.8" y="170.667" width="68.267" height="17.067"/>
			<path d="M341.333,76.8h-204.8v213.333h204.8V76.8z M290.133,247.467c0,14.138-11.462,25.6-25.6,25.6h-51.2     c-14.138,0-25.6-11.462-25.6-25.6v-102.4c0-14.138,11.462-25.6,25.6-25.6v-8.533c0-9.426,7.641-17.067,17.067-17.067h17.067     c9.426,0,17.067,7.641,17.067,17.067v8.533c14.138,0,25.6,11.462,25.6,25.6V247.467z"/>
			<path d="M157.611,409.6h162.645c11.621-0.047,21.031-9.456,21.077-21.077V307.2h-204.8v81.323     C136.58,400.144,145.989,409.553,157.611,409.6z M238.933,324.267c18.851,0,34.133,15.282,34.133,34.133     s-15.282,34.133-34.133,34.133c-18.851,0-34.133-15.282-34.133-34.133S220.082,324.267,238.933,324.267z"/>
			<path d="M264.533,136.533h-51.2c-4.713,0-8.533,3.82-8.533,8.533v8.533h68.267v-8.533     C273.067,140.354,269.246,136.533,264.533,136.533z"/>
		</g>
	</g>
</g>
<g>
</g>
<g>
</g>
<g>
</g>
<g>
</g>
<g>
</g>
<g>
</g>
<g>
</g>
<g>
</g>
<g>
</g>
<g>
</g>
<g>
</g>
<g>
</g>
<g>
</g>
<g>
</g>
<g>
</g>
</svg>
