<?xml version="1.0" encoding="iso-8859-1"?>
<!-- Generator: Adobe Illustrator 19.0.0, SVG Export Plug-In . SVG Version: 6.00 Build 0)  -->
<svg xmlns="http://www.w3.org/2000/svg" xmlns:xlink="http://www.w3.org/1999/xlink" version="1.1" id="Layer_1" x="0px" y="0px" viewBox="0 0 477.867 477.867" style="enable-background:new 0 0 477.867 477.867;" xml:space="preserve">
<g>
	<g>
		<path d="M196.267,170.667V204.8c0,4.713,3.82,8.533,8.533,8.533h68.267c4.713,0,8.533-3.82,8.533-8.533v-34.133H196.267z"/>
	</g>
</g>
<g>
	<g>
		<path d="M435.2,332.8h-76.8v55.723c0.001,7.505-2.226,14.84-6.4,21.077h23.467c4.713,0,8.533,3.82,8.533,8.533    s-3.821,8.533-8.533,8.533H102.4c-4.713,0-8.533-3.82-8.533-8.533s3.82-8.533,8.533-8.533h23.467    c-4.174-6.237-6.401-13.573-6.4-21.077V332.8h-76.8c-14.138,0-25.6,11.461-25.6,25.6v119.467H460.8V358.4    C460.8,344.262,449.339,332.8,435.2,332.8z M76.8,426.667h-8.533c-4.713,0-8.533-3.82-8.533-8.533s3.82-8.533,8.533-8.533H76.8    c4.713,0,8.533,3.82,8.533,8.533S81.513,426.667,76.8,426.667z M196.267,460.8H179.2c-4.713,0-8.533-3.82-8.533-8.533    s3.82-8.533,8.533-8.533h17.067c4.713,0,8.533,3.82,8.533,8.533S200.979,460.8,196.267,460.8z M247.467,460.8H230.4    c-4.713,0-8.533-3.82-8.533-8.533s3.82-8.533,8.533-8.533h17.067c4.713,0,8.533,3.82,8.533,8.533S252.18,460.8,247.467,460.8z     M298.667,460.8H281.6c-4.713,0-8.533-3.82-8.533-8.533s3.82-8.533,8.533-8.533h17.067c4.713,0,8.533,3.82,8.533,8.533    S303.38,460.8,298.667,460.8z M409.6,426.667h-8.533c-4.713,0-8.533-3.82-8.533-8.533s3.82-8.533,8.533-8.533h8.533    c4.713,0,8.533,3.82,8.533,8.533S414.313,426.667,409.6,426.667z"/>
	</g>
</g>
<g>
	<g>
		<path d="M320.256,0H157.611c-11.621,0.047-21.031,9.456-21.077,21.077v38.656h204.8V21.077C341.287,9.456,331.877,0.047,320.256,0    z M261.12,36.949h-44.373c-4.713,0-8.533-3.82-8.533-8.533s3.82-8.533,8.533-8.533h44.373c4.713,0,8.533,3.82,8.533,8.533    S265.833,36.949,261.12,36.949z"/>
	</g>
</g>
<g>
	<g>
		<path d="M136.533,307.2v81.323c0.047,11.621,9.456,21.031,21.077,21.077h162.645c11.621-0.047,21.031-9.456,21.077-21.077V307.2    H136.533z M238.933,392.533c-18.851,0-34.133-15.282-34.133-34.133s15.282-34.133,34.133-34.133    c18.851,0,34.133,15.282,34.133,34.133S257.785,392.533,238.933,392.533z"/>
	</g>
</g>
<g>
	<g>
		<circle cx="238.933" cy="358.4" r="17.067"/>
	</g>
</g>
<g>
	<g>
		<path d="M136.533,76.8v213.333H230.4V230.4h-25.6c-14.138,0-25.6-11.461-25.6-25.6v-34.133c0-9.426,7.641-17.067,17.067-17.067    h8.533v-42.667c0-4.713,3.82-8.533,8.533-8.533s8.533,3.82,8.533,8.533V153.6H256v-42.667c0-4.713,3.82-8.533,8.533-8.533    s8.533,3.82,8.533,8.533V153.6h8.533c9.426,0,17.067,7.641,17.067,17.067V204.8c0,14.138-11.461,25.6-25.6,25.6h-25.6v59.733    h93.867V76.8H136.533z"/>
	</g>
</g>
<g>
</g>
<g>
</g>
<g>
</g>
<g>
</g>
<g>
</g>
<g>
</g>
<g>
</g>
<g>
</g>
<g>
</g>
<g>
</g>
<g>
</g>
<g>
</g>
<g>
</g>
<g>
</g>
<g>
</g>
</svg>
