<?xml version="1.0" encoding="iso-8859-1"?>
<!-- Generator: Adobe Illustrator 19.0.0, SVG Export Plug-In . SVG Version: 6.00 Build 0)  -->
<svg xmlns="http://www.w3.org/2000/svg" xmlns:xlink="http://www.w3.org/1999/xlink" version="1.1" id="Layer_1" x="0px" y="0px" viewBox="0 0 512 512" style="enable-background:new 0 0 512 512;" xml:space="preserve">
<g>
	<g>
		<g>
			<path d="M371.456,187.733L371.456,187.733h-0.171h-8.875c-2.215,0-4.011,1.796-4.011,4.011v9.045     c0,2.215,1.796,4.011,4.011,4.011h9.045c2.215,0,4.011-1.796,4.011-4.011v-9.045     C375.467,189.529,373.671,187.733,371.456,187.733z"/>
			<path d="M366.933,0c-38.653,0.101-75.191,17.664-99.413,47.787c-6.163-3.327-13.05-5.085-20.053-5.12H59.733     c-23.564,0-42.667,19.102-42.667,42.667V435.2c-0.004,20.278,14.265,37.758,34.133,41.813v9.387c0,14.138,11.461,25.6,25.6,25.6     h8.533c14.138,0,25.6-11.461,25.6-25.6v-8.533h85.333v8.533c0,14.138,11.462,25.6,25.6,25.6h8.533     c14.138,0,25.6-11.461,25.6-25.6v-9.387c19.868-4.056,34.137-21.535,34.133-41.813V230.4     c56.554,42.415,136.785,30.954,179.2-25.6c16.617-22.156,25.6-49.105,25.6-76.8C494.933,57.308,437.626,0,366.933,0z      M51.2,110.933c0-4.713,3.82-8.533,8.533-8.533s8.533,3.82,8.533,8.533v51.2c0,4.713-3.82,8.533-8.533,8.533     s-8.533-3.82-8.533-8.533V110.933z M59.733,290.133c-4.713,0-8.533-3.82-8.533-8.533v-51.2c0-4.713,3.82-8.533,8.533-8.533     s8.533,3.82,8.533,8.533v51.2C68.267,286.313,64.446,290.133,59.733,290.133z M93.867,486.4c0,4.713-3.821,8.533-8.533,8.533     H76.8c-4.713,0-8.533-3.82-8.533-8.533v-8.533h25.6V486.4z M238.933,486.4c0,4.713-3.82,8.533-8.533,8.533h-8.533     c-4.713,0-8.533-3.82-8.533-8.533v-8.533h25.6V486.4z M392.533,200.789c0,11.641-9.437,21.077-21.077,21.077h-9.045     c-11.621-0.047-21.031-9.456-21.077-21.077v-9.045c0.047-11.621,9.456-21.031,21.077-21.077h9.045     c11.641,0,21.077,9.437,21.077,21.077V200.789z M401.067,59.733l-6.4,79.616c-0.799,8.18-7.74,14.378-15.957,14.251h-23.552     c-8.231,0.121-15.157-6.136-15.872-14.336L332.8,59.733c-0.409-4.226,1.021-8.423,3.925-11.52     c3.064-3.491,7.472-5.509,12.117-5.547h36.181c4.562-0.025,8.927,1.863,12.032,5.205     C400.046,51.059,401.509,55.385,401.067,59.733z"/>
			<polygon points="356.011,136.533 377.6,136.533 377.6,136.533 384,59.733 349.867,59.733    "/>
		</g>
	</g>
</g>
<g>
</g>
<g>
</g>
<g>
</g>
<g>
</g>
<g>
</g>
<g>
</g>
<g>
</g>
<g>
</g>
<g>
</g>
<g>
</g>
<g>
</g>
<g>
</g>
<g>
</g>
<g>
</g>
<g>
</g>
</svg>
