<?xml version="1.0" encoding="iso-8859-1"?>
<!-- Generator: Adobe Illustrator 19.0.0, SVG Export Plug-In . SVG Version: 6.00 Build 0)  -->
<svg xmlns="http://www.w3.org/2000/svg" xmlns:xlink="http://www.w3.org/1999/xlink" version="1.1" id="Layer_1" x="0px" y="0px" viewBox="0 0 512 512" style="enable-background:new 0 0 512 512;" xml:space="preserve">
<g>
	<g>
		<path d="M366.933,0c-38.653,0.101-75.191,17.664-99.413,47.787c-6.163-3.327-13.05-5.085-20.053-5.12H59.733    c-23.564,0-42.667,19.102-42.667,42.667V435.2c-0.004,20.278,14.265,37.758,34.133,41.813v9.387c0,14.138,11.461,25.6,25.6,25.6    h8.533c14.138,0,25.6-11.461,25.6-25.6v-8.533h85.333v8.533c0,14.138,11.462,25.6,25.6,25.6h8.533c14.138,0,25.6-11.461,25.6-25.6    v-9.387c19.868-4.056,34.137-21.535,34.133-41.813V230.4c56.554,42.415,136.785,30.954,179.2-25.6    c16.617-22.156,25.6-49.105,25.6-76.8C494.933,57.308,437.626,0,366.933,0z M51.2,110.933c0-4.713,3.82-8.533,8.533-8.533    s8.533,3.82,8.533,8.533v51.2c0,4.713-3.82,8.533-8.533,8.533s-8.533-3.82-8.533-8.533V110.933z M59.733,290.133    c-4.713,0-8.533-3.82-8.533-8.533v-51.2c0-4.713,3.82-8.533,8.533-8.533s8.533,3.82,8.533,8.533v51.2    C68.267,286.313,64.446,290.133,59.733,290.133z M93.867,486.4c0,4.713-3.821,8.533-8.533,8.533H76.8    c-4.713,0-8.533-3.82-8.533-8.533v-8.533h25.6V486.4z M238.933,486.4c0,4.713-3.82,8.533-8.533,8.533h-8.533    c-4.713,0-8.533-3.82-8.533-8.533v-8.533h25.6V486.4z M452.267,136.533h-9.643l8.533,12.373c2.571,3.916,1.504,9.172-2.389,11.776    c-1.469,1.033-3.241,1.544-5.035,1.451c-2.855-0.015-5.513-1.456-7.083-3.84l-14.592-21.76h-34.56l28.16,28.075    c3.346,3.319,3.368,8.722,0.049,12.068c-0.016,0.017-0.033,0.033-0.049,0.049c-3.319,3.346-8.722,3.368-12.068,0.049    c-0.017-0.016-0.033-0.033-0.049-0.049l-28.075-28.16v34.56l21.76,14.592c3.912,2.628,4.952,7.93,2.324,11.842    c-1.572,2.34-4.198,3.752-7.017,3.774c-1.678,0.019-3.319-0.488-4.693-1.451l-12.373-8.533v9.984c0,4.713-3.82,8.533-8.533,8.533    s-8.533-3.821-8.533-8.533v-9.643l-12.373,8.533c-1.414,0.842-3.052,1.23-4.693,1.109c-4.713-0.036-8.504-3.886-8.467-8.599    c0.022-2.819,1.434-5.445,3.774-7.017l21.76-14.592v-34.56l-28.075,28.16c-3.319,3.346-8.722,3.368-12.068,0.049    c-0.017-0.016-0.033-0.033-0.049-0.049c-3.346-3.319-3.368-8.722-0.049-12.068c0.016-0.017,0.033-0.033,0.049-0.049l28.16-28.075    h-34.56l-14.592,21.76c-1.57,2.384-4.228,3.825-7.083,3.84c-1.678,0.019-3.319-0.488-4.693-1.451    c-3.894-2.604-4.96-7.86-2.389-11.776l8.533-12.373H281.6c-4.713,0-8.533-3.82-8.533-8.533s3.82-8.533,8.533-8.533h9.643    l-8.533-12.373c-2.956-3.67-2.378-9.042,1.293-11.999c3.67-2.956,9.042-2.378,11.999,1.293c0.332,0.412,0.624,0.853,0.874,1.319    l14.933,21.76h34.56l-28.16-28.075c-3.346-3.346-3.346-8.771,0-12.117c3.346-3.346,8.771-3.346,12.117,0l28.075,28.16V73.301    l-21.76-15.019c-4.153-2.228-5.714-7.4-3.486-11.553c2.228-4.153,7.4-5.714,11.553-3.486c0.466,0.25,0.908,0.543,1.319,0.874    l12.373,8.533v-9.984c0-4.713,3.82-8.533,8.533-8.533s8.533,3.82,8.533,8.533v9.643l12.373-8.533    c3.67-2.956,9.042-2.378,11.999,1.292c2.956,3.67,2.378,9.042-1.292,11.999c-0.412,0.332-0.853,0.624-1.319,0.874l-21.76,14.933    v34.133l28.075-28.16c3.346-3.346,8.771-3.346,12.117,0c3.346,3.346,3.346,8.771,0,12.117l-28.16,28.501h34.56l14.592-21.76    c2.228-4.153,7.4-5.714,11.553-3.486c4.153,2.228,5.714,7.4,3.486,11.553c-0.25,0.466-0.543,0.908-0.874,1.319l-8.533,12.373    h9.984c4.713,0,8.533,3.82,8.533,8.533S456.979,136.533,452.267,136.533z"/>
	</g>
</g>
<g>
</g>
<g>
</g>
<g>
</g>
<g>
</g>
<g>
</g>
<g>
</g>
<g>
</g>
<g>
</g>
<g>
</g>
<g>
</g>
<g>
</g>
<g>
</g>
<g>
</g>
<g>
</g>
<g>
</g>
</svg>
