<?xml version="1.0" encoding="iso-8859-1"?>
<!-- Generator: Adobe Illustrator 19.0.0, SVG Export Plug-In . SVG Version: 6.00 Build 0)  -->
<svg xmlns="http://www.w3.org/2000/svg" xmlns:xlink="http://www.w3.org/1999/xlink" version="1.1" id="Layer_1" x="0px" y="0px" viewBox="0 0 512.25 512.25" style="enable-background:new 0 0 512.25 512.25;" xml:space="preserve">
<g>
	<g>
		<g>
			<rect x="294.557" y="333.092" width="17.067" height="25.6"/>
			<rect x="354.291" y="307.492" width="17.067" height="51.2"/>
			<path d="M427.933,214.393c6.302-24.79,3.265-51.033-8.533-73.728c-8.035-14.509-16.837-28.581-26.368-42.155l-1.707-2.475     c-9.387-13.568-18.261-27.477-26.795-41.557L336.029,8.825c-5.448-8.766-16.971-11.455-25.737-6.007     c-2.437,1.515-4.492,3.57-6.007,6.007l-28.501,45.653c-8.533,13.739-17.067,27.989-26.709,41.728     c-4.352,6.4-8.533,12.971-13.056,19.627c-3.499-5.632-7.083-11.264-10.496-17.067L208.456,71.46     c-6.901-11.358-21.703-14.971-33.061-8.07c-3.298,2.004-6.066,4.772-8.07,8.07l-50.176,80.725     c-11.264,18.091-22.869,36.779-34.901,54.699l-3.413,5.12c-14.366,20.576-27.611,41.912-39.68,63.915     c-11.629,22.592-17.685,47.637-17.664,73.045c0.011,21.883,4.453,43.538,13.056,63.659c17.179,39.332,48.97,70.45,88.661,86.784     c41.422,17.124,87.944,17.124,129.365,0c27.626-11.166,51.591-29.812,69.205-53.845c13.197,4.6,27.07,6.965,41.045,6.997     c70.692-0.035,127.971-57.372,127.936-128.064C490.737,279.273,466.854,237.419,427.933,214.393z M106.37,440.037     c-0.019,0.021-0.038,0.042-0.058,0.063c-3.319,3.346-8.722,3.368-12.068,0.049c-0.017-0.016-0.033-0.033-0.049-0.049     C82.2,428.367,72.58,414.431,65.864,399.055c-6.788-15.826-10.273-32.871-10.24-50.091c-0.022-19.915,4.718-39.547,13.824-57.259     c2.191-4.194,7.368-5.818,11.563-3.627s5.818,7.368,3.627,11.563c-7.905,15.236-12.004,32.159-11.947,49.323     c-0.131,14.88,2.773,29.63,8.533,43.349c5.828,13.356,14.172,25.466,24.576,35.669     C109.286,431.154,109.541,436.551,106.37,440.037z M328.691,367.225c0,4.713-3.82,8.533-8.533,8.533h-34.133     c-4.713,0-8.533-3.82-8.533-8.533v-34.133c0-9.426,7.641-17.067,17.067-17.067h17.067c9.426,0,17.067,7.641,17.067,17.067     V367.225z M388.424,367.225c0,4.713-3.82,8.533-8.533,8.533h-34.133c-4.713,0-8.533-3.82-8.533-8.533v-59.733     c0-9.426,7.641-17.067,17.067-17.067h17.067c9.426,0,17.067,7.641,17.067,17.067V367.225z M387.059,199.119l-6.4-1.024     l-7.936-0.853c-1.877,0-3.755,0-5.717,0s-6.315,0-9.557,0h-4.693c-3.584,0-7.168,0.768-10.667,1.28l-3.925,0.683     c-3.755,0.768-7.509,1.621-11.264,2.645l-2.731,0.853c-4.011,1.28-7.936,2.645-11.691,4.267l-1.536,0.683     c-4.145,1.768-8.19,3.762-12.117,5.973c-3.974,2.323-7.819,4.858-11.52,7.595l-1.792,1.28c-2.73,2.021-5.35,4.186-7.851,6.485     c-5.343-5.154-9.632-11.299-12.629-18.091c-2.996-6.896-4.564-14.327-4.608-21.845c-0.028-8.555,2.021-16.989,5.973-24.576     c1.707-3.243,3.584-6.485,5.632-9.813l0.512-0.853c2.448-3.987,1.23-9.201-2.731-11.691c-3.995-2.5-9.26-1.289-11.761,2.706     c-0.005,0.008-0.01,0.016-0.015,0.025l-0.512,0.768c-2.219,3.669-4.352,7.253-6.229,10.923     c-5.23,10.038-7.953,21.193-7.936,32.512c-0.009,9.803,1.995,19.504,5.888,28.501c3.887,8.79,9.419,16.755,16.299,23.467     l-1.195,1.365l-0.768,0.939c-2.731,3.413-5.376,6.912-7.765,10.581c-0.219,0.27-0.418,0.555-0.597,0.853l-1.792-1.707     c-8.447-8.228-15.252-17.987-20.053-28.757c-4.717-11.148-7.127-23.137-7.083-35.243c-0.004-14.045,3.361-27.887,9.813-40.363     c2.219-4.096,4.437-8.533,6.997-12.032c6.144-10.411,13.141-20.565,20.053-30.72c9.387-13.824,18.347-28.16,26.965-42.069     l28.501-45.397c0.483-0.754,1.486-0.974,2.24-0.491c0.197,0.126,0.365,0.294,0.491,0.491l28.672,45.056     c8.533,13.909,17.579,28.245,26.965,42.069l1.707,2.475c9.253,13.043,17.798,26.574,25.6,40.533     c6.448,12.504,9.786,26.379,9.728,40.448c-0.032,5.73-0.603,11.444-1.707,17.067l-1.707-0.512     c-3.669-1.451-7.339-2.816-11.093-3.925l-3.925-1.024C392.776,200.313,389.96,199.631,387.059,199.119z M448.157,367.225     c0,4.713-3.82,8.533-8.533,8.533h-34.133c-4.713,0-8.533-3.82-8.533-8.533v-85.333c0-9.426,7.641-17.067,17.067-17.067h17.067     c9.426,0,17.067,7.641,17.067,17.067V367.225z"/>
			<rect x="414.024" y="281.892" width="17.067" height="76.8"/>
		</g>
	</g>
</g>
<g>
</g>
<g>
</g>
<g>
</g>
<g>
</g>
<g>
</g>
<g>
</g>
<g>
</g>
<g>
</g>
<g>
</g>
<g>
</g>
<g>
</g>
<g>
</g>
<g>
</g>
<g>
</g>
<g>
</g>
</svg>
