<?xml version="1.0" encoding="iso-8859-1"?>
<!-- Generator: Adobe Illustrator 19.0.0, SVG Export Plug-In . SVG Version: 6.00 Build 0)  -->
<svg xmlns="http://www.w3.org/2000/svg" xmlns:xlink="http://www.w3.org/1999/xlink" version="1.1" id="Layer_1" x="0px" y="0px" viewBox="0 0 454.208 454.208" style="enable-background:new 0 0 454.208 454.208;" xml:space="preserve">
<g>
	<g>
		<polygon points="307.777,119.456 313.836,196.256 335.51,196.256 341.654,119.115   "/>
	</g>
</g>
<g>
	<g>
		<path d="M329.196,247.456h-9.045c-2.215,0-4.011,1.796-4.011,4.011v9.045c0,2.215,1.796,4.011,4.011,4.011h9.045    c2.215,0,4.011-1.796,4.011-4.011v-9.045C333.206,249.252,331.411,247.456,329.196,247.456z"/>
	</g>
</g>
<g>
	<g>
		<path d="M344.775,61.071c-6.655-0.977-13.376-1.427-20.102-1.347C280.684,59.69,239.76,82.246,216.3,119.456    c-20.44-34.452-46.383-65.324-76.8-91.392c-4.364-3.55-8.922-6.855-13.653-9.899c-4.312-2.795-8.885-5.167-13.653-7.083    c-4.33-1.86-9.348,0.141-11.209,4.471c-0.712,1.657-0.881,3.497-0.482,5.257l1.024,4.523c1.109,4.864,2.219,9.728,3.072,14.763    c1.389,7.465,2.216,15.024,2.475,22.613c0,1.963,0,3.925,0,5.973c-0.148,44.426-18.682,86.808-51.2,117.077    c-16.258,13.999-29.997,30.682-40.619,49.323c-17.849,35.08-20.14,76.044-6.315,112.896    c19.856,51.418,65.996,88.056,120.576,95.744h1.28c4.713,0.707,9.106-2.54,9.813-7.253c0.707-4.713-2.541-9.106-7.253-9.813    c-19.733-6.041-35.612-20.788-43.093-40.021c-6.038-16.156-5.048-34.1,2.731-49.493c5.059-8.581,11.487-16.277,19.029-22.784    c19.957-18.567,31.301-44.592,31.317-71.851c0-1.451,0-2.731,0-3.669s0-3.413,0-5.12c6.598,5.465,12.349,11.878,17.067,19.029    c8.239,12.719,12.707,27.513,12.885,42.667v0.939c0.02,16.579-5.076,32.76-14.592,46.336c-2.684,3.874-1.719,9.19,2.156,11.874    c0.214,0.148,0.434,0.286,0.66,0.414c8.888,5.729,20.175,6.218,29.525,1.28c10.16-6.322,17.726-16.067,21.333-27.477    c8.065,10.289,12.531,22.939,12.715,36.011c-0.326,28.403-18.889,53.373-45.995,61.867c-4.454,1.54-6.817,6.399-5.277,10.853    c1.37,3.963,5.415,6.343,9.544,5.617c65.56-10.291,116.304-62.882,124.245-128.768c69.943,10.264,134.964-38.116,145.228-108.059    C463.098,136.355,414.719,71.334,344.775,61.071z M350.273,260.513c-0.047,11.621-9.456,21.031-21.077,21.077h-9.045    c-11.621-0.047-21.031-9.456-21.077-21.077v-9.045c0.047-11.621,9.456-21.031,21.077-21.077h8.96    c11.655,0,21.116,9.423,21.163,21.077V260.513z M358.806,119.456l-6.4,79.616c-0.837,8.16-7.755,14.338-15.957,14.251h-23.552    c-8.202,0.087-15.12-6.091-15.957-14.251l-6.4-79.616c-0.331-4.232,1.123-8.409,4.011-11.52c3.079-3.33,7.412-5.217,11.947-5.205    h36.267c4.535-0.012,8.868,1.876,11.947,5.205C357.629,111.033,359.115,115.212,358.806,119.456z"/>
	</g>
</g>
<g>
</g>
<g>
</g>
<g>
</g>
<g>
</g>
<g>
</g>
<g>
</g>
<g>
</g>
<g>
</g>
<g>
</g>
<g>
</g>
<g>
</g>
<g>
</g>
<g>
</g>
<g>
</g>
<g>
</g>
</svg>
