<?xml version="1.0" encoding="iso-8859-1"?>
<!-- Generator: Adobe Illustrator 19.0.0, SVG Export Plug-In . SVG Version: 6.00 Build 0)  -->
<svg xmlns="http://www.w3.org/2000/svg" xmlns:xlink="http://www.w3.org/1999/xlink" version="1.1" id="Layer_1" x="0px" y="0px" viewBox="0 0 512 512" style="enable-background:new 0 0 512 512;" xml:space="preserve">
<g>
	<g>
		<rect x="392.533" y="281.6" width="17.067" height="76.8"/>
	</g>
</g>
<g>
	<g>
		<rect x="332.8" y="307.2" width="17.067" height="51.2"/>
	</g>
</g>
<g>
	<g>
		<path d="M341.333,196.267c-17.625,0.021-35.056,3.681-51.2,10.752v-61.952c0-9.426-7.641-17.067-17.067-17.067h-25.6V25.6    c0-14.138-11.461-25.6-25.6-25.6h-8.533c-14.139,0-25.6,11.461-25.6,25.6V128h-42.667V25.6c0-14.138-11.461-25.6-25.6-25.6h-8.533    c-14.138,0-25.6,11.461-25.6,25.6V128h-25.6c-9.426,0-17.067,7.641-17.067,17.067v102.4c0,32.99,26.744,59.733,59.733,59.733    h59.733V384c0,1.365,0,34.133-34.133,34.133c-27.269-1.008-50.192,20.28-51.2,47.549c-0.045,1.217-0.045,2.435,0,3.651v34.133    c0,4.713,3.82,8.533,8.533,8.533s8.533-3.82,8.533-8.533v-34.133c0-1.365,0-34.133,34.133-34.133    c27.269,1.008,50.192-20.28,51.2-47.549c0.045-1.217,0.045-2.435,0-3.651v-76.8h35.413c-0.802,5.655-1.229,11.356-1.28,17.067    c0,70.692,57.308,128,128,128s128-57.308,128-128S412.026,196.267,341.333,196.267z M91.392,176.725    c-1.61,1.597-3.791,2.488-6.059,2.475c-1.119,0.029-2.23-0.205-3.243-0.683c-1.047-0.406-2.004-1.015-2.816-1.792    c-0.748-0.851-1.379-1.798-1.877-2.816c-0.408-1.032-0.611-2.133-0.597-3.243c-0.013-2.268,0.877-4.448,2.475-6.059    c0.801-0.79,1.761-1.401,2.816-1.792c2.078-0.854,4.408-0.854,6.485,0c1.033,0.434,1.986,1.04,2.816,1.792    c0.754,0.829,1.36,1.782,1.792,2.816C94.52,170.602,93.813,174.271,91.392,176.725z M102.4,25.6c0-4.713,3.82-8.533,8.533-8.533    h8.533c4.713,0,8.533,3.82,8.533,8.533V128h-25.6V25.6z M102.4,170.667c0-4.713,3.82-8.533,8.533-8.533h25.6    c4.713,0,8.533,3.82,8.533,8.533s-3.82,8.533-8.533,8.533h-25.6C106.221,179.2,102.4,175.38,102.4,170.667z M185.143,266.164    c-3.546,3.105-8.937,2.747-12.042-0.798c-0.231-0.264-0.446-0.542-0.643-0.833l-41.387-54.187    c-3.066-3.58-2.649-8.966,0.931-12.032c1.614-1.382,3.686-2.113,5.811-2.048h29.44l-7.936-23.125    c-1.368-4.51,1.179-9.275,5.689-10.643c4.277-1.297,8.831,0.926,10.439,5.096l11.776,34.133c1.697,4.397-0.492,9.337-4.889,11.033    c-0.999,0.385-2.062,0.58-3.132,0.572h-24.064l30.805,40.789C189.046,257.668,188.689,263.06,185.143,266.164z M230.4,128h-25.6    V25.6c0-4.713,3.821-8.533,8.533-8.533h8.533c4.713,0,8.533,3.82,8.533,8.533V128z M307.2,366.933c0,4.713-3.82,8.533-8.533,8.533    h-34.133c-4.713,0-8.533-3.82-8.533-8.533V332.8c0-9.426,7.641-17.067,17.067-17.067h17.067c9.426,0,17.067,7.641,17.067,17.067    V366.933z M366.933,366.933c0,4.713-3.82,8.533-8.533,8.533h-34.133c-4.713,0-8.533-3.82-8.533-8.533V307.2    c0-9.426,7.641-17.067,17.067-17.067h17.067c9.426,0,17.067,7.641,17.067,17.067V366.933z M426.667,366.933    c0,4.713-3.82,8.533-8.533,8.533H384c-4.713,0-8.533-3.82-8.533-8.533V281.6c0-9.426,7.641-17.067,17.067-17.067H409.6    c9.426,0,17.067,7.641,17.067,17.067V366.933z"/>
	</g>
</g>
<g>
	<g>
		<rect x="273.067" y="332.8" width="17.067" height="25.6"/>
	</g>
</g>
<g>
</g>
<g>
</g>
<g>
</g>
<g>
</g>
<g>
</g>
<g>
</g>
<g>
</g>
<g>
</g>
<g>
</g>
<g>
</g>
<g>
</g>
<g>
</g>
<g>
</g>
<g>
</g>
<g>
</g>
</svg>
