<?xml version="1.0" encoding="iso-8859-1"?>
<!-- Generator: Adobe Illustrator 19.0.0, SVG Export Plug-In . SVG Version: 6.00 Build 0)  -->
<svg xmlns="http://www.w3.org/2000/svg" xmlns:xlink="http://www.w3.org/1999/xlink" version="1.1" id="Layer_1" x="0px" y="0px" viewBox="0 0 512 512" style="enable-background:new 0 0 512 512;" xml:space="preserve">
<g>
	<g>
		<polygon points="324.437,256 330.496,332.8 352.171,332.8 358.315,255.659   "/>
	</g>
</g>
<g>
	<g>
		<path d="M345.856,384h-9.045c-2.215,0-4.011,1.796-4.011,4.011v9.045c0,2.215,1.796,4.011,4.011,4.011h9.045    c2.215,0,4.011-1.796,4.011-4.011v-9.045C349.867,385.796,348.071,384,345.856,384z"/>
	</g>
</g>
<g>
	<g>
		<path d="M341.333,196.267c-17.625,0.021-35.056,3.681-51.2,10.752v-61.952c0-9.426-7.641-17.067-17.067-17.067h-25.6V25.6    c0-14.138-11.461-25.6-25.6-25.6h-8.533c-14.139,0-25.6,11.461-25.6,25.6V128h-42.667V25.6c0-14.138-11.461-25.6-25.6-25.6h-8.533    c-14.138,0-25.6,11.461-25.6,25.6V128h-25.6c-9.426,0-17.067,7.641-17.067,17.067v102.4c0,32.99,26.744,59.733,59.733,59.733    h59.733V384c0,1.365,0,34.133-34.133,34.133c-27.269-1.008-50.192,20.28-51.2,47.549c-0.045,1.217-0.045,2.435,0,3.651v34.133    c0,4.713,3.82,8.533,8.533,8.533s8.533-3.82,8.533-8.533v-34.133c0-1.365,0-34.133,34.133-34.133    c27.269,1.008,50.192-20.28,51.2-47.549c0.045-1.217,0.045-2.435,0-3.651v-76.8h35.413c-0.802,5.655-1.229,11.356-1.28,17.067    c0,70.692,57.308,128,128,128s128-57.308,128-128S412.026,196.267,341.333,196.267z M93.184,173.909L93.184,173.909    c-0.434,1.033-1.04,1.986-1.792,2.816c-3.319,3.346-8.722,3.368-12.068,0.049c-0.017-0.016-0.033-0.033-0.049-0.049    c-0.752-0.831-1.358-1.783-1.792-2.816c-0.913-2.065-0.913-4.42,0-6.485c0.776-2.144,2.464-3.832,4.608-4.608    c2.078-0.853,4.408-0.853,6.485,0c1.033,0.434,1.986,1.04,2.816,1.792c0.754,0.829,1.36,1.782,1.792,2.816    C94.097,169.489,94.097,171.844,93.184,173.909z M102.4,25.6c0-4.713,3.82-8.533,8.533-8.533h8.533    c4.713,0,8.533,3.82,8.533,8.533V128h-25.6V25.6z M102.4,170.667c0-4.713,3.82-8.533,8.533-8.533h25.6    c4.713,0,8.533,3.82,8.533,8.533s-3.82,8.533-8.533,8.533h-25.6C106.221,179.2,102.4,175.38,102.4,170.667z M185.143,266.164    c-3.546,3.105-8.937,2.747-12.042-0.798c-0.231-0.264-0.446-0.542-0.643-0.833l-41.387-54.187    c-3.066-3.58-2.649-8.966,0.931-12.032c1.614-1.382,3.686-2.113,5.811-2.048h29.44l-7.936-23.125    c-1.368-4.51,1.179-9.275,5.689-10.643c4.277-1.297,8.831,0.926,10.439,5.096l11.776,34.133c1.697,4.397-0.492,9.337-4.889,11.033    c-0.999,0.385-2.062,0.58-3.132,0.572h-24.064l30.805,40.789C189.046,257.668,188.689,263.06,185.143,266.164z M230.4,128h-25.6    V25.6c0-4.713,3.821-8.533,8.533-8.533h8.533c4.713,0,8.533,3.82,8.533,8.533V128z M366.933,397.056    c-0.047,11.621-9.456,21.031-21.077,21.077h-9.045c-11.621-0.047-21.031-9.456-21.077-21.077v-9.045    c0.047-11.621,9.456-21.031,21.077-21.077h8.96c11.655,0,21.116,9.423,21.163,21.077V397.056z M375.467,256l-6.4,79.616    c-0.837,8.16-7.755,14.338-15.957,14.251h-23.552c-8.202,0.087-15.12-6.091-15.957-14.251L307.2,256    c-0.331-4.232,1.123-8.409,4.011-11.52c3.079-3.33,7.412-5.217,11.947-5.205h36.267c4.535-0.012,8.868,1.876,11.947,5.205    C374.289,247.577,375.775,251.756,375.467,256z"/>
	</g>
</g>
<g>
</g>
<g>
</g>
<g>
</g>
<g>
</g>
<g>
</g>
<g>
</g>
<g>
</g>
<g>
</g>
<g>
</g>
<g>
</g>
<g>
</g>
<g>
</g>
<g>
</g>
<g>
</g>
<g>
</g>
</svg>
