<?xml version="1.0" encoding="iso-8859-1"?>
<!-- Generator: Adobe Illustrator 19.0.0, SVG Export Plug-In . SVG Version: 6.00 Build 0)  -->
<svg xmlns="http://www.w3.org/2000/svg" xmlns:xlink="http://www.w3.org/1999/xlink" version="1.1" id="Layer_1" x="0px" y="0px" viewBox="0 0 512.768 512.768" style="enable-background:new 0 0 512.768 512.768;" xml:space="preserve">
<g>
	<g>
		<path d="M384.768,0.384c-63.554,0.241-117.4,46.871-126.72,109.739c-0.846,6.05-1.274,12.152-1.28,18.261    c-0.008,6.113,0.448,12.218,1.365,18.261c6.138,42.392,33.074,78.904,71.765,97.28c11.539,5.534,23.855,9.275,36.523,11.093    c6.072,0.921,12.205,1.378,18.347,1.365c70.692,0,128-57.308,128-128S455.46,0.384,384.768,0.384z M375.467,68.651    c0-4.713,3.82-8.533,8.533-8.533s8.533,3.82,8.533,8.533v34.133c0,4.713-3.82,8.533-8.533,8.533s-8.533-3.82-8.533-8.533V68.651z     M425.813,171.051c-1.441,1.469-2.981,2.837-4.608,4.096c-1.792,1.365-3.328,2.475-5.035,3.584l-2.816,1.621    c-18.222,10.5-40.658,10.5-58.88,0l-2.304-1.28c-1.799-1.13-3.537-2.354-5.205-3.669c-1.53-1.187-2.984-2.47-4.352-3.84    c-11.799-11.254-18.436-26.874-18.347-43.179c-0.058-8.856,1.897-17.61,5.717-25.6c5.226-10.923,13.648-19.999,24.149-26.027    c3.977-2.528,9.251-1.354,11.779,2.624c2.528,3.977,1.354,9.251-2.624,11.779c-0.202,0.129-0.41,0.249-0.622,0.36    c-7.444,4.403-13.391,10.945-17.067,18.773c-2.77,5.631-4.229,11.816-4.267,18.091c0.019,11.728,4.864,22.931,13.397,30.976    c0.912,0.887,1.881,1.714,2.901,2.475c1.109,0.853,2.133,1.621,3.499,2.475l1.963,1.109c12.925,7.402,28.803,7.402,41.728,0    l2.475-1.451l3.413-2.475c1.083-0.841,2.11-1.753,3.072-2.731c12.891-12.753,16.314-32.261,8.533-48.64    c-3.668-7.812-9.619-14.328-17.067-18.688c-3.977-2.528-5.152-7.802-2.623-11.779c2.379-3.742,7.228-5.039,11.157-2.983    c10.546,6.036,19,15.146,24.235,26.112C448.926,125.813,444.026,153.228,425.813,171.051z"/>
	</g>
</g>
<g>
	<g>
		<path d="M264.533,192.469c-11.632-21-29.912-37.539-51.968-47.019c0.09-1.478,0.09-2.96,0-4.437    c0.001-20.595-16.694-37.291-37.289-37.292c-20.595-0.001-37.291,16.694-37.292,37.289c0,0.001,0,0.002,0,0.003    c0,0.455,0,0.91,0,1.365c-25.413,8.703-46.696,26.52-59.733,50.005c-2.364,4.077-0.974,9.299,3.103,11.662    c1.438,0.834,3.088,1.229,4.747,1.138h170.667c4.709,0.182,8.675-3.487,8.857-8.197    C265.686,195.409,265.308,193.845,264.533,192.469z"/>
	</g>
</g>
<g>
	<g>
		<path d="M299.695,461.18c-0.087,0-0.173,0.001-0.26,0.004h-68.267v-8.533h58.965c9.426,0,17.067-7.641,17.067-17.067    c0-4.949,0-9.643,0-14.421c31.317-40.533,49.835-68.267,40.789-114.944c-8.533-43.435-59.733-62.379-70.315-65.707    c-0.939-2.816-1.877-5.205-2.56-7.083c-2.503-6.813-9.041-11.297-16.299-11.179H8.533c-4.713,0-8.533,3.82-8.533,8.533    c1.022,29.406,18.42,55.766,45.056,68.267c-8.949,45.132-12.615,91.151-10.923,137.131c0.322,9.192,7.869,16.475,17.067,16.469    h60.757v8.533H43.691c-4.713,0-8.533,3.82-8.533,8.533v25.6c0,9.426,7.641,17.067,17.067,17.067h238.933    c9.426,0,17.067-7.641,17.067-17.067v-25.6C308.226,465.005,304.407,461.182,299.695,461.18z M330.923,309.205    c6.229,32.171-2.56,53.419-25.6,84.821c-2.488-44.938-9.783-89.48-21.76-132.864C300.203,268.587,326.059,284.032,330.923,309.205    z M49.237,281.984c-16.364-8.689-27.819-24.425-31.061-42.667h45.483C57.797,253.161,52.977,267.423,49.237,281.984z     M214.101,461.184h-85.333v-8.533h85.333V461.184z M171.435,409.984c-24.32,0-42.667-34.816-42.667-81.067    c0-46.251,18.347-81.067,42.667-81.067s42.667,34.816,42.667,81.067C214.101,375.168,195.755,409.984,171.435,409.984z"/>
	</g>
</g>
<g>
	<g>
		<path d="M171.435,264.917c-10.667,0-25.6,24.32-25.6,64c0,39.68,14.933,64,25.6,64c10.667,0,25.6-24.32,25.6-64    C197.035,289.237,182.187,264.917,171.435,264.917z"/>
	</g>
</g>
<g>
</g>
<g>
</g>
<g>
</g>
<g>
</g>
<g>
</g>
<g>
</g>
<g>
</g>
<g>
</g>
<g>
</g>
<g>
</g>
<g>
</g>
<g>
</g>
<g>
</g>
<g>
</g>
<g>
</g>
</svg>
