<?xml version="1.0" encoding="iso-8859-1"?>
<!-- Generator: Adobe Illustrator 19.0.0, SVG Export Plug-In . SVG Version: 6.00 Build 0)  -->
<svg xmlns="http://www.w3.org/2000/svg" xmlns:xlink="http://www.w3.org/1999/xlink" version="1.1" id="Layer_1" x="0px" y="0px" viewBox="0 0 512 512" style="enable-background:new 0 0 512 512;" xml:space="preserve">
<g>
	<g>
		<path d="M422.315,109.739c-7.019-14.823-21.914-24.31-38.315-24.405c-16.533,0.098-31.552,9.647-38.656,24.576    c-2.681,5.651-4.052,11.835-4.011,18.091c0.019,11.728,4.864,22.931,13.397,30.976c0.917,0.882,1.886,1.708,2.901,2.475    l3.499,2.475l1.963,1.109c12.925,7.402,28.803,7.402,41.728,0l2.475-1.451l3.413-2.475c1.083-0.841,2.11-1.753,3.072-2.731    C426.673,145.626,430.095,126.118,422.315,109.739z M392.533,145.067c0,4.713-3.82,8.533-8.533,8.533s-8.533-3.821-8.533-8.533    v-34.133c0-4.713,3.82-8.533,8.533-8.533s8.533,3.82,8.533,8.533V145.067z"/>
	</g>
</g>
<g>
	<g>
		<path d="M384,0c-63.554,0.241-117.4,46.871-126.72,109.739c-0.844,6.051-1.272,12.152-1.28,18.261    c-0.009,6.113,0.447,12.218,1.365,18.261c6.138,42.392,33.074,78.904,71.765,97.28c11.539,5.533,23.855,9.274,36.523,11.093    c6.072,0.921,12.205,1.378,18.347,1.365c70.692,0,128-57.308,128-128S454.692,0,384,0z M425.813,170.667    c-1.441,1.469-2.981,2.837-4.608,4.096c-1.792,1.365-3.328,2.475-5.035,3.584l-2.816,1.621c-18.222,10.5-40.658,10.5-58.88,0    l-2.304-1.28c-1.766-1.107-3.475-2.303-5.12-3.584c-1.527-1.16-2.981-2.414-4.352-3.755    c-11.823-11.315-18.485-26.985-18.432-43.349c-0.058-8.856,1.897-17.61,5.717-25.6c14.084-29.832,49.686-42.598,79.518-28.514    c12.523,5.912,22.602,15.992,28.514,28.514C448.926,125.429,444.026,152.844,425.813,170.667z"/>
	</g>
</g>
<g>
	<g>
		<path d="M264.533,192.085c-11.659-21.01-29.97-37.55-52.053-47.019c0.092-1.478,0.092-2.96,0-4.437    c0.001-20.595-16.694-37.291-37.289-37.292c-20.595-0.001-37.291,16.694-37.292,37.289c0,0.001,0,0.002,0,0.003    c0,0.455,0,0.91,0,1.365C112.49,150.705,91.209,168.52,78.165,192c-2.364,4.077-0.974,9.299,3.103,11.662    c1.438,0.834,3.088,1.229,4.747,1.138h170.667c4.707,0.231,8.71-3.398,8.941-8.105    C265.702,195.086,265.324,193.488,264.533,192.085z"/>
	</g>
</g>
<g>
	<g>
		<path d="M171.349,264.533c-10.667,0-25.6,24.32-25.6,64c0,39.68,14.933,64,25.6,64c10.667,0,25.6-24.32,25.6-64    C196.949,288.853,182.101,264.533,171.349,264.533z"/>
	</g>
</g>
<g>
	<g>
		<path d="M299.698,460.793c-0.116,0-0.232,0.002-0.348,0.007h-68.267v-8.533h59.051c9.426,0,17.067-7.641,17.067-17.067    c0-4.949,0-9.643,0-14.421c31.317-40.533,49.835-68.267,40.789-114.944c-8.533-43.435-59.733-62.379-70.315-65.707    c-0.939-2.816-1.877-5.205-2.56-7.083c-2.513-6.843-9.096-11.334-16.384-11.179H8.533C3.82,221.867,0,225.687,0,230.4    c1.022,29.406,18.42,55.766,45.056,68.267c-8.956,45.131-12.621,91.151-10.923,137.131c0.322,9.192,7.869,16.475,17.067,16.469    h60.757v8.533H43.691c-4.713,0-8.533,3.82-8.533,8.533v25.6c0,9.426,7.641,17.067,17.067,17.067h238.933    c9.426,0,17.067-7.641,17.067-17.067v-25.6C308.228,464.621,304.41,460.797,299.698,460.793z M330.837,308.821    c6.229,32.171-2.56,53.419-25.6,84.821c-2.488-44.938-9.783-89.48-21.76-132.864C300.117,268.203,325.973,283.648,330.837,308.821    z M49.152,281.6c-16.364-8.689-27.819-24.425-31.061-42.667h45.483C57.713,252.777,52.892,267.039,49.152,281.6z M214.016,460.8    h-85.333v-8.533h85.333V460.8z M171.349,409.6c-24.32,0-42.667-34.816-42.667-81.067c0-46.251,18.347-81.067,42.667-81.067    s42.667,34.816,42.667,81.067C214.016,374.784,195.669,409.6,171.349,409.6z"/>
	</g>
</g>
<g>
</g>
<g>
</g>
<g>
</g>
<g>
</g>
<g>
</g>
<g>
</g>
<g>
</g>
<g>
</g>
<g>
</g>
<g>
</g>
<g>
</g>
<g>
</g>
<g>
</g>
<g>
</g>
<g>
</g>
</svg>
