<?xml version="1.0" encoding="iso-8859-1"?>
<!-- Generator: Adobe Illustrator 19.0.0, SVG Export Plug-In . SVG Version: 6.00 Build 0)  -->
<svg xmlns="http://www.w3.org/2000/svg" xmlns:xlink="http://www.w3.org/1999/xlink" version="1.1" id="Layer_1" x="0px" y="0px" viewBox="0 0 512 512" style="enable-background:new 0 0 512 512;" xml:space="preserve">
<g>
	<g>
		<g>
			<path d="M384,0c-20.844,0.01-41.363,5.169-59.733,15.019C323.225,6.401,315.881-0.062,307.2,0h-256     c-9.426,0-17.067,7.641-17.067,17.067v409.6c-9.426,0-17.067,7.641-17.067,17.067v17.067C7.641,460.801,0,468.441,0,477.867v25.6     C0,508.18,3.821,512,8.534,512h341.333c4.713,0,8.533-3.82,8.533-8.533v-25.6c0-9.426-7.641-17.067-17.067-17.067v-17.067     c0-9.426-7.641-17.067-17.067-17.067V240.982l4.864,2.56c11.547,5.515,23.86,9.254,36.523,11.093     c6.07,0.934,12.205,1.39,18.347,1.365c70.692,0,128-57.308,128-128S454.693,0,384,0z M221.867,145.067     c0-4.713,3.82-8.533,8.533-8.533s8.533,3.82,8.533,8.533v8.533c0,4.713-3.82,8.533-8.533,8.533s-8.533-3.821-8.533-8.533V145.067     z M221.867,187.734c0-4.713,3.82-8.533,8.533-8.533s8.533,3.82,8.533,8.533v8.533c0,4.713-3.82,8.533-8.533,8.533     s-8.533-3.82-8.533-8.533V187.734z M221.867,230.4c0-4.713,3.82-8.533,8.533-8.533s8.533,3.82,8.533,8.533v8.533     c0,4.713-3.82,8.533-8.533,8.533s-8.533-3.82-8.533-8.533V230.4z M221.867,273.067c0-4.713,3.82-8.533,8.533-8.533     s8.533,3.821,8.533,8.533v8.533c0,4.713-3.82,8.533-8.533,8.533s-8.533-3.82-8.533-8.533V273.067z M179.2,59.734     c21.077,0,38.656,18.517,42.069,42.667h-84.139C140.544,78.251,158.123,59.734,179.2,59.734z M196.267,247.467     c-4.713,0-8.533-3.82-8.533-8.533V230.4c0-4.713,3.82-8.533,8.533-8.533s8.533,3.82,8.533,8.533v8.533     C204.8,243.647,200.98,247.467,196.267,247.467z M204.8,273.067v8.533c0,4.713-3.82,8.533-8.533,8.533s-8.533-3.82-8.533-8.533     v-8.533c0-4.713,3.82-8.533,8.533-8.533S204.8,268.354,204.8,273.067z M196.267,204.8c-4.713,0-8.533-3.82-8.533-8.533v-8.533     c0-4.713,3.82-8.533,8.533-8.533s8.533,3.82,8.533,8.533v8.533C204.8,200.98,200.98,204.8,196.267,204.8z M196.267,162.134     c-4.713,0-8.533-3.821-8.533-8.533v-8.533c0-4.713,3.82-8.533,8.533-8.533s8.533,3.82,8.533,8.533v8.533     C204.8,158.313,200.98,162.134,196.267,162.134z M162.134,247.467c-4.713,0-8.533-3.82-8.533-8.533V230.4     c0-4.713,3.82-8.533,8.533-8.533s8.533,3.82,8.533,8.533v8.533C170.667,243.647,166.846,247.467,162.134,247.467z      M170.667,273.067v8.533c0,4.713-3.82,8.533-8.533,8.533s-8.533-3.82-8.533-8.533v-8.533c0-4.713,3.82-8.533,8.533-8.533     S170.667,268.354,170.667,273.067z M162.134,204.8c-4.713,0-8.533-3.82-8.533-8.533v-8.533c0-4.713,3.82-8.533,8.533-8.533     s8.533,3.82,8.533,8.533v8.533C170.667,200.98,166.846,204.8,162.134,204.8z M162.134,162.134c-4.713,0-8.533-3.821-8.533-8.533     v-8.533c0-4.713,3.82-8.533,8.533-8.533s8.533,3.82,8.533,8.533v8.533C170.667,158.313,166.846,162.134,162.134,162.134z      M119.467,145.067c0-4.713,3.82-8.533,8.533-8.533s8.533,3.82,8.533,8.533v8.533c0,4.713-3.82,8.533-8.533,8.533     s-8.533-3.821-8.533-8.533V145.067z M119.467,187.734c0-4.713,3.82-8.533,8.533-8.533s8.533,3.82,8.533,8.533v8.533     c0,4.713-3.82,8.533-8.533,8.533s-8.533-3.82-8.533-8.533V187.734z M119.467,230.4c0-4.713,3.82-8.533,8.533-8.533     s8.533,3.82,8.533,8.533v8.533c0,4.713-3.82,8.533-8.533,8.533s-8.533-3.82-8.533-8.533V230.4z M119.467,273.067     c0-4.713,3.82-8.533,8.533-8.533s8.533,3.821,8.533,8.533v8.533c0,4.713-3.82,8.533-8.533,8.533s-8.533-3.82-8.533-8.533V273.067     z M51.2,221.867h17.067v25.6H51.2V221.867z M34.134,443.734h290.133v17.067H34.134V443.734z M341.334,477.867v17.067H17.067     v-17.067H341.334z M425.814,170.667c-1.422,1.488-2.964,2.858-4.608,4.096c-1.792,1.365-3.328,2.475-5.035,3.584l-2.731,1.621     c-8.934,5.194-19.106,7.877-29.44,7.765c-10.354,0.094-20.536-2.65-29.44-7.936l-2.304-1.28c-1.767-1.107-3.475-2.303-5.12-3.584     c-1.574-1.166-3.057-2.45-4.437-3.84c-11.758-11.253-18.415-26.818-18.432-43.093c-0.091-8.86,1.865-17.621,5.717-25.6     c14.084-29.832,49.686-42.598,79.518-28.514c12.523,5.912,22.602,15.992,28.514,28.514     C448.927,125.429,444.026,152.844,425.814,170.667z"/>
			<path d="M421.275,107.311c-0.09-0.162-0.182-0.322-0.273-0.483c-10.912-19.161-34.9-27.006-55.195-17.466     c-8.996,4.229-16.234,11.466-20.462,20.462c-2.683,5.681-4.054,11.893-4.011,18.176c0.019,11.728,4.864,22.931,13.397,30.976     c0.921,0.877,1.89,1.704,2.901,2.475c1.024,0.853,2.133,1.621,3.499,2.56l1.963,1.024c12.92,7.419,28.808,7.419,41.728,0     l2.475-1.451c1.192-0.748,2.332-1.575,3.413-2.475c1.107-0.813,2.135-1.727,3.072-2.731c8.253-7.949,12.907-18.92,12.885-30.379     c0.034-6.291-1.367-12.507-4.096-18.176C422.166,108.964,421.728,108.131,421.275,107.311z M392.534,145.067     c0,4.713-3.82,8.533-8.533,8.533s-8.533-3.821-8.533-8.533v-34.133c0-4.713,3.82-8.533,8.533-8.533s8.533,3.82,8.533,8.533     V145.067z"/>
		</g>
	</g>
</g>
<g>
</g>
<g>
</g>
<g>
</g>
<g>
</g>
<g>
</g>
<g>
</g>
<g>
</g>
<g>
</g>
<g>
</g>
<g>
</g>
<g>
</g>
<g>
</g>
<g>
</g>
<g>
</g>
<g>
</g>
</svg>
