<?xml version="1.0" encoding="iso-8859-1"?>
<!-- Generator: Adobe Illustrator 19.0.0, SVG Export Plug-In . SVG Version: 6.00 Build 0)  -->
<svg xmlns="http://www.w3.org/2000/svg" xmlns:xlink="http://www.w3.org/1999/xlink" version="1.1" id="Layer_1" x="0px" y="0px" viewBox="0 0 512 512" style="enable-background:new 0 0 512 512;" xml:space="preserve">
<g>
	<g>
		<path d="M382.635,140.613c0.783,5.655,1.182,11.357,1.195,17.067c0,2.304,0,4.523,0,6.741c0,0.853,0,1.792,0,2.475    s0,1.365,0,2.048c-3.134,35.151-20.641,67.448-48.384,89.259c-3.328,3.157-7.68,5.888-11.861,8.533    c-6.268,3.924-12.897,7.238-19.797,9.899l25.6,19.456c3.77,2.828,4.534,8.176,1.707,11.947c-1.612,2.149-4.141,3.413-6.827,3.413    c-1.846,0-3.643-0.599-5.12-1.707l-20.48-15.36v136.533H460.8V140.784L382.635,140.613z"/>
	</g>
</g>
<g>
	<g>
		<path d="M188.757,266.736c-4.181-2.645-8.533-5.376-11.861-8.533c-26.078-20.556-43.2-50.398-47.787-83.285h-18.176    c-4.713,0-8.533-3.82-8.533-8.533s3.82-8.533,8.533-8.533H128c0.013-5.709,0.412-11.411,1.195-17.067H51.2v290.133h162.133    V278.427C204.717,275.492,196.47,271.569,188.757,266.736z M82.859,172.443c-3.34,3.325-8.743,3.314-12.068-0.026    c-2.427-2.438-3.153-6.095-1.841-9.275c0.406-1.047,1.015-2.004,1.792-2.816c3.319-3.346,8.722-3.368,12.068-0.049    c0.017,0.016,0.033,0.033,0.049,0.049c0.777,0.812,1.386,1.768,1.792,2.816C85.987,166.319,85.28,169.989,82.859,172.443z"/>
	</g>
</g>
<g>
	<g>
		<path d="M494.933,89.584H364.203c0.939,1.365,1.792,2.816,2.645,4.267c5.42,9.389,9.635,19.423,12.544,29.867H460.8    c9.426,0,17.067,7.641,17.067,17.067v290.133c0,9.426-7.641,17.067-17.067,17.067H298.667c-9.426,0-17.067-7.641-17.067-17.067    V283.205c-16.884,3.527-34.316,3.527-51.2,0v147.712c0,9.426-7.641,17.067-17.067,17.067H51.2    c-9.426,0-17.067-7.641-17.067-17.067V140.784c0-9.426,7.641-17.067,17.067-17.067h81.493    c2.837-10.442,6.995-20.478,12.373-29.867c0.853-1.451,1.707-2.901,2.645-4.267H17.067C7.641,89.584,0,97.225,0,106.651v358.4    c0,9.426,7.641,17.067,17.067,17.067h477.867c9.426,0,17.067-7.641,17.067-17.067v-358.4    C512,97.225,504.359,89.584,494.933,89.584z"/>
	</g>
</g>
<g>
	<g>
		<path d="M307.2,140.784H204.8c-4.713,0-8.533,3.82-8.533,8.533v51.2c0,4.713,3.82,8.533,8.533,8.533h102.4    c4.713,0,8.533-3.82,8.533-8.533v-51.2C315.733,144.605,311.913,140.784,307.2,140.784z M264.533,174.917v8.533    c0,4.713-3.82,8.533-8.533,8.533s-8.533-3.821-8.533-8.533v-8.533c-4.713,0-8.533-3.82-8.533-8.533s3.82-8.533,8.533-8.533h17.067    c4.713,0,8.533,3.82,8.533,8.533S269.246,174.917,264.533,174.917z"/>
	</g>
</g>
<g>
	<g>
		<path d="M382.805,140.784c0-3.499-1.024-6.997-1.707-10.411c-0.683-3.413-1.109-4.437-1.707-6.656    c-2.882-10.439-7.068-20.474-12.459-29.867c-0.853-1.451-1.707-2.901-2.645-4.267c-37.729-59.782-116.778-77.66-176.56-39.93    c-16.117,10.171-29.759,23.813-39.93,39.93c-0.939,1.365-1.792,2.816-2.645,4.267c-5.408,9.384-9.595,19.421-12.459,29.867    c-0.683,2.219-1.28,4.437-1.792,6.741c-0.512,2.304-1.28,6.827-1.707,10.325c-0.783,5.655-1.182,11.357-1.195,17.067    c0,3.157,0,6.229,0,9.131c0,2.901,0.427,5.291,0.768,7.936c4.524,32.98,21.652,62.923,47.787,83.541    c3.755,2.901,7.68,5.632,11.861,8.533c7.833,4.768,16.195,8.606,24.917,11.435c1.963,0.768,4.011,1.451,6.059,2.048    c3.611,1.131,7.287,2.043,11.008,2.731c16.884,3.527,34.316,3.527,51.2,0c3.691-0.698,7.338-1.61,10.923-2.731    c3.71-1.076,7.356-2.358,10.923-3.84c6.9-2.66,13.529-5.975,19.797-9.899c4.181-2.645,8.533-5.376,11.861-8.533    c27.743-21.811,45.25-54.108,48.384-89.259c0-0.683,0-1.365,0-2.048s0-1.621,0-2.475c0-2.219,0-4.437,0-6.741    C383.638,152.039,383.41,146.395,382.805,140.784z M332.8,200.517c0,14.138-11.461,25.6-25.6,25.6H204.8    c-14.138,0-25.6-11.461-25.6-25.6v-51.2c0-14.138,11.461-25.6,25.6-25.6h8.533v-8.533c-0.012-23.564,19.081-42.676,42.645-42.688    c10.411-0.005,20.464,3.796,28.267,10.688c3.82,2.76,4.679,8.094,1.919,11.914s-8.094,4.679-11.914,1.919    c-0.425-0.307-0.821-0.653-1.183-1.033l-1.792-1.451l-1.707-1.109c-3.301-2.16-7.08-3.478-11.008-3.84H256    c-14.138,0-25.6,11.461-25.6,25.6v8.533h76.8c14.138,0,25.6,11.461,25.6,25.6V200.517z"/>
	</g>
</g>
<g>
</g>
<g>
</g>
<g>
</g>
<g>
</g>
<g>
</g>
<g>
</g>
<g>
</g>
<g>
</g>
<g>
</g>
<g>
</g>
<g>
</g>
<g>
</g>
<g>
</g>
<g>
</g>
<g>
</g>
</svg>
