<?xml version="1.0" encoding="iso-8859-1"?>
<!-- Generator: Adobe Illustrator 19.0.0, SVG Export Plug-In . SVG Version: 6.00 Build 0)  -->
<svg xmlns="http://www.w3.org/2000/svg" xmlns:xlink="http://www.w3.org/1999/xlink" version="1.1" id="Layer_1" x="0px" y="0px" viewBox="0 0 512 512" style="enable-background:new 0 0 512 512;" xml:space="preserve">
<g>
	<g>
		<g>
			<path d="M51.2,385.638h162.133V95.504H51.2V385.638z M110.933,112.571h51.2c4.713,0,8.533,3.82,8.533,8.533     s-3.82,8.533-8.533,8.533h-51.2c-4.713,0-8.533-3.82-8.533-8.533S106.221,112.571,110.933,112.571z M68.949,117.862     c0.432-1.034,1.038-1.987,1.792-2.816c3.319-3.346,8.722-3.368,12.068-0.049c0.017,0.016,0.033,0.033,0.049,0.049     c0.754,0.829,1.36,1.782,1.792,2.816c0.123,0.292,0.21,0.591,0.298,0.889c1.154,4.139-0.968,8.57-5.049,10.204     c-1.753,0.702-3.68,0.795-5.481,0.289c-0.289-0.087-0.579-0.17-0.861-0.289c-0.524-0.203-1.025-0.457-1.496-0.757     c-0.236-0.15-0.464-0.312-0.685-0.484s-0.432-0.356-0.635-0.551c-0.188-0.207-0.368-0.422-0.537-0.644     c-0.509-0.666-0.931-1.396-1.255-2.172c-0.456-1.033-0.685-2.138-0.685-3.243S68.493,118.894,68.949,117.862z"/>
			<path d="M494.933,44.304H17.067C7.641,44.304,0,51.945,0,61.371v358.4c0,9.426,7.641,17.067,17.067,17.067h332.8v-34.133h-51.2     c-9.426,0-17.067-7.641-17.067-17.067V95.504c0-9.426,7.641-17.067,17.067-17.067h170.667c2.074,0.003,4.076,0.761,5.632,2.133     l0.768,0.768c0.611,0.68,1.102,1.459,1.451,2.304c0.209,0.498,0.38,1.012,0.512,1.536c0.099,0.593,0.156,1.191,0.171,1.792     v303.275c-0.021,5.003-2.236,9.744-6.059,12.971l-17.067,16.555l-17.92,17.067h58.112c9.426,0,17.067-7.641,17.067-17.067v-358.4     C512,51.945,504.359,44.304,494.933,44.304z M230.4,385.638c0,9.426-7.641,17.067-17.067,17.067H51.2     c-9.426,0-17.067-7.641-17.067-17.067V95.504c0-9.426,7.641-17.067,17.067-17.067h162.133c9.426,0,17.067,7.641,17.067,17.067     V385.638z"/>
		</g>
	</g>
</g>
<g>
	<g>
		<path d="M366.933,193.04v0.597v109.995l29.44,14.677c4.184,2.13,5.862,7.239,3.755,11.435c-1.446,2.87-4.381,4.684-7.595,4.693    c-1.339,0.016-2.66-0.307-3.84-0.939l-21.76-10.837v136.533c0.018,4.713,3.853,8.519,8.566,8.501    c2.181-0.008,4.277-0.852,5.856-2.357l30.464-28.501l20.821-19.797l28.16-26.453V106.512L366.933,193.04z M449.195,178.875h-0.341    l-51.2,42.667c-1.444,1.2-3.244,1.89-5.12,1.963c-2.538,0.004-4.946-1.122-6.571-3.072c-3.017-3.621-2.528-9.001,1.093-12.018    c0.005-0.005,0.011-0.009,0.016-0.014l51.2-42.667c3.629-3.016,9.016-2.52,12.032,1.109    C453.32,170.472,452.824,175.859,449.195,178.875z"/>
	</g>
</g>
<g>
</g>
<g>
</g>
<g>
</g>
<g>
</g>
<g>
</g>
<g>
</g>
<g>
</g>
<g>
</g>
<g>
</g>
<g>
</g>
<g>
</g>
<g>
</g>
<g>
</g>
<g>
</g>
<g>
</g>
</svg>
