<?xml version="1.0" encoding="iso-8859-1"?>
<!-- Generator: Adobe Illustrator 19.0.0, SVG Export Plug-In . SVG Version: 6.00 Build 0)  -->
<svg xmlns="http://www.w3.org/2000/svg" xmlns:xlink="http://www.w3.org/1999/xlink" version="1.1" id="Layer_1" x="0px" y="0px" viewBox="0 0 512 512" style="enable-background:new 0 0 512 512;" xml:space="preserve">
<g>
	<g>
		<path d="M298.667,110.933v25.6V243.2l30.72,23.04c3.773,2.824,4.542,8.172,1.717,11.945c-2.824,3.773-8.172,4.542-11.945,1.717    c-0.004-0.003-0.008-0.006-0.012-0.009l-20.48-15.36v136.533H460.8V110.933H298.667z M375.467,145.067h-51.2    c-4.713,0-8.533-3.82-8.533-8.533s3.82-8.533,8.533-8.533h51.2c4.713,0,8.533,3.82,8.533,8.533S380.18,145.067,375.467,145.067z"/>
	</g>
</g>
<g>
	<g>
		<path d="M51.2,110.933v290.133h162.133V110.933H51.2z M80.017,144.433c-3.18,1.312-6.837,0.586-9.275-1.841    c-1.597-1.61-2.488-3.79-2.475-6.059c0.013-1.115,0.245-2.217,0.683-3.243c0.406-1.047,1.015-2.004,1.792-2.816    c3.319-3.346,8.722-3.368,12.068-0.049c0.017,0.016,0.033,0.033,0.049,0.049c0.777,0.812,1.386,1.769,1.792,2.816    C86.448,137.647,84.373,142.636,80.017,144.433z M162.133,145.067h-51.2c-4.713,0-8.533-3.82-8.533-8.533s3.82-8.533,8.533-8.533    h51.2c4.713,0,8.533,3.82,8.533,8.533S166.846,145.067,162.133,145.067z"/>
	</g>
</g>
<g>
	<g>
		<path d="M494.933,59.733H17.067C7.641,59.733,0,67.374,0,76.8v358.4c0,9.426,7.641,17.067,17.067,17.067h477.867    c9.426,0,17.067-7.641,17.067-17.067V76.8C512,67.374,504.359,59.733,494.933,59.733z M230.4,401.067    c0,9.426-7.641,17.067-17.067,17.067H51.2c-9.426,0-17.067-7.641-17.067-17.067V110.933c0-9.426,7.641-17.067,17.067-17.067    h162.133c9.426,0,17.067,7.641,17.067,17.067V401.067z M477.867,401.067c0,9.426-7.641,17.067-17.067,17.067H298.667    c-9.426,0-17.067-7.641-17.067-17.067V110.933c0-9.426,7.641-17.067,17.067-17.067H460.8c9.426,0,17.067,7.641,17.067,17.067    V401.067z"/>
	</g>
</g>
<g>
</g>
<g>
</g>
<g>
</g>
<g>
</g>
<g>
</g>
<g>
</g>
<g>
</g>
<g>
</g>
<g>
</g>
<g>
</g>
<g>
</g>
<g>
</g>
<g>
</g>
<g>
</g>
<g>
</g>
</svg>
