<?xml version="1.0" encoding="iso-8859-1"?>
<!-- Generator: Adobe Illustrator 19.0.0, SVG Export Plug-In . SVG Version: 6.00 Build 0)  -->
<svg xmlns="http://www.w3.org/2000/svg" xmlns:xlink="http://www.w3.org/1999/xlink" version="1.1" id="Layer_1" x="0px" y="0px" viewBox="0 0 512.001 512.001" style="enable-background:new 0 0 512.001 512.001;" xml:space="preserve">
<g>
	<g>
		<g>
			<path d="M157.667,221.867c23.564,0,42.667-19.103,42.667-42.667s-19.103-42.667-42.667-42.667S115,155.636,115,179.201     S134.103,221.867,157.667,221.867z M151.608,173.142c0.812-0.777,1.768-1.386,2.816-1.792c3.178-1.336,6.847-0.629,9.301,1.792     c1.559,1.635,2.443,3.799,2.475,6.059c-0.013,1.115-0.245,2.217-0.683,3.243c-0.216,0.517-0.476,1.014-0.775,1.485     c-0.3,0.471-0.64,0.917-1.017,1.331c-3.319,3.346-8.722,3.368-12.068,0.049c-0.017-0.016-0.033-0.033-0.049-0.049     c-0.377-0.415-0.717-0.86-1.017-1.331c-0.3-0.471-0.559-0.968-0.775-1.485c-0.437-1.026-0.669-2.128-0.683-3.243     C149.165,176.941,150.049,174.777,151.608,173.142z"/>
			<path d="M157.667,281.601c-47.128,0-85.333,38.205-85.333,85.333s38.205,85.333,85.333,85.333S243,414.062,243,366.934     S204.795,281.601,157.667,281.601z M157.667,401.067c-18.851,0-34.133-15.282-34.133-34.133s15.282-34.133,34.133-34.133     s34.133,15.282,34.133,34.133S176.518,401.067,157.667,401.067z"/>
			<path d="M431.502,19.967c-20.633-13.112-44.589-20.04-69.035-19.967c-54.141,0.246-102.338,34.356-120.576,85.333H63.8     c-23.564,0-42.667,19.103-42.667,42.667v341.333c0,23.564,19.102,42.667,42.667,42.667h187.733     c23.564,0,42.667-19.102,42.667-42.667V236.033c59.665,37.915,138.769,20.283,176.684-39.382S491.167,57.882,431.502,19.967z      M157.667,119.467c32.99,0,59.733,26.744,59.733,59.733s-26.744,59.733-59.733,59.733s-59.733-26.744-59.733-59.733     S124.677,119.467,157.667,119.467z M157.667,469.334c-56.554,0-102.4-45.846-102.4-102.4s45.846-102.4,102.4-102.4     s102.4,45.846,102.4,102.4S214.221,469.334,157.667,469.334z M371,190.379c0.013,5.685-3.335,10.84-8.533,13.141     c-1.847,0.847-3.856,1.283-5.888,1.28c-3.13-0.083-6.138-1.227-8.533-3.243l-13.312-11.435l-27.051-27.989H282.68     c-7.87-0.094-14.174-6.549-14.08-14.419c0-0.001,0-0.001,0-0.002v-39.424c-0.095-7.87,6.208-14.327,14.078-14.421     c0.001,0,0.001,0,0.002,0h25.088l26.624-26.453l13.653-11.776c4.037-3.356,9.634-4.118,14.421-1.963     c5.2,2.253,8.557,7.389,8.533,13.056V190.379z M396.6,164.353c-3.302-0.025-6.293-1.953-7.68-4.949     c-2.014-4.242-0.221-9.314,4.011-11.349c10.792-5.287,15.256-18.322,9.969-29.114c-2.125-4.337-5.632-7.844-9.969-9.969     c-3.803-2.783-4.63-8.123-1.846-11.926c2.1-2.87,5.76-4.136,9.185-3.178c19.323,9.406,27.361,32.696,17.955,52.018     c-3.809,7.824-10.131,14.146-17.955,17.955C399.099,164.278,397.846,164.453,396.6,164.353z M414.605,187.051     c-1.013,0.478-2.123,0.712-3.243,0.683c-4.712-0.055-8.488-3.921-8.432-8.633c0.04-3.384,2.076-6.425,5.19-7.751     c18.193-6.822,30.486-23.931,31.147-43.349c-0.661-19.419-12.954-36.527-31.147-43.349c-4.163-2.209-5.748-7.374-3.539-11.537     c1.914-3.608,6.117-5.354,10.024-4.164c24.58,9.422,41.054,32.735,41.728,59.051     C455.659,154.316,439.185,177.629,414.605,187.051z"/>
			<circle cx="157.667" cy="366.934" r="17.067"/>
			<path d="M317.24,108.459c-1.589,1.576-3.735,2.465-5.973,2.475h-25.6v34.133h25.6c2.31-0.013,4.527,0.91,6.144,2.56     l29.184,30.037l7.339,6.4V73.131l-7.936,6.827L317.24,108.459z"/>
		</g>
	</g>
</g>
<g>
</g>
<g>
</g>
<g>
</g>
<g>
</g>
<g>
</g>
<g>
</g>
<g>
</g>
<g>
</g>
<g>
</g>
<g>
</g>
<g>
</g>
<g>
</g>
<g>
</g>
<g>
</g>
<g>
</g>
</svg>
