<?xml version="1.0" encoding="iso-8859-1"?>
<!-- Generator: Adobe Illustrator 19.0.0, SVG Export Plug-In . SVG Version: 6.00 Build 0)  -->
<svg xmlns="http://www.w3.org/2000/svg" xmlns:xlink="http://www.w3.org/1999/xlink" version="1.1" id="Layer_1" x="0px" y="0px" viewBox="0 0 512.001 512.001" style="enable-background:new 0 0 512.001 512.001;" xml:space="preserve">
<g>
	<g>
		<g>
			<path d="M157.667,221.867c23.564,0,42.667-19.103,42.667-42.667s-19.103-42.667-42.667-42.667S115,155.636,115,179.201     S134.103,221.867,157.667,221.867z M151.608,173.142l1.28-1.024l1.536-0.768c0.509-0.258,1.057-0.431,1.621-0.512     c1.066-0.257,2.177-0.257,3.243,0c0.565,0.081,1.113,0.254,1.621,0.512c0.524,0.17,1.015,0.43,1.451,0.768     c0.488,0.295,0.946,0.638,1.365,1.024c1.559,1.635,2.443,3.799,2.475,6.059c-0.013,1.115-0.245,2.217-0.683,3.243     c-0.216,0.517-0.476,1.014-0.775,1.485c-0.3,0.471-0.64,0.917-1.017,1.331c-3.319,3.346-8.722,3.368-12.068,0.049     c-0.017-0.016-0.033-0.033-0.049-0.049c-0.377-0.415-0.717-0.86-1.017-1.331c-0.3-0.471-0.559-0.968-0.775-1.485     c-0.437-1.026-0.669-2.128-0.683-3.243C149.165,176.941,150.049,174.777,151.608,173.142z"/>
			<circle cx="157.667" cy="366.934" r="17.067"/>
			<path d="M431.502,19.967c-20.633-13.112-44.589-20.04-69.035-19.967c-54.141,0.246-102.338,34.356-120.576,85.333H63.8     c-23.564,0-42.667,19.103-42.667,42.667v341.333c0,23.564,19.102,42.667,42.667,42.667h187.733     c23.564,0,42.667-19.102,42.667-42.667V236.033c59.665,37.915,138.769,20.283,176.684-39.382S491.167,57.882,431.502,19.967z      M157.667,119.467c32.99,0,59.733,26.744,59.733,59.733s-26.744,59.733-59.733,59.733s-59.733-26.744-59.733-59.733     S124.677,119.467,157.667,119.467z M157.667,469.334c-56.554,0-102.4-45.846-102.4-102.4s45.846-102.4,102.4-102.4     s102.4,45.846,102.4,102.4S214.221,469.334,157.667,469.334z M429.453,117.505c-2.657,6.368-8.887,10.51-15.787,10.496H396.6     v68.267c0,9.426-7.641,17.067-17.067,17.067H345.4c-9.426,0-17.067-7.641-17.067-17.067v-68.267h-17.067     c-9.426-0.04-17.034-7.713-16.995-17.138c0.019-4.484,1.802-8.78,4.963-11.96l51.2-51.2c6.657-6.617,17.407-6.617,24.064,0     l51.2,51.2C430.6,103.771,432.083,111.115,429.453,117.505z"/>
			<path d="M157.667,281.601c-47.128,0-85.333,38.205-85.333,85.333s38.205,85.333,85.333,85.333S243,414.062,243,366.934     S204.795,281.601,157.667,281.601z M157.667,401.067c-18.851,0-34.133-15.282-34.133-34.133s15.282-34.133,34.133-34.133     s34.133,15.282,34.133,34.133S176.518,401.067,157.667,401.067z"/>
			<path d="M311.267,110.934h17.067c9.426,0,17.067,7.641,17.067,17.067v68.267h34.133v-68.267c0-9.426,7.641-17.067,17.067-17.067     h17.067l-51.2-51.2L311.267,110.934z"/>
		</g>
	</g>
</g>
<g>
</g>
<g>
</g>
<g>
</g>
<g>
</g>
<g>
</g>
<g>
</g>
<g>
</g>
<g>
</g>
<g>
</g>
<g>
</g>
<g>
</g>
<g>
</g>
<g>
</g>
<g>
</g>
<g>
</g>
</svg>
