<?xml version="1.0" encoding="iso-8859-1"?>
<!-- Generator: Adobe Illustrator 19.0.0, SVG Export Plug-In . SVG Version: 6.00 Build 0)  -->
<svg xmlns="http://www.w3.org/2000/svg" xmlns:xlink="http://www.w3.org/1999/xlink" version="1.1" id="Layer_1" x="0px" y="0px" viewBox="0 0 512.001 512.001" style="enable-background:new 0 0 512.001 512.001;" xml:space="preserve">
<g>
	<g>
		<g>
			<path d="M157.667,221.867c23.564,0,42.667-19.103,42.667-42.667s-19.103-42.667-42.667-42.667S115,155.636,115,179.201     S134.103,221.867,157.667,221.867z M151.608,173.142c2.454-2.421,6.124-3.128,9.301-1.792c1.034,0.432,1.987,1.038,2.816,1.792     c1.559,1.635,2.443,3.799,2.475,6.059c0.013,2.268-0.877,4.448-2.475,6.059c-3.319,3.346-8.722,3.368-12.068,0.049     c-0.017-0.016-0.033-0.033-0.049-0.049c-0.754-0.829-1.36-1.782-1.792-2.816c-0.437-1.026-0.669-2.128-0.683-3.243     C149.165,176.941,150.049,174.777,151.608,173.142z"/>
			<circle cx="157.667" cy="366.934" r="17.067"/>
			<rect x="319.8" y="93.867" width="17.067" height="68.267"/>
			<path d="M431.502,19.967c-20.633-13.112-44.589-20.04-69.035-19.967c-54.15,0.221-102.359,34.34-120.576,85.333H63.8     c-23.564,0-42.667,19.103-42.667,42.667v341.333c0,23.564,19.102,42.667,42.667,42.667h187.733     c23.564,0,42.667-19.102,42.667-42.667V236.033c59.665,37.915,138.769,20.283,176.684-39.382S491.167,57.882,431.502,19.967z      M157.667,119.467c32.99,0,59.733,26.744,59.733,59.733s-26.744,59.733-59.733,59.733s-59.733-26.744-59.733-59.733     S124.677,119.467,157.667,119.467z M157.667,469.334c-56.554,0-102.4-45.846-102.4-102.4s45.846-102.4,102.4-102.4     s102.4,45.846,102.4,102.4S214.221,469.334,157.667,469.334z M353.933,162.134c0,9.426-7.641,17.067-17.067,17.067H319.8     c-9.426,0-17.067-7.641-17.067-17.067V93.867c0-9.426,7.641-17.067,17.067-17.067h17.067c9.426,0,17.067,7.641,17.067,17.067     V162.134z M422.2,162.134c0,9.426-7.641,17.067-17.067,17.067h-17.067c-9.426,0-17.067-7.641-17.067-17.067V93.867     c0-9.426,7.641-17.067,17.067-17.067h17.067c9.426,0,17.067,7.641,17.067,17.067V162.134z"/>
			<path d="M157.667,281.601c-47.128,0-85.333,38.205-85.333,85.333s38.205,85.333,85.333,85.333S243,414.062,243,366.934     S204.795,281.601,157.667,281.601z M157.667,401.067c-18.851,0-34.133-15.282-34.133-34.133s15.282-34.133,34.133-34.133     s34.133,15.282,34.133,34.133S176.518,401.067,157.667,401.067z"/>
			<rect x="388.067" y="93.867" width="17.067" height="68.267"/>
		</g>
	</g>
</g>
<g>
</g>
<g>
</g>
<g>
</g>
<g>
</g>
<g>
</g>
<g>
</g>
<g>
</g>
<g>
</g>
<g>
</g>
<g>
</g>
<g>
</g>
<g>
</g>
<g>
</g>
<g>
</g>
<g>
</g>
</svg>
