<?xml version="1.0" encoding="iso-8859-1"?>
<!-- Generator: Adobe Illustrator 19.0.0, SVG Export Plug-In . SVG Version: 6.00 Build 0)  -->
<svg xmlns="http://www.w3.org/2000/svg" xmlns:xlink="http://www.w3.org/1999/xlink" version="1.1" id="Layer_1" x="0px" y="0px" viewBox="0 0 512.001 512.001" style="enable-background:new 0 0 512.001 512.001;" xml:space="preserve">
<g>
	<g>
		<g>
			<path d="M157.667,281.601c-47.128,0-85.333,38.205-85.333,85.333s38.205,85.333,85.333,85.333S243,414.062,243,366.934     S204.795,281.601,157.667,281.601z M157.667,401.067c-18.851,0-34.133-15.282-34.133-34.133s15.282-34.133,34.133-34.133     s34.133,15.282,34.133,34.133S176.518,401.067,157.667,401.067z"/>
			<path d="M157.667,221.867c23.564,0,42.667-19.103,42.667-42.667s-19.103-42.667-42.667-42.667S115,155.636,115,179.201     S134.103,221.867,157.667,221.867z M150.481,174.611c1.516-2.369,4.165-3.943,7.186-3.943c4.713,0,8.533,3.82,8.533,8.533     c0.029,1.119-0.205,2.23-0.683,3.243c-0.216,0.517-0.476,1.014-0.775,1.485c-0.3,0.471-0.64,0.917-1.017,1.331     c-3.319,3.346-8.722,3.368-12.068,0.049c-0.017-0.016-0.033-0.033-0.049-0.049c-0.377-0.415-0.717-0.86-1.017-1.331     c-0.3-0.471-0.559-0.968-0.775-1.485c-0.437-1.026-0.669-2.128-0.683-3.243C149.156,177.565,149.631,175.982,150.481,174.611z"/>
			<polygon points="353.933,158.038 386.872,124.758 353.933,91.478    "/>
			<path d="M431.502,19.967c-20.633-13.112-44.589-20.04-69.035-19.967c-54.15,0.221-102.359,34.34-120.576,85.333H63.8     c-23.564,0-42.667,19.103-42.667,42.667v341.333c0,23.564,19.102,42.667,42.667,42.667h187.733     c23.564,0,42.667-19.102,42.667-42.667V236.033c59.665,37.915,138.769,20.283,176.684-39.382S491.167,57.882,431.502,19.967z      M157.667,119.467c32.99,0,59.733,26.744,59.733,59.733s-26.744,59.733-59.733,59.733s-59.733-26.744-59.733-59.733     S124.677,119.467,157.667,119.467z M157.667,469.334c-56.554,0-102.4-45.846-102.4-102.4s45.846-102.4,102.4-102.4     s102.4,45.846,102.4,102.4S214.221,469.334,157.667,469.334z M400.952,134.827l-39.765,40.107     c-5.454,5.608-14.422,5.734-20.031,0.279c-2.769-2.693-4.319-6.401-4.289-10.263V84.566c0.008-7.87,6.395-14.244,14.265-14.236     c3.771,0.004,7.386,1.502,10.055,4.167l39.851,40.277c2.662,2.636,4.14,6.239,4.096,9.984     C405.139,128.538,403.633,132.163,400.952,134.827z"/>
			<circle cx="157.667" cy="366.934" r="17.067"/>
		</g>
	</g>
</g>
<g>
</g>
<g>
</g>
<g>
</g>
<g>
</g>
<g>
</g>
<g>
</g>
<g>
</g>
<g>
</g>
<g>
</g>
<g>
</g>
<g>
</g>
<g>
</g>
<g>
</g>
<g>
</g>
<g>
</g>
</svg>
