<?xml version="1.0" encoding="iso-8859-1"?>
<!-- Generator: Adobe Illustrator 19.0.0, SVG Export Plug-In . SVG Version: 6.00 Build 0)  -->
<svg xmlns="http://www.w3.org/2000/svg" xmlns:xlink="http://www.w3.org/1999/xlink" version="1.1" id="Layer_1" x="0px" y="0px" viewBox="0 0 512.199 512.199" style="enable-background:new 0 0 512.199 512.199;" xml:space="preserve">
<g>
	<g>
		<path d="M307.3,111.132H204.9c-4.713,0-8.533,3.82-8.533,8.533v51.2c0,4.713,3.82,8.533,8.533,8.533h102.4    c4.713,0,8.533-3.82,8.533-8.533v-51.2C315.833,114.953,312.013,111.132,307.3,111.132z M264.633,145.266v8.533    c0,4.713-3.82,8.533-8.533,8.533s-8.533-3.821-8.533-8.533v-8.533c-4.713,0-8.533-3.82-8.533-8.533s3.82-8.533,8.533-8.533h17.067    c4.713,0,8.533,3.82,8.533,8.533S269.346,145.266,264.633,145.266z"/>
	</g>
</g>
<g>
	<g>
		<path d="M436.153,297.756l-102.4-68.267l1.28-0.853c55.577-43.688,65.215-124.158,21.527-179.735S232.402-16.313,176.825,27.375    s-65.215,124.158-21.527,179.735c6.294,8.006,13.52,15.233,21.527,21.527l1.195,0.939l-102.4,68.267    c-4.606,3.237-7.32,8.536-7.253,14.165v12.459c0,9.426,7.641,17.067,17.067,17.067v153.6c0,9.426,7.641,17.067,17.067,17.067    h17.067c9.426,0,17.067-7.641,17.067-17.067v-102.4h59.733v102.4c0,9.426,7.641,17.067,17.067,17.067H409.7    c9.426,0,17.067-7.641,17.067-17.067v-153.6c9.426,0,17.067-7.641,17.067-17.067v-12.459    C443.832,306.268,440.947,300.913,436.153,297.756z M179.3,119.666c0-14.138,11.461-25.6,25.6-25.6h8.533v-8.533    c-0.012-23.564,19.081-42.676,42.645-42.688c10.411-0.005,20.464,3.796,28.267,10.688c3.249,3.414,3.116,8.815-0.298,12.064    c-2.977,2.833-7.55,3.143-10.881,0.736c-10.538-9.426-26.722-8.524-36.148,2.014c-4.226,4.724-6.548,10.848-6.519,17.186v8.533    h76.8c14.138,0,25.6,11.461,25.6,25.6v51.2c0,14.138-11.461,25.6-25.6,25.6H204.9c-14.138,0-25.6-11.461-25.6-25.6V119.666z     M134.159,339.058c-0.829,0.754-1.782,1.36-2.816,1.792c-3.178,1.336-6.847,0.629-9.301-1.792    c-0.752-0.831-1.358-1.783-1.792-2.816c-0.437-1.026-0.669-2.128-0.683-3.243c0-4.713,3.82-8.533,8.533-8.533    c4.713,0,8.533,3.821,8.533,8.533C136.646,335.267,135.756,337.447,134.159,339.058z M367.033,341.532H153.7    c-4.713,0-8.533-3.821-8.533-8.533c0-4.713,3.821-8.533,8.533-8.533h213.333c4.713,0,8.533,3.821,8.533,8.533    C375.567,337.712,371.746,341.532,367.033,341.532z"/>
	</g>
</g>
<g>
</g>
<g>
</g>
<g>
</g>
<g>
</g>
<g>
</g>
<g>
</g>
<g>
</g>
<g>
</g>
<g>
</g>
<g>
</g>
<g>
</g>
<g>
</g>
<g>
</g>
<g>
</g>
<g>
</g>
</svg>
