<?xml version="1.0" encoding="iso-8859-1"?>
<!-- Generator: Adobe Illustrator 19.0.0, SVG Export Plug-In . SVG Version: 6.00 Build 0)  -->
<svg xmlns="http://www.w3.org/2000/svg" xmlns:xlink="http://www.w3.org/1999/xlink" version="1.1" id="Layer_1" x="0px" y="0px" viewBox="0 0 512.199 512.199" style="enable-background:new 0 0 512.199 512.199;" xml:space="preserve">
<g>
	<g>
		<path d="M436.153,297.756l-102.4-68.267l1.28-0.853c55.577-43.688,65.215-124.158,21.527-179.735S232.402-16.313,176.825,27.375    s-65.215,124.158-21.527,179.735c6.294,8.006,13.52,15.233,21.527,21.527l1.195,0.939l-102.4,68.267    c-4.606,3.237-7.32,8.536-7.253,14.165v12.459c0,9.426,7.641,17.067,17.067,17.067v153.6c0,9.426,7.641,17.067,17.067,17.067    h17.067c9.426,0,17.067-7.641,17.067-17.067v-102.4h59.733v102.4c0,9.426,7.641,17.067,17.067,17.067H409.7    c9.426,0,17.067-7.641,17.067-17.067v-153.6c9.426,0,17.067-7.641,17.067-17.067v-12.459    C443.832,306.268,440.947,300.913,436.153,297.756z M179.3,119.666c0-14.138,11.461-25.6,25.6-25.6h8.533v-8.533    c0-23.564,19.102-42.667,42.667-42.667s42.667,19.102,42.667,42.667v8.533h8.533c14.138,0,25.6,11.461,25.6,25.6v51.2    c0,14.138-11.461,25.6-25.6,25.6H204.9c-14.138,0-25.6-11.461-25.6-25.6V119.666z M135.951,336.242    c-0.435,1.033-1.041,1.985-1.792,2.816c-2.454,2.421-6.124,3.128-9.301,1.792c-1.034-0.432-1.987-1.038-2.816-1.792    c-1.597-1.61-2.488-3.79-2.475-6.059c0.031-2.259,0.915-4.423,2.475-6.059l1.28-1.024c0.475-0.325,0.991-0.583,1.536-0.768    c0.474-0.304,0.992-0.534,1.536-0.683c2.811-0.588,5.73,0.278,7.765,2.304c1.6,1.678,2.487,3.911,2.475,6.229    C136.662,334.118,136.428,335.229,135.951,336.242z M367.033,341.532H153.7c-4.713,0-8.533-3.821-8.533-8.533    c0-4.713,3.821-8.533,8.533-8.533h213.333c4.713,0,8.533,3.821,8.533,8.533C375.567,337.712,371.746,341.532,367.033,341.532z"/>
	</g>
</g>
<g>
	<g>
		<path d="M256.1,59.932c-14.138,0-25.6,11.461-25.6,25.6v8.533h51.2v-3.499v-5.035C281.7,71.394,270.239,59.932,256.1,59.932z"/>
	</g>
</g>
<g>
	<g>
		<path d="M307.3,111.132H204.9c-4.713,0-8.533,3.82-8.533,8.533v51.2c0,4.713,3.82,8.533,8.533,8.533h102.4    c4.713,0,8.533-3.82,8.533-8.533v-51.2C315.833,114.953,312.013,111.132,307.3,111.132z M264.633,145.266v8.533    c0,4.713-3.82,8.533-8.533,8.533s-8.533-3.821-8.533-8.533v-8.533c-4.713,0-8.533-3.82-8.533-8.533s3.82-8.533,8.533-8.533h17.067    c4.713,0,8.533,3.82,8.533,8.533S269.346,145.266,264.633,145.266z"/>
	</g>
</g>
<g>
</g>
<g>
</g>
<g>
</g>
<g>
</g>
<g>
</g>
<g>
</g>
<g>
</g>
<g>
</g>
<g>
</g>
<g>
</g>
<g>
</g>
<g>
</g>
<g>
</g>
<g>
</g>
<g>
</g>
</svg>
