<?xml version="1.0" encoding="iso-8859-1"?>
<!-- Generator: Adobe Illustrator 19.0.0, SVG Export Plug-In . SVG Version: 6.00 Build 0)  -->
<svg xmlns="http://www.w3.org/2000/svg" xmlns:xlink="http://www.w3.org/1999/xlink" version="1.1" id="Layer_1" x="0px" y="0px" viewBox="0 0 512.199 512.199" style="enable-background:new 0 0 512.199 512.199;" xml:space="preserve">
<g>
	<g>
		<path d="M272.668,125.03c-0.684-3.227-2.29-6.187-4.621-8.521c-3.108-3.31-7.408-5.245-11.947-5.376    c-1.135-0.106-2.278-0.106-3.413,0c-9.426,1.885-15.538,11.054-13.653,20.48s11.054,15.538,20.48,13.653    C268.734,143.31,274.624,134.25,272.668,125.03z"/>
	</g>
</g>
<g>
	<g>
		<path d="M323.774,126.924c-0.753-2.015-2.342-3.604-4.357-4.357c-12.739-4.546-19.381-18.558-14.836-31.297    c0.272-0.761,0.581-1.509,0.926-2.239c1.679-3.74,0.008-8.134-3.732-9.813c-1.934-0.868-4.147-0.868-6.081,0    c-12.228,5.782-26.827,0.557-32.61-11.67c-0.346-0.731-0.655-1.478-0.926-2.239c-1.435-3.841-5.711-5.792-9.552-4.357    c-2.015,0.753-3.604,2.342-4.357,4.357c-4.546,12.739-18.558,19.381-31.297,14.836c-0.761-0.272-1.509-0.581-2.239-0.926    c-3.79-1.564-8.131,0.241-9.694,4.031c-0.705,1.708-0.747,3.618-0.119,5.355l2.389,5.035c4.783,10.146,0.436,22.248-9.71,27.031    c-2.311,1.09-4.807,1.733-7.357,1.897c-1.525,1.477-2.387,3.509-2.389,5.632c-0.173,2.463,0.589,4.901,2.133,6.827    c5.954-0.347,11.718,2.155,15.531,6.741c4.988,5.666,6.097,13.768,2.816,20.565l-3.499,7.339    c-1.647,3.755,0.062,8.134,3.817,9.781c1.942,0.852,4.155,0.833,6.082-0.053c12.228-5.782,26.827-0.557,32.61,11.67    c0.346,0.731,0.655,1.478,0.926,2.239c1.772,2.145,4.479,3.292,7.253,3.072c2.792,0.186,5.456-1.195,6.912-3.584    c2.454-6.104,7.293-10.943,13.397-13.397c6.4-2.66,13.628-2.474,19.883,0.512c3.728,1.707,8.134,0.068,9.84-3.66    c0.907-1.982,0.898-4.264-0.027-6.238c-5.782-12.228-0.557-26.827,11.67-32.61c0.731-0.346,1.478-0.655,2.239-0.926    C323.258,135.042,325.209,130.765,323.774,126.924z M262.671,161.735c-2.167,0.405-4.367,0.605-6.571,0.597    c-18.851,0.023-34.152-15.241-34.174-34.092c-0.003-2.219,0.211-4.434,0.638-6.612c2.68-13.582,13.298-24.2,26.88-26.88    c18.498-3.652,36.454,8.382,40.107,26.88C293.203,140.126,281.169,158.082,262.671,161.735z"/>
	</g>
</g>
<g>
	<g>
		<path d="M436.153,297.756l-102.4-68.267l1.28-0.853c55.577-43.688,65.215-124.158,21.527-179.735S232.402-16.313,176.825,27.375    s-65.215,124.158-21.527,179.735c6.294,8.006,13.52,15.233,21.527,21.527l1.195,0.939l-102.4,68.267    c-4.606,3.237-7.32,8.536-7.253,14.165v12.459c0,9.426,7.641,17.067,17.067,17.067v153.6c0,9.426,7.641,17.067,17.067,17.067    h17.067c9.426,0,17.067-7.641,17.067-17.067v-102.4h59.733v102.4c0,9.426,7.641,17.067,17.067,17.067H409.7    c9.426,0,17.067-7.641,17.067-17.067v-153.6c9.426,0,17.067-7.641,17.067-17.067v-12.459    C443.832,306.268,440.947,300.913,436.153,297.756z M170.767,127.687c-0.096-9.429,5.543-17.971,14.251-21.589    c1.171-0.437,2.423-0.612,3.669-0.512c1.137,0.072,2.232-0.444,2.901-1.365c0.582-0.972,0.582-2.185,0-3.157l-2.389-5.12    c-5.828-12.206-0.657-26.825,11.549-32.653c6.714-3.206,14.521-3.185,21.219,0.055c3.706,1.753,8.132,0.17,9.886-3.536    c0.1-0.211,0.189-0.426,0.269-0.645c4.586-12.725,18.619-19.322,31.344-14.736c6.861,2.473,12.263,7.875,14.736,14.736    c1.397,3.855,5.654,5.847,9.509,4.45c0.219-0.079,0.435-0.169,0.645-0.269c12.234-5.769,26.828-0.529,32.597,11.705    c3.12,6.615,3.12,14.278,0,20.893c-1.753,3.706-0.17,8.132,3.536,9.886c0.211,0.1,0.426,0.189,0.645,0.269    c12.725,4.586,19.322,18.619,14.736,31.344c-2.473,6.861-7.875,12.263-14.736,14.736c-3.855,1.397-5.847,5.654-4.45,9.509    c0.079,0.219,0.169,0.435,0.269,0.645c5.769,12.234,0.529,26.828-11.705,32.597c-6.615,3.12-14.278,3.12-20.893,0    c-3.706-1.753-8.132-0.17-9.886,3.536c-0.1,0.211-0.189,0.426-0.269,0.645c-3.839,8.778-12.52,14.443-22.101,14.421h-0.853    c-9.612,0.298-18.515-5.037-22.784-13.653c-0.65-2.278-2.275-4.152-4.437-5.12c-1.899-0.858-4.075-0.858-5.973,0    c-12.232,5.773-26.828,0.538-32.601-11.694c-3.095-6.558-3.125-14.15-0.081-20.733l3.499-7.339    c0.465-0.979,0.047-2.15-0.932-2.614c-0.428-0.203-0.915-0.244-1.372-0.116c-2.03,0.628-4.221,0.475-6.144-0.427    C175.524,147.164,170.184,137.719,170.767,127.687z M134.159,339.058c-3.319,3.346-8.722,3.368-12.068,0.05    c-1.628-1.614-2.537-3.816-2.524-6.108c0.031-2.259,0.915-4.423,2.475-6.059c0.829-0.754,1.782-1.36,2.816-1.792    c2.078-0.853,4.408-0.853,6.485,0c1.034,0.432,1.987,1.038,2.816,1.792c1.559,1.635,2.443,3.799,2.475,6.059    C136.646,335.267,135.756,337.447,134.159,339.058z M367.033,341.532H153.7c-4.713,0-8.533-3.821-8.533-8.533    c0-4.713,3.821-8.533,8.533-8.533h213.333c4.713,0,8.533,3.821,8.533,8.533C375.567,337.712,371.746,341.532,367.033,341.532z"/>
	</g>
</g>
<g>
</g>
<g>
</g>
<g>
</g>
<g>
</g>
<g>
</g>
<g>
</g>
<g>
</g>
<g>
</g>
<g>
</g>
<g>
</g>
<g>
</g>
<g>
</g>
<g>
</g>
<g>
</g>
<g>
</g>
</svg>
