<?xml version="1.0" encoding="iso-8859-1"?>
<!-- Generator: Adobe Illustrator 19.0.0, SVG Export Plug-In . SVG Version: 6.00 Build 0)  -->
<svg xmlns="http://www.w3.org/2000/svg" xmlns:xlink="http://www.w3.org/1999/xlink" version="1.1" id="Layer_1" x="0px" y="0px" viewBox="0 0 478.103 478.103" style="enable-background:new 0 0 478.103 478.103;" xml:space="preserve">
<g>
	<g>
		<path d="M243.574,170.903h-9.045c-2.215,0-4.011,1.796-4.011,4.011v9.045c0,2.215,1.796,4.011,4.011,4.011h9.045    c2.215,0,4.011-1.796,4.011-4.011v-9.045C247.585,172.698,245.789,170.903,243.574,170.903z"/>
	</g>
</g>
<g>
	<g>
		<polygon points="222.155,42.903 228.299,119.703 249.889,119.703 254.753,59.287 256.033,42.647   "/>
	</g>
</g>
<g>
	<g>
		<path d="M271.513,4.723c-61.031-17.975-125.079,16.928-143.054,77.959c-6.258,21.247-6.258,43.847,0,65.094l-0.341,0.341    c11.231,37.75,40.917,67.178,78.763,78.08c5.264,1.482,10.624,2.594,16.043,3.328c15.903,2.207,32.091,1.074,47.531-3.328    l3.328-1.109c2.048-0.683,4.181-1.28,6.229-2.048c18.919-7.256,35.602-19.349,48.384-35.072c2.105-2.617,4.096-5.291,5.973-8.021    c5.004-7.373,9.128-15.306,12.288-23.637c1.081-2.788,2.02-5.632,2.816-8.533C367.448,86.746,332.544,22.699,271.513,4.723z     M264.651,183.959c0,11.641-9.437,21.077-21.077,21.077h-9.045c-11.641,0-21.077-9.437-21.077-21.077v-9.045    c0-11.641,9.437-21.077,21.077-21.077h9.045c11.641,0,21.077,9.437,21.077,21.077V183.959z M273.185,42.903l-6.4,79.957    c-0.962,8.044-7.857,14.054-15.957,13.909h-23.552c-8.247,0.124-15.2-6.122-15.957-14.336l-6.4-79.531    c-0.454-4.349,1.011-8.68,4.011-11.861c3.111-3.334,7.472-5.22,12.032-5.205h36.181c4.56-0.015,8.921,1.871,12.032,5.205    C272.174,34.223,273.638,38.553,273.185,42.903z"/>
	</g>
</g>
<g>
	<g>
		<path d="M443.851,384.236c-4.713,0-8.533,3.82-8.533,8.533v17.067c0,4.713-3.82,8.533-8.533,8.533h-25.6V179.436    c0.028-6.769-2.68-13.262-7.509-18.005c-7.556-7.574-19.026-9.65-28.757-5.205c-0.427,1.365-0.939,2.645-1.451,3.925l-1.195,3.243    c-0.939,2.389-1.963,4.693-2.987,6.997l-0.768,1.707c-1.365,2.816-2.816,5.632-4.352,8.533l-1.451,2.389    c-0.939,1.536-1.792,3.072-2.731,4.523v60.16c0,4.713-3.82,8.533-8.533,8.533s-8.533-3.82-8.533-8.533V208.62l-1.451,1.365    c-2.674,2.617-5.518,5.12-8.533,7.509l-3.243,2.645c-2.731,2.105-5.575,4.124-8.533,6.059l-2.901,1.963    c-3.867,2.393-7.854,4.587-11.947,6.571l-2.389,1.024c-3.413,1.536-6.884,2.958-10.411,4.267l-1.877,0.768v41.045    c0,4.713-3.821,8.533-8.533,8.533c-4.713,0-8.533-3.82-8.533-8.533v-36.608h-1.792c-2.958,0.569-5.945,0.996-8.96,1.28h-3.157    c-3.84,0-7.765,0.597-11.691,0.597s-7.68,0-11.605-0.597h-2.731c-3.186-0.341-6.343-0.796-9.472-1.365h-1.792v36.693    c0,4.713-3.82,8.533-8.533,8.533s-8.533-3.82-8.533-8.533V240.62l-1.877-0.768c-3.47-1.252-6.884-2.645-10.24-4.181l-2.56-1.109    c-4.092-1.984-8.08-4.177-11.947-6.571l-2.987-1.963c-2.901-1.877-5.746-3.868-8.533-5.973l-3.328-2.645    c-2.844-2.332-5.689-4.807-8.533-7.424l-1.109-1.365v39.083c0,4.713-3.821,8.533-8.533,8.533c-4.713,0-8.533-3.82-8.533-8.533    v-60.245c-0.939-1.451-1.792-2.987-2.731-4.523l-1.451-2.389c-1.536-2.731-2.987-5.547-4.352-8.533l-0.768-1.792    c-1.024-2.304-2.048-4.608-2.987-6.997l-1.109-2.987c-0.512-1.365-1.024-2.731-1.536-4.096c-3.332-1.575-6.982-2.363-10.667-2.304    c-14.138,0-25.6,11.461-25.6,25.6v238.933H34.251c-4.713,0-8.533,3.82-8.533,8.533s3.82,8.533,8.533,8.533h42.667v17.067    c0,14.138,11.461,25.6,25.6,25.6s25.6-11.461,25.6-25.6V281.836c0-4.713,3.821-8.533,8.533-8.533c4.713,0,8.533,3.82,8.533,8.533    v170.667c0,14.138,11.461,25.6,25.6,25.6s25.6-11.461,25.6-25.6V315.969c0-4.713,3.82-8.533,8.533-8.533s8.533,3.821,8.533,8.533    v136.533c0,14.138,11.461,25.6,25.6,25.6s25.6-11.461,25.6-25.6V315.969c0-4.713,3.82-8.533,8.533-8.533s8.533,3.821,8.533,8.533    v136.533c0,14.138,11.462,25.6,25.6,25.6c14.138,0,25.6-11.461,25.6-25.6V281.836c0-4.713,3.82-8.533,8.533-8.533    s8.533,3.82,8.533,8.533v170.667c0,14.138,11.462,25.6,25.6,25.6c14.138,0,25.6-11.461,25.6-25.6v-17.067h25.6    c14.138,0,25.6-11.461,25.6-25.6v-17.067C452.385,388.056,448.564,384.236,443.851,384.236z"/>
	</g>
</g>
<g>
</g>
<g>
</g>
<g>
</g>
<g>
</g>
<g>
</g>
<g>
</g>
<g>
</g>
<g>
</g>
<g>
</g>
<g>
</g>
<g>
</g>
<g>
</g>
<g>
</g>
<g>
</g>
<g>
</g>
</svg>
