<?xml version="1.0" encoding="iso-8859-1"?>
<!-- Generator: Adobe Illustrator 19.0.0, SVG Export Plug-In . SVG Version: 6.00 Build 0)  -->
<svg xmlns="http://www.w3.org/2000/svg" xmlns:xlink="http://www.w3.org/1999/xlink" version="1.1" id="Layer_1" x="0px" y="0px" viewBox="0 0 478.103 478.103" style="enable-background:new 0 0 478.103 478.103;" xml:space="preserve">
<g>
	<g>
		<path d="M271.513,4.723c-61.031-17.975-125.079,16.928-143.054,77.959c-6.258,21.247-6.258,43.847,0,65.094l-0.341,0.341    c11.231,37.75,40.917,67.178,78.763,78.08c5.263,1.482,10.624,2.594,16.043,3.328c15.903,2.207,32.091,1.074,47.531-3.328    l3.328-1.109c2.048-0.683,4.181-1.28,6.229-2.048c18.919-7.256,35.602-19.349,48.384-35.072c2.105-2.617,4.096-5.291,5.973-8.021    c5.004-7.373,9.128-15.306,12.288-23.637c1.081-2.788,2.02-5.632,2.816-8.533C367.448,86.746,332.544,22.699,271.513,4.723z     M324.641,121.921h-11.349l9.643,14.507c2.833,3.766,2.076,9.116-1.69,11.949c-3.766,2.833-9.116,2.076-11.949-1.69    c-0.19-0.252-0.365-0.515-0.526-0.787l-15.957-23.893h-33.536l28.501,29.269c3.299,3.37,3.242,8.776-0.128,12.075    c-3.37,3.299-8.776,3.242-12.075-0.128l-27.989-28.928v35.755l21.845,14.933c3.921,2.615,4.979,7.914,2.364,11.834    s-7.914,4.979-11.834,2.364c-0.058-0.039-0.115-0.078-0.172-0.118l-12.288-8.533v10.24c0,4.713-3.82,8.533-8.533,8.533    s-8.533-3.82-8.533-8.533V190.7l-12.288,8.533c-3.921,2.615-9.219,1.556-11.834-2.364c-2.57-3.853-1.597-9.052,2.191-11.716    l22.016-15.104v-35.755l-27.989,28.757c-3.299,3.37-8.705,3.427-12.075,0.128c-3.37-3.299-3.427-8.705-0.128-12.075l28.501-29.269    h-33.536l-15.957,23.893c-2.398,4.057-7.631,5.401-11.688,3.003c-4.057-2.398-5.401-7.631-3.003-11.688    c0.161-0.272,0.336-0.534,0.526-0.787l9.643-14.507h-11.093c-4.713,0-8.533-3.82-8.533-8.533s3.82-8.533,8.533-8.533v0.085h8.533    l-6.827-10.24c-2.833-3.766-2.076-9.116,1.69-11.949s9.116-2.076,11.949,1.69c0.19,0.252,0.365,0.515,0.526,0.787l13.141,19.627    h36.352l-28.501-29.269c-3.299-3.37-3.242-8.776,0.128-12.075c3.37-3.299,8.776-3.242,12.075,0.128l27.733,28.843V56.556    l-21.845-14.933c-4.089-2.343-5.505-7.557-3.162-11.646s7.557-5.505,11.646-3.162c0.376,0.215,0.734,0.459,1.073,0.728    l12.288,8.533v-10.24c0-4.713,3.82-8.533,8.533-8.533s8.533,3.82,8.533,8.533v10.069l12.288-8.533    c3.856-2.71,9.178-1.782,11.888,2.074s1.782,9.178-2.074,11.888c-0.057,0.04-0.114,0.079-0.172,0.118l-21.931,15.104v35.755    l27.989-28.757c3.299-3.37,8.705-3.427,12.075-0.128c3.37,3.299,3.427,8.705,0.128,12.075l-28.501,29.269h36.352l13.141-19.627    c2.833-3.766,8.183-4.523,11.949-1.69c3.474,2.613,4.429,7.42,2.216,11.162l-6.827,10.24h8.533c4.713,0,8.533,3.82,8.533,8.533    S329.353,121.921,324.641,121.921z"/>
	</g>
</g>
<g>
	<g>
		<path d="M443.851,384.236c-4.713,0-8.533,3.82-8.533,8.533v17.067c0,4.713-3.82,8.533-8.533,8.533h-25.6V179.436    c0.028-6.769-2.68-13.262-7.509-18.005c-7.556-7.574-19.026-9.65-28.757-5.205c-0.427,1.365-0.939,2.645-1.451,3.925l-1.195,3.243    c-0.939,2.389-1.963,4.693-2.987,6.997l-0.768,1.707c-1.365,2.816-2.816,5.632-4.352,8.533l-1.451,2.389    c-0.939,1.536-1.792,3.072-2.731,4.523v60.16c0,4.713-3.82,8.533-8.533,8.533s-8.533-3.82-8.533-8.533V208.62l-1.451,1.365    c-2.674,2.617-5.518,5.12-8.533,7.509l-3.243,2.645c-2.731,2.105-5.575,4.124-8.533,6.059l-2.901,1.963    c-3.867,2.393-7.854,4.587-11.947,6.571l-2.389,1.024c-3.413,1.536-6.884,2.958-10.411,4.267l-1.877,0.768v41.045    c0,4.713-3.821,8.533-8.533,8.533c-4.713,0-8.533-3.82-8.533-8.533v-36.608h-1.792c-2.958,0.569-5.945,0.996-8.96,1.28h-3.157    c-3.84,0-7.765,0.597-11.691,0.597s-7.68,0-11.605-0.597h-2.731c-3.186-0.341-6.343-0.796-9.472-1.365h-1.792v36.693    c0,4.713-3.82,8.533-8.533,8.533s-8.533-3.82-8.533-8.533V240.62l-1.877-0.768c-3.47-1.252-6.884-2.645-10.24-4.181l-2.56-1.109    c-4.092-1.984-8.08-4.177-11.947-6.571l-2.987-1.963c-2.901-1.877-5.746-3.868-8.533-5.973l-3.328-2.645    c-2.844-2.332-5.689-4.807-8.533-7.424l-1.109-1.365v39.083c0,4.713-3.821,8.533-8.533,8.533c-4.713,0-8.533-3.82-8.533-8.533    v-60.245c-0.939-1.451-1.792-2.987-2.731-4.523l-1.451-2.389c-1.536-2.731-2.987-5.547-4.352-8.533l-0.768-1.792    c-1.024-2.304-2.048-4.608-2.987-6.997l-1.109-2.987c-0.512-1.365-1.024-2.731-1.536-4.096c-3.332-1.575-6.982-2.363-10.667-2.304    c-14.138,0-25.6,11.461-25.6,25.6v238.933H34.251c-4.713,0-8.533,3.82-8.533,8.533s3.82,8.533,8.533,8.533h42.667v17.067    c0,14.138,11.461,25.6,25.6,25.6s25.6-11.461,25.6-25.6V281.836c0-4.713,3.821-8.533,8.533-8.533c4.713,0,8.533,3.82,8.533,8.533    v170.667c0,14.138,11.461,25.6,25.6,25.6s25.6-11.461,25.6-25.6V315.969c0-4.713,3.82-8.533,8.533-8.533s8.533,3.821,8.533,8.533    v136.533c0,14.138,11.461,25.6,25.6,25.6s25.6-11.461,25.6-25.6V315.969c0-4.713,3.82-8.533,8.533-8.533s8.533,3.821,8.533,8.533    v136.533c0,14.138,11.462,25.6,25.6,25.6c14.138,0,25.6-11.461,25.6-25.6V281.836c0-4.713,3.82-8.533,8.533-8.533    s8.533,3.82,8.533,8.533v170.667c0,14.138,11.462,25.6,25.6,25.6c14.138,0,25.6-11.461,25.6-25.6v-17.067h25.6    c14.138,0,25.6-11.461,25.6-25.6v-17.067C452.385,388.056,448.564,384.236,443.851,384.236z"/>
	</g>
</g>
<g>
</g>
<g>
</g>
<g>
</g>
<g>
</g>
<g>
</g>
<g>
</g>
<g>
</g>
<g>
</g>
<g>
</g>
<g>
</g>
<g>
</g>
<g>
</g>
<g>
</g>
<g>
</g>
<g>
</g>
</svg>
