<?xml version="1.0" encoding="iso-8859-1"?>
<!-- Generator: Adobe Illustrator 19.0.0, SVG Export Plug-In . SVG Version: 6.00 Build 0)  -->
<svg xmlns="http://www.w3.org/2000/svg" xmlns:xlink="http://www.w3.org/1999/xlink" version="1.1" id="Layer_1" x="0px" y="0px" viewBox="0 0 478.103 478.103" style="enable-background:new 0 0 478.103 478.103;" xml:space="preserve">
<g>
	<g>
		<path d="M271.051,114.583c-2.913-5.212-6.66-9.91-11.093-13.909c-12.352-12.259-19.555-28.773-20.139-46.165    c-1.427,1.792-2.738,3.673-3.925,5.632c-10.417,17.161-10.018,38.787,1.024,55.552c3.464,3.205,3.674,8.611,0.469,12.075    c-3.205,3.464-8.611,3.674-12.075,0.469c-8.63-5.072-15.394-12.793-19.285-22.016c-14.045,16.514-12.043,41.287,4.471,55.332    c7.022,5.972,15.922,9.282,25.139,9.35c21.632,0.047,39.206-17.451,39.253-39.082c0-0.057,0-0.114,0-0.171    C274.926,125.742,273.613,119.905,271.051,114.583z"/>
	</g>
</g>
<g>
	<g>
		<path d="M271.513,4.723c-61.031-17.975-125.079,16.928-143.054,77.959c-6.258,21.247-6.258,43.847,0,65.094l-0.341,0.341    c11.231,37.75,40.917,67.178,78.763,78.08c5.264,1.482,10.624,2.594,16.043,3.328c15.903,2.207,32.091,1.074,47.531-3.328    l3.328-1.109c2.048-0.683,4.181-1.28,6.229-2.048c18.919-7.256,35.602-19.349,48.384-35.072c2.105-2.617,4.096-5.291,5.973-8.021    c5.004-7.373,9.128-15.306,12.288-23.637c1.081-2.788,2.02-5.632,2.816-8.533C367.448,86.746,332.544,22.699,271.513,4.723z     M288.715,150.423c-10.282,29.356-42.416,44.818-71.772,34.536c-29.356-10.282-44.818-42.416-34.536-71.772    c4.364-12.458,12.965-22.988,24.302-29.751h-0.512c1.397-0.888,3.042-1.307,4.693-1.195c1.78-23.323,15.278-44.147,35.84-55.296    c4.123-2.284,9.316-0.793,11.6,3.329c1.126,2.032,1.374,4.435,0.688,6.655c-1.315,4.322-2.061,8.797-2.219,13.312v1.877    c-0.057,13.747,5.417,26.939,15.189,36.608c5.827,5.339,10.703,11.629,14.421,18.603    C292.852,120.823,293.68,136.319,288.715,150.423z"/>
	</g>
</g>
<g>
	<g>
		<path d="M443.851,384.236c-4.713,0-8.533,3.82-8.533,8.533v17.067c0,4.713-3.82,8.533-8.533,8.533h-25.6V179.436    c0.028-6.769-2.68-13.262-7.509-18.005c-7.556-7.574-19.026-9.65-28.757-5.205c-0.427,1.365-0.939,2.645-1.451,3.925l-1.195,3.243    c-0.939,2.389-1.963,4.693-2.987,6.997l-0.768,1.707c-1.365,2.816-2.816,5.632-4.352,8.533l-1.451,2.389    c-0.939,1.536-1.792,3.072-2.731,4.523v60.16c0,4.713-3.82,8.533-8.533,8.533s-8.533-3.82-8.533-8.533V208.62l-1.451,1.365    c-2.674,2.617-5.518,5.12-8.533,7.509l-3.243,2.645c-2.731,2.105-5.575,4.124-8.533,6.059l-2.901,1.963    c-3.867,2.393-7.854,4.587-11.947,6.571l-2.389,1.024c-3.413,1.536-6.884,2.958-10.411,4.267l-1.877,0.768v41.045    c0,4.713-3.821,8.533-8.533,8.533c-4.713,0-8.533-3.82-8.533-8.533v-36.608h-1.792c-2.958,0.569-5.945,0.996-8.96,1.28h-3.157    c-3.84,0-7.765,0.597-11.691,0.597s-7.68,0-11.605-0.597h-2.731c-3.186-0.341-6.343-0.796-9.472-1.365h-1.792v36.693    c0,4.713-3.82,8.533-8.533,8.533s-8.533-3.82-8.533-8.533V240.62l-1.877-0.768c-3.47-1.252-6.884-2.645-10.24-4.181l-2.56-1.109    c-4.092-1.984-8.08-4.177-11.947-6.571l-2.987-1.963c-2.901-1.877-5.746-3.868-8.533-5.973l-3.328-2.645    c-2.844-2.332-5.689-4.807-8.533-7.424l-1.109-1.365v39.083c0,4.713-3.821,8.533-8.533,8.533c-4.713,0-8.533-3.82-8.533-8.533    v-60.245c-0.939-1.451-1.792-2.987-2.731-4.523l-1.451-2.389c-1.536-2.731-2.987-5.547-4.352-8.533l-0.768-1.792    c-1.024-2.304-2.048-4.608-2.987-6.997l-1.109-2.987c-0.512-1.365-1.024-2.731-1.536-4.096c-3.332-1.575-6.982-2.363-10.667-2.304    c-14.138,0-25.6,11.461-25.6,25.6v238.933H34.251c-4.713,0-8.533,3.82-8.533,8.533s3.82,8.533,8.533,8.533h42.667v17.067    c0,14.138,11.461,25.6,25.6,25.6s25.6-11.461,25.6-25.6V281.836c0-4.713,3.821-8.533,8.533-8.533c4.713,0,8.533,3.82,8.533,8.533    v170.667c0,14.138,11.461,25.6,25.6,25.6s25.6-11.461,25.6-25.6V315.969c0-4.713,3.82-8.533,8.533-8.533s8.533,3.821,8.533,8.533    v136.533c0,14.138,11.461,25.6,25.6,25.6s25.6-11.461,25.6-25.6V315.969c0-4.713,3.82-8.533,8.533-8.533s8.533,3.821,8.533,8.533    v136.533c0,14.138,11.462,25.6,25.6,25.6c14.138,0,25.6-11.461,25.6-25.6V281.836c0-4.713,3.82-8.533,8.533-8.533    s8.533,3.82,8.533,8.533v170.667c0,14.138,11.462,25.6,25.6,25.6c14.138,0,25.6-11.461,25.6-25.6v-17.067h25.6    c14.138,0,25.6-11.461,25.6-25.6v-17.067C452.385,388.056,448.564,384.236,443.851,384.236z"/>
	</g>
</g>
<g>
</g>
<g>
</g>
<g>
</g>
<g>
</g>
<g>
</g>
<g>
</g>
<g>
</g>
<g>
</g>
<g>
</g>
<g>
</g>
<g>
</g>
<g>
</g>
<g>
</g>
<g>
</g>
<g>
</g>
</svg>
