<?xml version="1.0" encoding="iso-8859-1"?>
<!-- Generator: Adobe Illustrator 19.0.0, SVG Export Plug-In . SVG Version: 6.00 Build 0)  -->
<svg xmlns="http://www.w3.org/2000/svg" xmlns:xlink="http://www.w3.org/1999/xlink" version="1.1" id="Layer_1" x="0px" y="0px" viewBox="0 0 477.999 477.999" style="enable-background:new 0 0 477.999 477.999;" xml:space="preserve">
<g>
	<g>
		<path d="M68.333,443.866v25.6c0,4.713,3.82,8.533,8.533,8.533h324.267c4.713,0,8.533-3.82,8.533-8.533v-25.6H68.333z"/>
	</g>
</g>
<g>
	<g>
		<path d="M171.757,219.951c-4.109-2.622-8.069-5.471-11.861-8.533c-6.177-4.835-11.891-10.234-17.067-16.128    c-13.585,13.069-35.193,12.651-48.263-0.934c-13.069-13.585-12.651-35.193,0.934-48.263c4.987-4.798,11.315-7.966,18.144-9.085    v-1.621l-0.512-2.901c-0.93-4.256-1.642-8.557-2.133-12.885H76.866c-4.713,0-8.533,3.82-8.533,8.533v93.867h107.008    L171.757,219.951z"/>
	</g>
</g>
<g>
	<g>
		<circle cx="239" cy="111.066" r="25.6"/>
	</g>
</g>
<g>
	<g>
		<path d="M131.48,180.356c-2.479-3.804-4.758-7.734-6.827-11.776v-0.427c-2.026-4.136-3.82-8.38-5.376-12.715    c0-0.512-0.512-1.109-0.683-1.621c-9.024,0.497-16.096,7.943-16.128,16.981c0,9.426,7.641,17.067,17.067,17.067    c4.945-0.003,9.646-2.151,12.885-5.888L131.48,180.356z"/>
	</g>
</g>
<g>
	<g>
		<path d="M112.962,85.466h-10.496c-4.713,0-8.533,3.82-8.533,8.533v8.533H111v-0.512c0-0.939,0-1.877,0-2.816s0-4.011,0.683-5.973    s0-2.475,0.597-3.669C112.877,88.367,112.28,86.831,112.962,85.466z"/>
	</g>
</g>
<g>
	<g>
		<path d="M345.837,79.322C328.362,20.6,266.593-12.837,207.871,4.637c-35.909,10.686-63.999,38.775-74.685,74.685    c-2.28,7.671-3.711,15.569-4.267,23.552c0,2.674,0,5.376,0,8.107c0.004,23.605,7.537,46.592,21.504,65.621l-0.853,0.085    c6.057,8.085,13.175,15.318,21.163,21.504c3.307,2.604,6.754,5.025,10.325,7.253c49.228,30.363,113.522,17.808,147.712-28.843    C349.377,148.636,355.693,112.632,345.837,79.322z M294.202,165.253c-3.065,3.58-8.452,3.996-12.032,0.931    c-0.334-0.286-0.645-0.597-0.931-0.931l-18.688-18.688c-19.593,13.091-46.089,7.82-59.18-11.774    c-13.091-19.593-7.82-46.089,11.774-59.18c4.642-3.101,9.847-5.262,15.321-6.358V27.269c0-4.713,3.82-8.533,8.533-8.533    s8.533,3.821,8.533,8.533v41.984c23.084,4.734,37.959,27.285,33.225,50.369c-1.091,5.318-3.186,10.379-6.174,14.911l18.688,18.688    C296.851,156.286,297.268,161.673,294.202,165.253z"/>
	</g>
</g>
<g>
	<g>
		<path d="M401.133,119.599H367c-0.297,4.29-0.809,8.562-1.536,12.8l-0.512,2.987v1.621c18.603,3.049,31.213,20.601,28.164,39.204    s-20.601,31.213-39.204,28.164c-6.829-1.119-13.157-4.288-18.144-9.085c-5.176,5.894-10.889,11.294-17.067,16.128    c-3.789,3.067-7.749,5.916-11.861,8.533l-3.584,2.048h106.411v-93.867C409.666,123.42,405.846,119.599,401.133,119.599z"/>
	</g>
</g>
<g>
	<g>
		<path d="M68.333,239.066v187.733h341.333V239.066H68.333z M392.6,392.666c0,9.426-7.641,17.067-17.067,17.067H102.466    c-9.426,0-17.067-7.641-17.067-17.067V273.199c0-9.426,7.641-17.067,17.067-17.067h273.067c9.426,0,17.067,7.641,17.067,17.067    V392.666z"/>
	</g>
</g>
<g>
	<g>
		<path d="M374.936,85.466H364.44c0,1.365,0.427,2.731,0.683,4.096c0.256,1.365,0.427,2.389,0.597,3.669    c0,1.963,0.427,4.011,0.683,6.059c0.256,2.048,0,1.877,0,2.816v0.427h17.067v-8.533C383.469,89.286,379.648,85.466,374.936,85.466    z"/>
	</g>
</g>
<g>
	<g>
		<path d="M359.661,153.733c0,0.512-0.512,1.024-0.683,1.536c-1.581,4.365-3.404,8.638-5.461,12.8    c-2.091,4.102-4.398,8.089-6.912,11.947l-1.024,1.963c3.239,3.737,7.94,5.885,12.885,5.888c9.426,0.33,17.334-7.044,17.664-16.469    S369.087,154.062,359.661,153.733z"/>
	</g>
</g>
<g>
	<g>
		<path d="M102.466,273.199v119.467h273.067V273.199H102.466z M220.568,324.996c-0.978,3.744-2.472,7.334-4.437,10.667l-1.28,2.133    c-0.949,1.407-1.777,2.891-2.475,4.437c-2.063,7.028-0.94,14.608,3.072,20.736c2.316,4.079,0.906,9.262-3.157,11.605    c-4.079,2.316-9.262,0.906-11.605-3.157c-6.89-10.545-8.497-23.69-4.352-35.584c1.061-2.5,2.346-4.9,3.84-7.168l1.109-1.792    c1.174-1.97,2.065-4.096,2.645-6.315c0.889-3.413,0.889-6.997,0-10.411c-0.437-2.056-1.342-3.983-2.645-5.632    c-2.951-3.675-2.364-9.046,1.31-11.997c3.371-2.707,8.233-2.465,11.319,0.562c3.205,3.73,5.459,8.18,6.571,12.971    C222.122,312.257,222.151,318.777,220.568,324.996z M254.701,324.996c-0.978,3.744-2.472,7.334-4.437,10.667l-1.28,2.133    c-0.949,1.407-1.777,2.891-2.475,4.437c-2.063,7.028-0.94,14.608,3.072,20.736c2.316,4.079,0.906,9.262-3.157,11.605    c-4.079,2.316-9.262,0.906-11.605-3.157c-6.89-10.545-8.497-23.69-4.352-35.584c1.061-2.5,2.346-4.9,3.84-7.168l1.109-1.792    c1.174-1.97,2.065-4.096,2.645-6.315c0.889-3.413,0.889-6.997,0-10.411c-0.437-2.056-1.342-3.983-2.645-5.632    c-2.951-3.675-2.364-9.046,1.31-11.997c3.371-2.707,8.233-2.465,11.319,0.562c3.205,3.73,5.459,8.18,6.571,12.971    C256.255,312.257,256.285,318.777,254.701,324.996z M288.834,324.996c-0.978,3.744-2.472,7.334-4.437,10.667l-1.28,2.133    c-0.949,1.407-1.777,2.891-2.475,4.437c-2.063,7.028-0.94,14.608,3.072,20.736c2.316,4.079,0.906,9.262-3.157,11.605    c-4.079,2.316-9.262,0.906-11.605-3.157c-6.89-10.545-8.497-23.69-4.352-35.584c1.061-2.5,2.346-4.9,3.84-7.168l1.109-1.792    c1.174-1.97,2.065-4.096,2.645-6.315c0.889-3.413,0.889-6.997,0-10.411c-0.437-2.056-1.342-3.983-2.645-5.632    c-3.364-3.3-3.416-8.703-0.116-12.067c3.3-3.364,8.703-3.416,12.067-0.116c0.241,0.236,0.467,0.486,0.678,0.748    c3.205,3.73,5.459,8.18,6.571,12.971C290.389,312.257,290.418,318.777,288.834,324.996z"/>
	</g>
</g>
<g>
</g>
<g>
</g>
<g>
</g>
<g>
</g>
<g>
</g>
<g>
</g>
<g>
</g>
<g>
</g>
<g>
</g>
<g>
</g>
<g>
</g>
<g>
</g>
<g>
</g>
<g>
</g>
<g>
</g>
</svg>
