<?xml version="1.0" encoding="iso-8859-1"?>
<!-- Generator: Adobe Illustrator 19.0.0, SVG Export Plug-In . SVG Version: 6.00 Build 0)  -->
<svg xmlns="http://www.w3.org/2000/svg" xmlns:xlink="http://www.w3.org/1999/xlink" version="1.1" id="Layer_1" x="0px" y="0px" viewBox="0 0 477.999 477.999" style="enable-background:new 0 0 477.999 477.999;" xml:space="preserve">
<g>
	<g>
		<path d="M131.48,180.356c-2.511-3.829-4.818-7.789-6.912-11.861c-2.058-4.161-3.881-8.435-5.461-12.8    c0-0.512-0.512-1.024-0.683-1.536c-8.828,0.573-15.755,7.796-15.957,16.64c0,9.426,7.641,17.067,17.067,17.067    c4.945-0.003,9.646-2.151,12.885-5.888L131.48,180.356z"/>
	</g>
</g>
<g>
	<g>
		<polygon points="222.018,42.799 228.162,119.599 249.837,119.599 255.981,42.543   "/>
	</g>
</g>
<g>
	<g>
		<path d="M102.466,85.807c-4.713,0-8.533,3.82-8.533,8.533v8.533H111v-0.341c0-1.024,0-2.048,0-3.157c0-1.109,0-3.84,0.597-5.803    c0.597-1.963,0-2.389,0.597-3.584c0.597-1.195,0-2.816,0.683-4.181H102.466z"/>
	</g>
</g>
<g>
	<g>
		<path d="M359.661,153.733c0,0.512-0.427,1.024-0.683,1.536c-1.577,4.394-3.401,8.696-5.461,12.885    c-2.116,4.133-4.451,8.149-6.997,12.032l-0.939,1.792c3.239,3.737,7.94,5.885,12.885,5.888c9.426,0.33,17.334-7.044,17.664-16.469    S369.087,154.062,359.661,153.733z"/>
	</g>
</g>
<g>
	<g>
		<path d="M374.85,85.466H364.44c0,1.365,0.427,2.731,0.683,4.181c0.256,1.451,0.427,2.304,0.597,3.584    c0,1.963,0.427,3.84,0.597,5.803c0.171,1.963,0,2.048,0,3.157h17.067v-8.192C383.384,89.286,379.563,85.466,374.85,85.466z"/>
	</g>
</g>
<g>
	<g>
		<path d="M243.522,170.799h-9.045c-2.215,0-4.011,1.796-4.011,4.011v9.045c0,2.215,1.796,4.011,4.011,4.011h9.045    c2.215,0,4.011-1.796,4.011-4.011v-9.045C247.533,172.595,245.737,170.799,243.522,170.799z"/>
	</g>
</g>
<g>
	<g>
		<path d="M171.757,219.951c-4.108-2.624-8.068-5.473-11.861-8.533c-6.177-4.835-11.89-10.234-17.067-16.128    c-13.585,13.069-35.193,12.651-48.263-0.934c-13.069-13.585-12.651-35.193,0.934-48.263c4.987-4.798,11.315-7.966,18.144-9.085    v-1.621l-0.512-2.901c-0.931-4.256-1.643-8.557-2.133-12.885H76.866c-4.713,0-8.533,3.82-8.533,8.533v93.867h107.008    L171.757,219.951z"/>
	</g>
</g>
<g>
	<g>
		<path d="M345.837,79.322C328.362,20.6,266.593-12.837,207.871,4.637c-35.909,10.686-63.999,38.775-74.685,74.685    c0,0.853,0,1.707-0.683,2.475c-2.172,6.891-3.658,13.98-4.437,21.163c0,2.674,0,5.376,0,8.107    c0.004,23.605,7.537,46.592,21.504,65.621c6.058,8.085,13.176,15.317,21.163,21.504c3.306,2.606,6.753,5.027,10.325,7.253    c49.228,30.363,113.522,17.808,147.712-28.843C349.377,148.636,355.693,112.632,345.837,79.322z M264.6,183.855    c0,11.641-9.437,21.077-21.077,21.077h-9.045c-11.641,0-21.077-9.437-21.077-21.077v-9.045c0-11.641,9.437-21.077,21.077-21.077    h9.045c11.641,0,21.077,9.437,21.077,21.077V183.855z M273.133,42.799l-6.4,79.872c-0.922,8.078-7.828,14.135-15.957,13.995    h-23.552c-8.247,0.124-15.2-6.122-15.957-14.336l-6.4-79.531c-0.454-4.349,1.011-8.68,4.011-11.861    c3.111-3.334,7.472-5.22,12.032-5.205h36.181c4.56-0.015,8.921,1.871,12.032,5.205C272.122,34.119,273.586,38.45,273.133,42.799z"/>
	</g>
</g>
<g>
	<g>
		<path d="M68.333,239.066v187.733h341.333V239.066H68.333z M392.6,392.666c0,9.426-7.641,17.067-17.067,17.067H102.466    c-9.426,0-17.067-7.641-17.067-17.067V273.199c0-9.426,7.641-17.067,17.067-17.067h273.067c9.426,0,17.067,7.641,17.067,17.067    V392.666z"/>
	</g>
</g>
<g>
	<g>
		<path d="M68.333,443.866v25.6c0,4.713,3.82,8.533,8.533,8.533h324.267c4.713,0,8.533-3.82,8.533-8.533v-25.6H68.333z"/>
	</g>
</g>
<g>
	<g>
		<path d="M401.133,119.599H367c-0.299,4.261-0.812,8.505-1.536,12.715l-0.512,2.987v1.621    c18.603,3.049,31.213,20.601,28.164,39.204c-3.049,18.603-20.601,31.213-39.204,28.164c-6.829-1.119-13.157-4.288-18.144-9.085    c-5.176,5.894-10.89,11.293-17.067,16.128c-3.792,3.063-7.752,5.912-11.861,8.533l-3.584,2.048h106.411v-93.781    C409.666,123.42,405.846,119.599,401.133,119.599z"/>
	</g>
</g>
<g>
	<g>
		<path d="M102.466,273.199v119.467h273.067V273.199H102.466z M220.568,324.911c-0.983,3.742-2.476,7.332-4.437,10.667l-1.28,2.048    c-0.946,1.408-1.774,2.892-2.475,4.437c-2.048,7.001-0.925,14.549,3.072,20.651c2.316,4.079,0.906,9.262-3.157,11.605    c-1.275,0.723-2.715,1.105-4.181,1.109c-3.061,0.012-5.894-1.616-7.424-4.267c-6.796-10.484-8.4-23.508-4.352-35.328    c1.06-2.501,2.345-4.9,3.84-7.168l1.109-1.792c1.177-1.999,2.068-4.153,2.645-6.4c0.878-3.415,0.878-6.996,0-10.411    c-0.431-2.058-1.336-3.987-2.645-5.632c-3.181-3.487-2.933-8.893,0.555-12.075c3.487-3.181,8.893-2.933,12.075,0.555    c3.205,3.73,5.459,8.18,6.571,12.971C222.125,312.115,222.155,318.664,220.568,324.911z M254.701,324.911    c-0.983,3.742-2.476,7.332-4.437,10.667l-1.28,2.048c-0.946,1.408-1.774,2.892-2.475,4.437    c-2.048,7.001-0.925,14.549,3.072,20.651c2.316,4.079,0.906,9.262-3.157,11.605c-1.275,0.723-2.715,1.105-4.181,1.109    c-3.061,0.012-5.894-1.616-7.424-4.267c-6.796-10.484-8.4-23.508-4.352-35.328c1.06-2.501,2.345-4.9,3.84-7.168l1.109-1.792    c1.177-1.999,2.068-4.153,2.645-6.4c0.878-3.415,0.878-6.996,0-10.411c-0.431-2.058-1.336-3.987-2.645-5.632    c-3.181-3.487-2.933-8.893,0.555-12.075c3.487-3.181,8.893-2.933,12.075,0.555c3.205,3.73,5.459,8.18,6.571,12.971    C256.259,312.115,256.288,318.664,254.701,324.911z M288.834,324.911c-0.983,3.742-2.476,7.332-4.437,10.667l-1.28,2.048    c-0.946,1.408-1.774,2.892-2.475,4.437c-2.048,7.001-0.925,14.549,3.072,20.651c2.316,4.079,0.906,9.262-3.157,11.605    c-1.275,0.723-2.715,1.105-4.181,1.109c-3.061,0.012-5.894-1.616-7.424-4.267c-6.796-10.484-8.4-23.508-4.352-35.328    c1.06-2.501,2.345-4.9,3.84-7.168l1.109-1.792c1.177-1.999,2.068-4.153,2.645-6.4c0.878-3.415,0.878-6.996,0-10.411    c-0.431-2.058-1.336-3.987-2.645-5.632c-3.181-3.487-2.933-8.893,0.555-12.075c3.487-3.181,8.893-2.933,12.075,0.555    c3.205,3.73,5.459,8.18,6.571,12.971C290.392,312.115,290.421,318.664,288.834,324.911z"/>
	</g>
</g>
<g>
</g>
<g>
</g>
<g>
</g>
<g>
</g>
<g>
</g>
<g>
</g>
<g>
</g>
<g>
</g>
<g>
</g>
<g>
</g>
<g>
</g>
<g>
</g>
<g>
</g>
<g>
</g>
<g>
</g>
</svg>
