<?xml version="1.0" encoding="iso-8859-1"?>
<!-- Generator: Adobe Illustrator 19.0.0, SVG Export Plug-In . SVG Version: 6.00 Build 0)  -->
<svg xmlns="http://www.w3.org/2000/svg" xmlns:xlink="http://www.w3.org/1999/xlink" version="1.1" id="Layer_1" x="0px" y="0px" viewBox="0 0 469.333 469.333" style="enable-background:new 0 0 469.333 469.333;" xml:space="preserve">
<g>
	<g>
		<path d="M303.36,301.781c-2.902-5.244-6.651-9.972-11.093-13.995c-12.352-12.259-19.555-28.773-20.139-46.165    c-1.43,1.79-2.741,3.671-3.925,5.632c-10.417,17.161-10.018,38.787,1.024,55.552c2.977,3.654,2.429,9.029-1.225,12.006    c-2.962,2.414-7.168,2.564-10.295,0.368c-8.62-5.045-15.384-12.736-19.285-21.931c-14.207,16.375-12.449,41.167,3.926,55.374    c16.375,14.207,41.167,12.449,55.374-3.926C308.03,332.813,310.249,315.924,303.36,301.781z"/>
	</g>
</g>
<g>
	<g>
		<path d="M452.267,221.312h-76.8c-15.163-20.159-35.944-35.389-59.733-43.776v-33.024c0-4.713-3.82-8.533-8.533-8.533h-8.533    v-17.067h25.6c11.601,10.803,26.816,16.889,42.667,17.067c23.564,0,42.667-19.103,42.667-42.667s-19.102-42.667-42.667-42.667    c-15.851,0.178-31.065,6.264-42.667,17.067h-25.6v-3.157c0-16.495-13.372-29.867-29.867-29.867s-29.867,13.372-29.867,29.867    v3.157h-25.6c-11.601-10.803-26.816-16.889-42.667-17.067C147.103,50.645,128,69.748,128,93.312s19.103,42.667,42.667,42.667    c15.851-0.178,31.065-6.264,42.667-17.067h25.6v17.067H230.4c-4.713,0-8.533,3.82-8.533,8.533v36.523    c-20.255,8.786-37.893,22.661-51.2,40.277H128c-70.571,0-128,53.589-128,119.467v25.6c0,9.426,7.641,17.067,17.067,17.067h51.2    c9.426,0,17.067-7.641,17.067-17.067v-25.6c0-18.859,19.115-34.133,42.667-34.133h17.067c0,70.693,57.308,128,128,128    s128-57.308,128-128h51.2c9.426,0,17.067-7.641,17.067-17.067v-51.2C469.333,228.953,461.692,221.312,452.267,221.312z     M238.933,153.045h59.733v19.883c-19.77-4.316-40.306-3.612-59.733,2.048V153.045z M321.195,337.451l-0.171-0.085    c-10.318,29.343-42.47,44.766-71.814,34.448s-44.767-42.47-34.448-71.814c4.357-12.39,12.907-22.868,24.171-29.621    c1.399-0.883,3.042-1.301,4.693-1.195c0.809-10.921,4.233-21.486,9.984-30.805c6.275-10.215,15.097-18.625,25.6-24.405    c4.122-2.284,9.316-0.793,11.6,3.329c1.126,2.032,1.374,4.435,0.688,6.655c-1.317,4.322-2.063,8.797-2.219,13.312v1.877    c-0.057,13.747,5.417,26.939,15.189,36.608c5.828,5.338,10.705,11.628,14.421,18.603    C325.341,307.848,326.169,323.349,321.195,337.451z"/>
	</g>
</g>
<g>
</g>
<g>
</g>
<g>
</g>
<g>
</g>
<g>
</g>
<g>
</g>
<g>
</g>
<g>
</g>
<g>
</g>
<g>
</g>
<g>
</g>
<g>
</g>
<g>
</g>
<g>
</g>
<g>
</g>
</svg>
