<?xml version="1.0" encoding="iso-8859-1"?>
<!-- Generator: Adobe Illustrator 19.0.0, SVG Export Plug-In . SVG Version: 6.00 Build 0)  -->
<svg xmlns="http://www.w3.org/2000/svg" xmlns:xlink="http://www.w3.org/1999/xlink" version="1.1" id="Layer_1" x="0px" y="0px" viewBox="0 0 469.333 469.333" style="enable-background:new 0 0 469.333 469.333;" xml:space="preserve">
<g>
	<g>
		<path d="M452.267,221.312h-76.8c-15.163-20.159-35.944-35.389-59.733-43.776v-33.024c0-4.713-3.82-8.533-8.533-8.533h-8.533    v-17.067h25.6c11.601,10.803,26.816,16.889,42.667,17.067c23.564,0,42.667-19.103,42.667-42.667s-19.102-42.667-42.667-42.667    c-15.851,0.178-31.065,6.264-42.667,17.067h-25.6v-3.157c0-16.495-13.372-29.867-29.867-29.867s-29.867,13.372-29.867,29.867    v3.157h-25.6c-11.601-10.803-26.816-16.889-42.667-17.067C147.103,50.645,128,69.748,128,93.312s19.103,42.667,42.667,42.667    c15.851-0.178,31.065-6.264,42.667-17.067h25.6v17.067H230.4c-4.713,0-8.533,3.82-8.533,8.533v36.523    c-20.255,8.786-37.893,22.661-51.2,40.277H128c-70.571,0-128,53.589-128,119.467v25.6c0,9.426,7.641,17.067,17.067,17.067h51.2    c9.426,0,17.067-7.641,17.067-17.067v-25.6c0-18.859,19.115-34.133,42.667-34.133h17.067c0,70.693,57.308,128,128,128    s128-57.308,128-128h51.2c9.426,0,17.067-7.641,17.067-17.067v-51.2C469.333,228.953,461.692,221.312,452.267,221.312z     M238.933,153.045h59.733v19.883c-19.77-4.316-40.306-3.612-59.733,2.048V153.045z M358.4,306.731v-0.085h-9.643l8.533,12.373    c2.833,3.766,2.076,9.116-1.69,11.949c-3.766,2.833-9.116,2.076-11.949-1.69c-0.19-0.252-0.365-0.515-0.526-0.787l-14.933-21.845    h-34.56l28.075,28.075c3.58,3.065,3.996,8.452,0.931,12.032s-8.452,3.996-12.032,0.931c-0.334-0.286-0.645-0.597-0.931-0.931    L281.6,318.677v34.56l21.76,14.507c4.057,2.398,5.401,7.631,3.003,11.688s-7.631,5.401-11.688,3.003    c-0.272-0.161-0.534-0.336-0.787-0.526l-12.373-8.533v10.069c0,4.713-3.82,8.533-8.533,8.533s-8.533-3.82-8.533-8.533v-9.643    l-12.373,8.533c-3.766,2.833-9.116,2.076-11.949-1.69c-2.833-3.766-2.076-9.116,1.69-11.949c0.252-0.19,0.515-0.365,0.787-0.526    l21.931-14.933v-34.56l-28.075,28.075c-3.58,3.065-8.967,2.649-12.032-0.931c-2.736-3.195-2.736-7.906,0-11.101l28.075-28.075    h-34.56l-14.507,21.76c-2.833,3.766-8.183,4.523-11.949,1.69c-3.474-2.613-4.429-7.42-2.216-11.162l8.533-12.373h-10.069    c-4.713,0-8.533-3.82-8.533-8.533s3.82-8.533,8.533-8.533h9.643l-8.533-12.373c-2.833-3.766-2.076-9.116,1.69-11.949    c3.766-2.833,9.116-2.076,11.949,1.69c0.19,0.252,0.365,0.515,0.526,0.787l14.933,21.931h34.56l-28.075-28.075    c-3.065-3.58-2.649-8.966,0.931-12.032c3.195-2.736,7.906-2.736,11.101,0l28.075,28.075v-34.56l-21.76-14.507    c-4.057-2.398-5.401-7.631-3.003-11.688c2.398-4.057,7.631-5.401,11.688-3.003c0.272,0.161,0.534,0.336,0.787,0.526l12.373,8.533    v-10.069c0-4.713,3.821-8.533,8.533-8.533s8.533,3.82,8.533,8.533v9.643l12.373-8.533c3.766-2.833,9.116-2.076,11.949,1.69    s2.076,9.116-1.69,11.949c-0.252,0.19-0.515,0.365-0.787,0.526L281.6,242.987v34.56l28.075-28.075    c3.58-3.065,8.966-2.649,12.032,0.931c2.736,3.195,2.736,7.906,0,11.101l-28.075,28.075h34.56l14.507-21.76    c2.398-4.057,7.631-5.401,11.688-3.003s5.401,7.631,3.003,11.688c-0.161,0.272-0.336,0.534-0.526,0.787l-8.533,12.373H358.4    c4.713,0,8.533,3.82,8.533,8.533S363.113,306.731,358.4,306.731z"/>
	</g>
</g>
<g>
</g>
<g>
</g>
<g>
</g>
<g>
</g>
<g>
</g>
<g>
</g>
<g>
</g>
<g>
</g>
<g>
</g>
<g>
</g>
<g>
</g>
<g>
</g>
<g>
</g>
<g>
</g>
<g>
</g>
</svg>
