<?xml version="1.0" encoding="iso-8859-1"?>
<!-- Generator: Adobe Illustrator 19.0.0, SVG Export Plug-In . SVG Version: 6.00 Build 0)  -->
<svg xmlns="http://www.w3.org/2000/svg" xmlns:xlink="http://www.w3.org/1999/xlink" version="1.1" id="Layer_1" x="0px" y="0px" viewBox="0 0 512 512" style="enable-background:new 0 0 512 512;" xml:space="preserve">
<g>
	<g>
		<path d="M251.733,264.533h-128c-30.549,0-55.467,38.315-55.467,85.333c0,47.019,24.917,85.333,55.467,85.333h128    c30.549,0,55.467-38.315,55.467-85.333S282.283,264.533,251.733,264.533z M170.667,384c0,9.426-7.641,17.067-17.067,17.067    h-17.067c-9.426,0-17.067-7.641-17.067-17.067v-68.267c0-9.426,7.641-17.067,17.067-17.067H153.6    c9.426,0,17.067,7.641,17.067,17.067V384z M256,384c0,9.426-7.641,17.067-17.067,17.067h-17.067    c-9.426,0-17.067-7.641-17.067-17.067v-68.267c0-9.426,7.641-17.067,17.067-17.067h17.067c9.426,0,17.067,7.641,17.067,17.067V384    z"/>
	</g>
</g>
<g>
	<g>
		<path d="M384,0c-63.554,0.241-117.4,46.871-126.72,109.739c-0.846,6.05-1.274,12.152-1.28,18.261c0,2.901,0,5.717,0,8.533H34.133    C15.282,136.533,0,151.815,0,170.667v307.2C0,496.718,15.282,512,34.133,512h307.2c18.851,0,34.133-15.282,34.133-34.133V256    c2.816,0,5.632,0,8.533,0c70.692,0,128-57.308,128-128S454.692,0,384,0z M375.467,68.267c0-4.713,3.82-8.533,8.533-8.533    s8.533,3.82,8.533,8.533V102.4c0,4.713-3.82,8.533-8.533,8.533s-8.533-3.82-8.533-8.533V68.267z M85.333,179.2h102.4    c4.713,0,8.533,3.82,8.533,8.533s-3.82,8.533-8.533,8.533h-102.4c-4.713,0-8.533-3.82-8.533-8.533S80.62,179.2,85.333,179.2z     M34.133,187.733c0-4.713,3.82-8.533,8.533-8.533H51.2c4.713,0,8.533,3.82,8.533,8.533s-3.82,8.533-8.533,8.533h-8.533    C37.954,196.267,34.133,192.446,34.133,187.733z M251.733,452.267H124.501c-40.789,0-73.301-45.909-73.301-102.4    s32.512-102.4,72.533-102.4h127.232h0.768c40.021,0,72.533,45.909,72.533,102.4S291.755,452.267,251.733,452.267z     M425.813,170.667c-1.441,1.469-2.981,2.837-4.608,4.096c-1.792,1.365-3.328,2.475-5.035,3.584l-2.816,1.621    c-18.222,10.5-40.658,10.5-58.88,0l-2.304-1.28c-1.799-1.13-3.537-2.354-5.205-3.669c-1.53-1.187-2.984-2.47-4.352-3.84    c-11.799-11.254-18.436-26.874-18.347-43.179c-0.058-8.856,1.897-17.61,5.717-25.6c5.226-10.923,13.648-19.999,24.149-26.027    c3.977-2.528,9.251-1.354,11.779,2.624c2.528,3.977,1.354,9.251-2.624,11.779c-0.202,0.129-0.41,0.249-0.622,0.36    c-7.444,4.403-13.391,10.945-17.067,18.773c-2.77,5.631-4.229,11.816-4.267,18.091c0.019,11.728,4.864,22.931,13.397,30.976    c0.912,0.887,1.881,1.714,2.901,2.475c1.109,0.853,2.133,1.621,3.499,2.475l1.963,1.109c12.925,7.402,28.803,7.402,41.728,0    l2.475-1.451l3.413-2.475c1.083-0.841,2.11-1.753,3.072-2.731c12.891-12.753,16.314-32.261,8.533-48.64    c-3.668-7.812-9.619-14.328-17.067-18.688c-3.977-2.528-5.152-7.802-2.623-11.779c2.379-3.742,7.228-5.039,11.157-2.983    c10.546,6.036,19,15.146,24.235,26.112C448.926,125.429,444.026,152.844,425.813,170.667z"/>
	</g>
</g>
<g>
	<g>
		<rect x="221.867" y="315.733" width="17.067" height="68.267"/>
	</g>
</g>
<g>
	<g>
		<rect x="136.533" y="315.733" width="17.067" height="68.267"/>
	</g>
</g>
<g>
</g>
<g>
</g>
<g>
</g>
<g>
</g>
<g>
</g>
<g>
</g>
<g>
</g>
<g>
</g>
<g>
</g>
<g>
</g>
<g>
</g>
<g>
</g>
<g>
</g>
<g>
</g>
<g>
</g>
</svg>
