<?xml version="1.0" encoding="iso-8859-1"?>
<!-- Generator: Adobe Illustrator 19.0.0, SVG Export Plug-In . SVG Version: 6.00 Build 0)  -->
<svg xmlns="http://www.w3.org/2000/svg" xmlns:xlink="http://www.w3.org/1999/xlink" version="1.1" id="Layer_1" x="0px" y="0px" viewBox="0 0 512 512" style="enable-background:new 0 0 512 512;" xml:space="preserve">
<g>
	<g>
		<rect x="238.933" y="384" width="51.2" height="17.067"/>
	</g>
</g>
<g>
	<g>
		<rect x="179.2" y="238.933" width="17.067" height="85.333"/>
	</g>
</g>
<g>
	<g>
		<path d="M384,0c-63.554,0.241-117.4,46.871-126.72,109.739c-0.844,6.051-1.272,12.152-1.28,18.261c0,2.901,0,5.717,0,8.533H34.133    C15.282,136.533,0,151.815,0,170.667v307.2C0,496.718,15.282,512,34.133,512h307.2c18.851,0,34.133-15.282,34.133-34.133V256    c2.816,0,5.632,0,8.533,0c70.692,0,128-57.308,128-128S454.692,0,384,0z M375.467,68.267c0-4.713,3.82-8.533,8.533-8.533    s8.533,3.82,8.533,8.533V102.4c0,4.713-3.82,8.533-8.533,8.533s-8.533-3.82-8.533-8.533V68.267z M85.333,179.2h102.4    c4.713,0,8.533,3.82,8.533,8.533s-3.82,8.533-8.533,8.533h-102.4c-4.713,0-8.533-3.82-8.533-8.533S80.62,179.2,85.333,179.2z     M51.2,196.267h-8.533c-4.713,0-8.533-3.82-8.533-8.533s3.82-8.533,8.533-8.533H51.2c4.713,0,8.533,3.82,8.533,8.533    S55.913,196.267,51.2,196.267z M153.6,409.6c0,4.713-3.821,8.533-8.533,8.533H76.8c-4.713,0-8.533-3.82-8.533-8.533v-34.133    c0-4.713,3.82-8.533,8.533-8.533h68.267c4.713,0,8.533,3.82,8.533,8.533V409.6z M213.333,332.8c0,4.713-3.821,8.533-8.533,8.533    h-34.133c-4.713,0-8.533-3.821-8.533-8.533V230.4c0-4.713,3.82-8.533,8.533-8.533H204.8c4.713,0,8.533,3.82,8.533,8.533V332.8z     M307.2,409.6c0,4.713-3.82,8.533-8.533,8.533H230.4c-4.713,0-8.533-3.82-8.533-8.533v-34.133c0-4.713,3.82-8.533,8.533-8.533    h68.267c4.713,0,8.533,3.82,8.533,8.533V409.6z M425.813,170.667c-1.441,1.469-2.98,2.837-4.608,4.096    c-1.792,1.365-3.328,2.56-5.035,3.584l-2.816,1.621c-18.222,10.5-40.658,10.5-58.88,0l-2.304-1.28    c-1.766-1.107-3.475-2.303-5.12-3.584c-1.527-1.16-2.981-2.414-4.352-3.755c-11.823-11.315-18.485-26.985-18.432-43.349    c-0.058-8.856,1.897-17.61,5.717-25.6c5.226-10.923,13.648-19.999,24.149-26.027c3.977-2.528,9.251-1.354,11.779,2.624    c2.528,3.977,1.354,9.251-2.624,11.779c-0.202,0.129-0.41,0.249-0.622,0.36c-7.444,4.403-13.391,10.945-17.067,18.773    c-2.77,5.631-4.229,11.816-4.267,18.091c0.019,11.728,4.864,22.931,13.397,30.976c0.917,0.882,1.886,1.708,2.901,2.475    l3.499,2.475l1.963,1.109c12.925,7.402,28.803,7.402,41.728,0l2.475-1.451l3.413-2.475c1.083-0.841,2.109-1.754,3.072-2.731    c8.196-7.988,12.838-18.934,12.885-30.379c0.019-6.29-1.381-12.503-4.096-18.176c-3.668-7.812-9.619-14.328-17.067-18.688    c-3.977-2.528-5.152-7.802-2.623-11.779c2.379-3.742,7.228-5.039,11.157-2.983c10.438,6.054,18.798,15.128,23.979,26.027    C448.926,125.429,444.026,152.844,425.813,170.667z"/>
	</g>
</g>
<g>
	<g>
		<rect x="85.333" y="384" width="51.2" height="17.067"/>
	</g>
</g>
<g>
</g>
<g>
</g>
<g>
</g>
<g>
</g>
<g>
</g>
<g>
</g>
<g>
</g>
<g>
</g>
<g>
</g>
<g>
</g>
<g>
</g>
<g>
</g>
<g>
</g>
<g>
</g>
<g>
</g>
</svg>
