<?xml version="1.0" encoding="iso-8859-1"?>
<!-- Generator: Adobe Illustrator 19.0.0, SVG Export Plug-In . SVG Version: 6.00 Build 0)  -->
<svg xmlns="http://www.w3.org/2000/svg" xmlns:xlink="http://www.w3.org/1999/xlink" version="1.1" id="Layer_1" x="0px" y="0px" viewBox="0 0 512.379 512.379" style="enable-background:new 0 0 512.379 512.379;" xml:space="preserve">
<g>
	<g>
		<path d="M507.948,391.01c-0.012-0.007-0.024-0.013-0.036-0.02c-4.132-2.267-9.319-0.755-11.586,3.377    c-0.007,0.012-0.013,0.024-0.02,0.036c-20.181,37.246-48.646,69.36-83.2,93.867c-3.646,2.986-4.181,8.363-1.195,12.009    c2.687,3.281,7.376,4.091,11.008,1.901c36.702-25.991,66.947-60.061,88.405-99.584C513.592,398.464,512.08,393.276,507.948,391.01    z"/>
	</g>
</g>
<g>
	<g>
		<path d="M481.16,367.822c-4.218-2.121-9.357-0.421-11.477,3.797c-20.183,40.333-51.288,74.187-89.771,97.707    c-3.702,2.917-4.338,8.282-1.421,11.984c2.362,2.997,6.427,4.062,9.955,2.608c41.345-25.132,74.789-61.385,96.512-104.619    C487.078,375.081,485.378,369.943,481.16,367.822z"/>
	</g>
</g>
<g>
	<g>
		<path d="M100.507,488.72c-0.316-0.259-0.651-0.495-1.001-0.706c-34.484-24.419-62.916-56.412-83.115-93.525    c-2.356-4.147-7.629-5.599-11.776-3.243c-4.147,2.356-5.599,7.629-3.243,11.776c21.519,39.266,51.728,73.095,88.32,98.901    c3.646,2.986,9.022,2.451,12.009-1.195S104.153,491.706,100.507,488.72z"/>
	</g>
</g>
<g>
	<g>
		<path d="M132.445,468.899l0.341,0.427c-38.609-23.47-69.836-57.329-90.112-97.707c-2.121-4.218-7.259-5.918-11.477-3.797    c-4.218,2.121-5.918,7.259-3.797,11.477c21.784,43.079,55.223,79.179,96.512,104.192c4.357,1.796,9.345-0.28,11.141-4.637    C136.508,475.326,135.443,471.261,132.445,468.899z"/>
	</g>
</g>
<g>
	<g>
		<path d="M256.008,8.526C117.866,7.903,4.353,117.405,0.008,255.481c-0.14,4.559,1.55,8.984,4.693,12.288    c3.347,3.516,8.033,5.44,12.885,5.291h17.067c4.58,118.991,102.276,213.147,221.355,213.333c4.494,0,8.96,0,13.397,0    c13.379-0.798,26.659-2.797,39.68-5.973c96.109-23.904,164.887-108.4,168.789-207.36h17.067c4.633,0.005,9.068-1.874,12.288-5.205    c3.196-3.311,4.919-7.773,4.779-12.373C507.664,117.405,394.151,7.903,256.008,8.526z M295.347,465.486l-4.523,0.853l-7.339,1.109    l-4.181,0.512l-8.533,0.768h-3.328h-2.901v-16.469c0-4.713-3.82-8.533-8.533-8.533s-8.533,3.821-8.533,8.533v17.067h-3.157h-3.499    l-8.107-0.683l-4.352-0.597l-6.485-1.707l-4.693-0.853l-2.987-0.597c2.577-23.423,23.655-40.321,47.078-37.744    c19.869,2.186,35.557,17.874,37.744,37.744L295.347,465.486z M384.008,273.827c-0.839,12.478-3.542,24.76-8.021,36.437    c-6.598,17.233-16.845,32.836-30.037,45.739c-3.301,3.29-6.806,6.369-10.496,9.216c-3.765,3.059-7.697,5.908-11.776,8.533    c-1.109,0.683-2.389,1.451-3.669,2.048c-39.556,23.042-88.444,23.042-128,0l-3.243-1.877c-4.08-2.625-8.011-5.474-11.776-8.533    c-3.69-2.847-7.196-5.925-10.496-9.216c-13.195-12.95-23.415-28.615-29.952-45.909c-4.489-11.733-7.193-24.073-8.021-36.608    c0-2.816,0-5.888,0-9.045c-0.053-18.987,4.177-37.742,12.373-54.869c30.323-63.859,106.672-91.045,170.531-60.722    c26.629,12.645,48.078,34.093,60.722,60.722c8.01,17.141,12.064,35.864,11.861,54.784    C384.008,267.683,384.008,270.755,384.008,273.827z M456.883,188.409v0.085c-3.133,4.884-8.533,7.841-14.336,7.851h-19.029    c-6.377-0.035-12.202-3.623-15.104-9.301c-42.839-83.959-145.629-117.293-229.588-74.454    c-32.045,16.351-58.104,42.409-74.454,74.454c-2.925,5.646-8.746,9.197-15.104,9.216H70.237    c-9.426,0.028-17.089-7.591-17.116-17.017c-0.007-2.429,0.504-4.832,1.5-7.047l1.195-2.645    C108.243,58.799,240.525,11.517,351.277,63.944c46.348,21.94,83.666,59.258,105.606,105.606l1.195,2.645    C460.444,177.455,459.995,183.553,456.883,188.409z"/>
	</g>
</g>
<g>
	<g>
		<path d="M441.437,176.718C407.238,105.334,335.162,59.859,256.008,59.726c-78.926,0.41-150.679,45.881-184.747,117.077    l-1.109,2.389h19.115c47.183-92.324,160.276-128.919,252.6-81.736c35.164,17.971,63.765,46.572,81.736,81.736h18.944    L441.437,176.718z"/>
	</g>
</g>
<g>
	<g>
		<path d="M356.275,216.995c-18.479-38.631-57.444-63.27-100.267-63.403c-42.823,0.133-81.788,24.772-100.267,63.403    c-7.085,14.84-10.732,31.086-10.667,47.531c0,2.645,0,5.205,0,7.765c0.713,10.93,3.072,21.689,6.997,31.915    c5.748,14.926,14.655,28.433,26.112,39.595c2.812,2.809,5.805,5.432,8.96,7.851c3.333,2.61,6.808,5.031,10.411,7.253l2.304,1.365    c34.36,19.677,76.573,19.677,110.933,0l2.731-1.536c3.573-2.225,7.02-4.646,10.325-7.253c3.15-2.425,6.143-5.047,8.96-7.851    c11.467-11.186,20.375-24.723,26.112-39.68c4.235-10.005,6.939-20.592,8.021-31.403c0-2.816,0-5.376,0-8.021    C367.009,248.082,363.363,231.834,356.275,216.995z M322.389,226.905c-0.107,0.142-0.218,0.281-0.333,0.416v-0.085l-68.267,85.333    c-2.923,3.697-8.289,4.325-11.986,1.402c-0.015-0.012-0.031-0.024-0.046-0.036l-42.667-34.133    c-3.584-3.06-4.009-8.447-0.948-12.031c2.926-3.427,8.012-3.988,11.615-1.281l36.011,28.843l62.976-78.677    c2.831-3.768,8.18-4.528,11.948-1.697C324.46,217.788,325.22,223.137,322.389,226.905z"/>
	</g>
</g>
<g>
</g>
<g>
</g>
<g>
</g>
<g>
</g>
<g>
</g>
<g>
</g>
<g>
</g>
<g>
</g>
<g>
</g>
<g>
</g>
<g>
</g>
<g>
</g>
<g>
</g>
<g>
</g>
<g>
</g>
</svg>
