<?xml version="1.0" encoding="iso-8859-1"?>
<!-- Generator: Adobe Illustrator 19.0.0, SVG Export Plug-In . SVG Version: 6.00 Build 0)  -->
<svg xmlns="http://www.w3.org/2000/svg" xmlns:xlink="http://www.w3.org/1999/xlink" version="1.1" id="Layer_1" x="0px" y="0px" viewBox="0 0 512.284 512.284" style="enable-background:new 0 0 512.284 512.284;" xml:space="preserve">
<g>
	<g>
		<path d="M507.704,390.962c-0.012-0.007-0.024-0.013-0.036-0.02c-4.132-2.267-9.319-0.755-11.586,3.377    c-0.007,0.012-0.013,0.024-0.02,0.036c-20.181,37.246-48.646,69.36-83.2,93.867c-3.646,2.986-4.181,8.363-1.195,12.009    c2.687,3.281,7.376,4.091,11.008,1.901c36.702-25.991,66.947-60.061,88.405-99.584    C513.348,398.416,511.836,393.229,507.704,390.962z"/>
	</g>
</g>
<g>
	<g>
		<path d="M480.916,367.774c-4.218-2.121-9.357-0.421-11.477,3.797c-20.183,40.333-51.288,74.187-89.771,97.707    c-3.702,2.917-4.338,8.282-1.421,11.984c2.362,2.997,6.427,4.062,9.955,2.608c41.345-25.132,74.789-61.385,96.512-104.619    C486.834,375.034,485.134,369.895,480.916,367.774z"/>
	</g>
</g>
<g>
	<g>
		<path d="M100.263,488.672c-0.316-0.259-0.651-0.495-1.001-0.706c-34.484-24.419-62.916-56.412-83.115-93.525    c-2.356-4.147-7.629-5.599-11.776-3.243c-4.147,2.356-5.599,7.629-3.243,11.776c21.519,39.266,51.728,73.095,88.32,98.901    c3.646,2.986,9.022,2.451,12.009-1.195S103.909,491.659,100.263,488.672z"/>
	</g>
</g>
<g>
	<g>
		<path d="M132.201,468.852l0.341,0.427c-38.42-23.544-69.463-57.396-89.6-97.707c-2.121-4.218-7.259-5.918-11.477-3.797    c-4.218,2.121-5.918,7.259-3.797,11.477c21.645,43.012,54.9,79.105,96,104.192c4.357,1.796,9.345-0.28,11.141-4.637    C136.263,475.278,135.198,471.214,132.201,468.852z"/>
	</g>
</g>
<g>
	<g>
		<path d="M228.201,213.279v6.4c0.967,15.789,10.59,29.747,25.003,36.267h6.229c14.38-6.543,23.966-20.497,24.917-36.267v-6.4    H228.201z"/>
	</g>
</g>
<g>
	<g>
		<path d="M259.348,273.012h-6.229c-14.38,6.543-23.966,20.497-24.917,36.267v6.4h56.064v-6.4    C283.314,293.509,273.727,279.555,259.348,273.012z"/>
	</g>
</g>
<g>
	<g>
		<path d="M355.945,216.863c-18.409-38.404-57.082-62.972-99.669-63.317c-42.823,0.133-81.788,24.772-100.267,63.403    c-7.085,14.84-10.732,31.086-10.667,47.531c0,2.645,0,5.205,0,7.765c0.719,10.901,3.078,21.632,6.997,31.829    c5.748,14.926,14.655,28.433,26.112,39.595c2.812,2.809,5.805,5.432,8.96,7.851c3.333,2.61,6.808,5.031,10.411,7.253l2.304,1.365    c34.36,19.677,76.573,19.677,110.933,0l2.731-1.536c3.713-2.128,7.303-4.464,10.752-6.997c3.154-2.42,6.147-5.042,8.96-7.851    c11.467-11.186,20.375-24.723,26.112-39.68c3.909-10.141,6.268-20.814,6.997-31.659c0-2.816,0-5.376,0-8.021    C366.679,247.949,363.033,231.701,355.945,216.863z M301.417,309.279h0.171v6.4h5.888c4.713,0,8.533,3.821,8.533,8.533    c0,4.713-3.82,8.533-8.533,8.533h-102.4c-4.713,0-8.533-3.821-8.533-8.533c0-4.713,3.82-8.533,8.533-8.533h6.059v-6.4    c0.668-17.728,9.327-34.199,23.552-44.8c-14.225-10.601-22.884-27.072-23.552-44.8v-6.4h-6.059c-4.713,0-8.533-3.821-8.533-8.533    c0-4.713,3.82-8.533,8.533-8.533h102.4c4.713,0,8.533,3.821,8.533,8.533c0,4.713-3.82,8.533-8.533,8.533h-6.059v6.4    c-0.668,17.728-9.327,34.199-23.552,44.8C292.09,275.079,300.749,291.551,301.417,309.279z"/>
	</g>
</g>
<g>
	<g>
		<path d="M256.276,8.478C118.133,7.855,4.62,117.358,0.276,255.433c-0.14,4.559,1.55,8.984,4.693,12.288    c3.226,3.384,7.698,5.296,12.373,5.291h17.067c4.588,119.189,102.59,213.422,221.867,213.333c4.494,0,8.96,0,13.397,0    c13.379-0.798,26.659-2.797,39.68-5.973c96.109-23.904,164.887-108.4,168.789-207.36h17.067c4.633,0.005,9.068-1.874,12.288-5.205    c3.196-3.311,4.919-7.773,4.779-12.373C507.931,117.358,394.418,7.855,256.276,8.478z M295.529,465.438l-4.352,0.768l-7.595,1.109    l-3.84,0.512l-8.533,0.768h-2.816h-3.584v-16.384c0-4.713-3.82-8.533-8.533-8.533c-4.713,0-8.533,3.821-8.533,8.533v17.067h-3.413    h-2.901l-8.533-0.768l-4.011-0.512l-7.424-1.109l-4.523-0.853l-3.328-1.28c2.577-23.423,23.655-40.321,47.078-37.744    c19.869,2.186,35.557,17.874,37.744,37.744L295.529,465.438z M383.764,273.78c-0.839,12.478-3.542,24.76-8.021,36.437    c-6.598,17.233-16.845,32.836-30.037,45.739c-3.301,3.29-6.806,6.369-10.496,9.216c-3.765,3.059-7.697,5.908-11.776,8.533    c-1.109,0.683-2.389,1.451-3.669,2.048c-39.556,23.042-88.444,23.042-128,0l-3.243-1.877c-4.109-2.623-8.068-5.472-11.861-8.533    c-3.69-2.847-7.196-5.925-10.496-9.216c-12.979-13.009-22.993-28.669-29.355-45.909c-4.673-11.733-7.55-24.103-8.533-36.693    c0-2.816,0-5.888,0-9.045c-0.053-18.987,4.177-37.742,12.373-54.869c30.323-63.859,106.672-91.045,170.531-60.722    c26.629,12.645,48.078,34.093,60.722,60.722c8.199,17.126,12.429,35.882,12.373,54.869    C384.276,267.636,384.276,270.708,383.764,273.78z M456.638,188.361v0.085c-3.133,4.884-8.533,7.841-14.336,7.851h-19.029    c-6.377-0.035-12.203-3.623-15.104-9.301C365.33,103.037,262.54,69.702,178.581,112.541    c-32.045,16.351-58.104,42.409-74.454,74.454c-2.925,5.646-8.746,9.197-15.104,9.216H69.993    c-9.426,0.028-17.089-7.591-17.116-17.017c-0.007-2.429,0.504-4.832,1.5-7.047l1.195-2.645    C107.999,58.751,240.281,11.47,351.032,63.896c46.348,21.94,83.666,59.258,105.606,105.606l1.195,2.645    C460.2,177.407,459.75,183.506,456.638,188.361z"/>
	</g>
</g>
<g>
	<g>
		<path d="M441.193,176.67C407.074,105.452,335.244,60.008,256.276,59.678c-79.111,0.214-151.111,45.715-185.259,117.077    l-1.109,2.389h19.115c47.183-92.324,160.276-128.919,252.6-81.736c35.164,17.971,63.765,46.572,81.736,81.736h18.944    L441.193,176.67z"/>
	</g>
</g>
<g>
</g>
<g>
</g>
<g>
</g>
<g>
</g>
<g>
</g>
<g>
</g>
<g>
</g>
<g>
</g>
<g>
</g>
<g>
</g>
<g>
</g>
<g>
</g>
<g>
</g>
<g>
</g>
<g>
</g>
</svg>
