<?xml version="1.0" encoding="iso-8859-1"?>
<!-- Generator: Adobe Illustrator 19.0.0, SVG Export Plug-In . SVG Version: 6.00 Build 0)  -->
<svg xmlns="http://www.w3.org/2000/svg" xmlns:xlink="http://www.w3.org/1999/xlink" version="1.1" id="Layer_1" x="0px" y="0px" viewBox="0 0 512.134 512.134" style="enable-background:new 0 0 512.134 512.134;" xml:space="preserve">
<g>
	<g>
		<path d="M507.704,390.888c-0.012-0.007-0.024-0.013-0.036-0.02c-4.132-2.267-9.319-0.755-11.586,3.377    c-0.007,0.012-0.013,0.024-0.02,0.036c-20.181,37.246-48.646,69.36-83.2,93.867c-3.646,2.986-4.181,8.363-1.195,12.009    c2.687,3.281,7.376,4.091,11.008,1.901c36.7-25.993,66.945-60.062,88.405-99.584C513.348,398.341,511.836,393.154,507.704,390.888    z"/>
	</g>
</g>
<g>
	<g>
		<path d="M480.916,367.7c-4.218-2.121-9.357-0.421-11.477,3.797c-20.18,40.335-51.285,74.19-89.771,97.707    c-3.702,2.917-4.338,8.282-1.421,11.984c2.362,2.997,6.426,4.062,9.955,2.608c41.351-25.125,74.797-61.38,96.512-104.619    C486.834,374.959,485.134,369.821,480.916,367.7z"/>
	</g>
</g>
<g>
	<g>
		<path d="M100.263,488.598c-0.316-0.259-0.651-0.495-1.001-0.706c-34.484-24.419-62.916-56.412-83.115-93.525    c-2.356-4.147-7.629-5.599-11.776-3.243c-4.147,2.356-5.599,7.629-3.243,11.776c21.521,39.265,51.73,73.093,88.32,98.901    c3.646,2.986,9.022,2.451,12.009-1.195S103.909,491.584,100.263,488.598z"/>
	</g>
</g>
<g>
	<g>
		<path d="M132.201,468.777l0.341,0.427c-38.486-23.516-69.591-57.371-89.771-97.707c-2.121-4.218-7.259-5.918-11.477-3.797    s-5.918,7.259-3.797,11.477c21.688,43.037,55.005,79.133,96.171,104.192c4.357,1.796,9.345-0.28,11.141-4.637    C136.263,475.204,135.198,471.139,132.201,468.777z"/>
	</g>
</g>
<g>
	<g>
		<path d="M356.372,216.873c-18.479-38.631-57.444-63.27-100.267-63.403c-42.823,0.133-81.788,24.772-100.267,63.403    c-7.083,14.841-10.729,31.087-10.667,47.531c0,2.645,0,5.205,0,7.765c0.714,10.93,3.073,21.689,6.997,31.915    c5.748,14.926,14.655,28.433,26.112,39.595c2.816,2.806,5.809,5.428,8.96,7.851c3.336,2.605,6.811,5.026,10.411,7.253l2.304,1.365    c34.36,19.677,76.573,19.677,110.933,0l2.731-1.536c3.714-2.158,7.303-4.522,10.752-7.083c3.151-2.423,6.144-5.046,8.96-7.851    c11.467-11.186,20.375-24.723,26.112-39.68c4.103-10.083,6.663-20.727,7.595-31.573c0-2.816,0-5.376,0-8.021    C367.1,247.96,363.454,231.714,356.372,216.873z M297.918,307.071c-1.441,1.469-2.981,2.837-4.608,4.096    c-1.792,1.365-3.328,2.475-5.035,3.584l-2.816,1.621c-18.222,10.5-40.658,10.5-58.88,0l-2.304-1.28    c-1.799-1.13-3.537-2.355-5.205-3.669c-1.53-1.187-2.984-2.47-4.352-3.84c-11.799-11.254-18.436-26.874-18.347-43.179    c-0.058-8.856,1.897-17.61,5.717-25.6c14.084-29.832,49.686-42.598,79.518-28.514c12.523,5.912,22.602,15.992,28.514,28.514    C321.031,261.833,316.131,289.247,297.918,307.071z"/>
	</g>
</g>
<g>
	<g>
		<path d="M294.42,246.143c-7.019-14.823-21.914-24.31-38.315-24.405c-16.563-0.006-31.633,9.575-38.656,24.576    c-2.681,5.651-4.052,11.835-4.011,18.091c0.019,11.728,4.864,22.931,13.397,30.976c0.912,0.887,1.881,1.714,2.901,2.475    c1.109,0.853,2.133,1.621,3.499,2.475l1.963,1.109c12.925,7.402,28.803,7.402,41.728,0l2.475-1.451l3.413-2.475    c1.083-0.841,2.11-1.753,3.072-2.731C298.778,282.03,302.2,262.522,294.42,246.143z M264.638,281.471    c0,4.713-3.82,8.533-8.533,8.533c-4.713,0-8.533-3.82-8.533-8.533v-34.133c0-4.713,3.82-8.533,8.533-8.533    c4.713,0,8.533,3.82,8.533,8.533V281.471z"/>
	</g>
</g>
<g>
	<g>
		<path d="M441.193,176.596c-34.13-71.288-106.052-116.749-185.088-116.992c-79.05,0.28-150.967,45.771-185.088,117.077    l-1.109,2.389h19.115c47.183-92.324,160.276-128.919,252.6-81.736c35.164,17.971,63.765,46.572,81.736,81.736h18.944    L441.193,176.596z"/>
	</g>
</g>
<g>
	<g>
		<path d="M256.105,8.404C117.962,7.781,4.449,117.283,0.105,255.359c-0.117,4.571,1.604,8.997,4.779,12.288    c3.205,3.362,7.643,5.273,12.288,5.291h17.067c4.588,119.189,102.59,213.422,221.867,213.333c4.779,0,9.472,0,14.251-0.512    c13.119-0.815,26.14-2.785,38.912-5.888c95.928-23.892,164.627-108.159,168.704-206.933h17.067    c4.633,0.005,9.068-1.874,12.288-5.205c3.196-3.311,4.919-7.773,4.779-12.373C507.761,117.283,394.247,7.781,256.105,8.404z     M295.358,465.364l-4.352,0.768l-7.595,1.109l-3.84,0.512l-8.533,0.768h-2.816h-3.584v-16.384c0-4.713-3.82-8.533-8.533-8.533    c-4.713,0-8.533,3.821-8.533,8.533v17.067h-3.328h-2.901l-8.533-0.768l-4.011-0.512l-7.509-1.109l-4.437-0.853l-3.413-1.28    c2.577-23.423,23.655-40.321,47.078-37.744c19.869,2.186,35.557,17.874,37.744,37.744L295.358,465.364z M384.105,273.705    c-1,12.505-3.877,24.789-8.533,36.437c-6.598,17.233-16.845,32.836-30.037,45.739c-3.302,3.289-6.807,6.368-10.496,9.216    c-3.76,3.065-7.692,5.914-11.776,8.533c-1.109,0.683-2.389,1.451-3.669,2.048c-39.556,23.042-88.444,23.042-128,0l-3.243-1.877    c-4.082-2.622-8.013-5.471-11.776-8.533c-3.689-2.849-7.194-5.927-10.496-9.216c-12.997-13.011-23.039-28.669-29.44-45.909    c-4.674-11.732-7.551-24.103-8.533-36.693c0-2.816,0-5.888,0-9.045c-0.05-18.987,4.18-37.741,12.373-54.869    c30.273-63.882,106.601-91.128,170.484-60.855c26.701,12.653,48.202,34.154,60.855,60.855    c8.164,17.135,12.364,35.889,12.288,54.869C384.105,267.561,384.105,270.633,384.105,273.705z M456.98,188.372    c-3.133,4.884-8.533,7.841-14.336,7.851h-19.371c-6.377-0.035-12.203-3.622-15.104-9.301    C365.33,102.962,262.54,69.628,178.581,112.467c-32.045,16.351-58.104,42.409-74.454,74.454    c-2.925,5.646-8.746,9.197-15.104,9.216H69.993c-9.426,0.028-17.089-7.591-17.116-17.017c-0.007-2.429,0.504-4.832,1.5-7.047    l1.195-2.56C107.999,58.762,240.281,11.48,351.032,63.907c46.348,21.94,83.666,59.258,105.606,105.606l1.195,2.645    c2.336,5.235,1.887,11.294-1.195,16.128L456.98,188.372z"/>
	</g>
</g>
<g>
</g>
<g>
</g>
<g>
</g>
<g>
</g>
<g>
</g>
<g>
</g>
<g>
</g>
<g>
</g>
<g>
</g>
<g>
</g>
<g>
</g>
<g>
</g>
<g>
</g>
<g>
</g>
<g>
</g>
</svg>
