<?xml version="1.0" encoding="iso-8859-1"?>
<!-- Generator: Adobe Illustrator 19.0.0, SVG Export Plug-In . SVG Version: 6.00 Build 0)  -->
<svg xmlns="http://www.w3.org/2000/svg" xmlns:xlink="http://www.w3.org/1999/xlink" version="1.1" id="Layer_1" x="0px" y="0px" viewBox="0 0 512 512" style="enable-background:new 0 0 512 512;" xml:space="preserve">
<g>
	<g>
		<path d="M291.413,255.317c-2.887-5.18-6.606-9.85-11.008-13.824c-12.301-12.251-19.471-28.729-20.053-46.08    c-1.427,1.792-2.738,3.673-3.925,5.632c-10.244,16.966-9.946,38.281,0.768,54.955c2.568,3.952,1.445,9.237-2.507,11.805    c-2.696,1.751-6.147,1.839-8.928,0.227c-8.62-5.045-15.384-12.736-19.285-21.931c-14.422,16.186-12.991,40.999,3.195,55.421    c7.246,6.456,16.626,9.999,26.33,9.945c21.632,0.047,39.206-17.451,39.253-39.083c0-0.057,0-0.114,0-0.171    C295.262,266.364,293.95,260.588,291.413,255.317z"/>
	</g>
</g>
<g>
	<g>
		<path d="M256,0C114.615,0,0,114.615,0,256s114.615,256,256,256s256-114.615,256-256S397.385,0,256,0z M265.301,59.051    c0.361-4.699,4.463-8.216,9.162-7.855c0.018,0.001,0.036,0.003,0.054,0.004c99.186,8.417,177.866,87.097,186.283,186.283    c0.394,4.687-3.079,8.809-7.765,9.216h-0.768c-4.428,0.018-8.135-3.355-8.533-7.765c-7.735-90.86-79.806-162.932-170.667-170.667    C268.381,67.86,264.907,63.738,265.301,59.051z M418.987,246.784h-0.853c-4.399,0.022-8.094-3.303-8.533-7.68    c-7.783-71.966-64.577-128.831-136.533-136.704c-4.713-0.495-8.132-4.716-7.637-9.429c0.495-4.713,4.717-8.132,9.429-7.637    c80.017,8.716,143.182,71.951,151.808,151.979c0.488,4.688-2.916,8.883-7.603,9.371c-0.054,0.006-0.108,0.011-0.162,0.015    L418.987,246.784z M375.467,273.067c0.636-4.713,4.973-8.018,9.685-7.381c4.713,0.636,8.018,4.972,7.381,9.685    c-8.407,60.967-56.563,108.774-117.589,116.736h-1.109c-4.642-0.812-7.747-5.234-6.935-9.876c0.57-3.259,2.974-5.895,6.167-6.764    C326.356,368.269,368.269,326.356,375.467,273.067z M273.067,136.533c-4.713-0.636-8.018-4.972-7.381-9.685    s4.972-8.018,9.685-7.381c60.934,8.442,108.697,56.59,116.651,117.589c0.605,4.664-2.677,8.938-7.339,9.557H384    c-4.399,0.022-8.094-3.303-8.533-7.68C368.269,185.644,326.356,143.731,273.067,136.533z M137.557,240.043    c-0.56,4.275-4.222,7.461-8.533,7.424H128c-4.662-0.619-7.944-4.894-7.339-9.557c8.149-61.03,56.139-109.054,117.163-117.248    c4.713-0.636,9.049,2.669,9.685,7.381s-2.669,9.049-7.381,9.685C186.8,144.846,144.809,186.732,137.557,240.043z M239.872,103.339    l0.085,0.171c-71.9,7.857-128.676,64.633-136.533,136.533c-0.44,4.377-4.135,7.702-8.533,7.68h-1.024    c-4.687-0.492-8.088-4.691-7.596-9.378c0-0.003,0.001-0.006,0.001-0.009c8.589-80.06,71.762-143.341,151.808-152.064    c4.713-0.495,8.935,2.925,9.429,7.637S244.585,102.844,239.872,103.339z M239.872,408.661c4.688,0.487,8.093,4.682,7.606,9.369    c-0.004,0.034-0.007,0.068-0.011,0.103c-0.44,4.377-4.135,7.702-8.533,7.68h-0.853c-79.989-8.708-143.145-71.899-151.808-151.893    c-0.495-4.713,2.925-8.934,7.637-9.429c4.713-0.495,8.934,2.924,9.429,7.637C111.196,344.028,167.972,400.804,239.872,408.661z     M51.968,238.165c8.45-99.123,87.074-177.747,186.197-186.197c4.692-0.441,8.854,3.004,9.295,7.696    c0.002,0.023,0.004,0.046,0.006,0.069c0.394,4.687-3.079,8.809-7.765,9.216c-90.86,7.735-162.932,79.806-170.667,170.667    c-0.399,4.411-4.105,7.783-8.533,7.765h-0.768C55.047,246.975,51.574,242.852,51.968,238.165z M239.019,460.117l-0.085-0.085    h-0.768c-99.123-8.45-177.747-87.074-186.197-186.197c-0.401-4.713,3.095-8.858,7.808-9.259c4.713-0.401,8.858,3.095,9.259,7.808    c7.735,90.86,79.806,162.932,170.667,170.667c4.713,0.189,8.38,4.162,8.192,8.875    C247.705,456.638,243.732,460.306,239.019,460.117z M248.107,383.36c-0.306,4.713-4.375,8.285-9.088,7.979l-0.085,0.085h-1.109    c-61.024-8.194-109.013-56.218-117.163-117.248c-0.636-4.713,2.669-9.049,7.381-9.685s9.049,2.669,9.685,7.381    c7.198,53.289,49.111,95.202,102.4,102.4C244.841,374.578,248.413,378.647,248.107,383.36z M237.169,324.811    c-22.296-7.909-37.271-28.908-37.488-52.562c0.088-19.714,10.432-37.963,27.306-48.163c1.399-0.883,3.042-1.301,4.693-1.195    c1.691-23.236,15.015-44.041,35.413-55.296c4.123-2.284,9.316-0.793,11.6,3.329c1.126,2.032,1.374,4.435,0.688,6.655    c-1.309,4.323-2.055,8.798-2.219,13.312v1.877c-0.057,13.747,5.417,26.939,15.189,36.608c5.785,5.182,10.659,11.297,14.421,18.091    c6.441,13.493,7.269,28.99,2.304,43.093C298.679,319.875,266.484,335.21,237.169,324.811z M272.896,409.6h0.171    c71.9-7.857,128.676-64.633,136.533-136.533c0.495-4.713,4.716-8.132,9.429-7.637c4.713,0.495,8.132,4.717,7.637,9.429    c-8.716,80.017-71.951,143.182-151.979,151.808h-0.939c-4.713,0.236-8.724-3.394-8.96-8.107    C264.554,413.847,268.183,409.836,272.896,409.6z M460.804,274.463c-0.001,0.018-0.003,0.036-0.004,0.054    c-8.417,99.186-87.097,177.866-186.283,186.283h-0.768c-4.713,0.188-8.686-3.479-8.875-8.192    c-0.189-4.713,3.479-8.686,8.192-8.875c90.86-7.735,162.932-79.806,170.667-170.667c0.407-4.686,4.529-8.159,9.216-7.765    C457.648,265.662,461.165,269.764,460.804,274.463z"/>
	</g>
</g>
<g>
</g>
<g>
</g>
<g>
</g>
<g>
</g>
<g>
</g>
<g>
</g>
<g>
</g>
<g>
</g>
<g>
</g>
<g>
</g>
<g>
</g>
<g>
</g>
<g>
</g>
<g>
</g>
<g>
</g>
</svg>
