<?xml version="1.0" encoding="iso-8859-1"?>
<!-- Generator: Adobe Illustrator 19.0.0, SVG Export Plug-In . SVG Version: 6.00 Build 0)  -->
<svg xmlns="http://www.w3.org/2000/svg" xmlns:xlink="http://www.w3.org/1999/xlink" version="1.1" id="Layer_1" x="0px" y="0px" viewBox="0 0 512 512" style="enable-background:new 0 0 512 512;" xml:space="preserve">
<g>
	<g>
		<g>
			<path d="M469.333,21.333H42.667C19.103,21.333,0,40.436,0,64v290.133C0,377.698,19.103,396.8,42.667,396.8h153.6     c-0.92,15.163-5.677,29.845-13.824,42.667H85.333c-14.138,0-25.6,11.461-25.6,25.6s11.461,25.6,25.6,25.6h341.333     c14.138,0,25.6-11.461,25.6-25.6s-11.461-25.6-25.6-25.6h-96.939c-8.207-12.805-13.023-27.488-13.995-42.667h153.6     c23.564,0,42.667-19.103,42.667-42.667V64C512,40.436,492.898,21.333,469.333,21.333z M51.2,72.533h-8.533     c-4.713,0-8.533-3.821-8.533-8.533s3.82-8.533,8.533-8.533H51.2c4.713,0,8.533,3.82,8.533,8.533S55.913,72.533,51.2,72.533z      M76.8,64c0-4.713,3.82-8.533,8.533-8.533H204.8c4.713,0,8.533,3.82,8.533,8.533s-3.821,8.533-8.533,8.533H85.333     C80.62,72.533,76.8,68.713,76.8,64z M264.533,354.133h-17.067c-4.713,0-8.533-3.82-8.533-8.533s3.82-8.533,8.533-8.533h17.067     c4.713,0,8.533,3.82,8.533,8.533S269.246,354.133,264.533,354.133z M340.736,169.472c-1.267,3.282-4.418,5.451-7.936,5.461     h-8.533V243.2c0,4.713-3.82,8.533-8.533,8.533h-42.667c-4.713,0-8.533-3.82-8.533-8.533v-34.133h-17.067V243.2     c0,4.713-3.82,8.533-8.533,8.533h-42.667c-4.713,0-8.533-3.82-8.533-8.533v-68.267H179.2c-3.518-0.01-6.669-2.179-7.936-5.461     c-1.288-3.328-0.369-7.107,2.304-9.472l76.8-68.267c3.221-2.83,8.043-2.83,11.264,0l76.8,68.267     C341.105,162.365,342.024,166.144,340.736,169.472z"/>
			<path d="M200.448,158.976c2.684,1.508,4.347,4.346,4.352,7.424v68.267h25.6v-34.133c0-4.713,3.82-8.533,8.533-8.533h34.133     c4.713,0,8.533,3.82,8.533,8.533v34.133h25.6V166.4c0.005-3.078,1.668-5.916,4.352-7.424L256,109.568L200.448,158.976z"/>
		</g>
	</g>
</g>
<g>
</g>
<g>
</g>
<g>
</g>
<g>
</g>
<g>
</g>
<g>
</g>
<g>
</g>
<g>
</g>
<g>
</g>
<g>
</g>
<g>
</g>
<g>
</g>
<g>
</g>
<g>
</g>
<g>
</g>
</svg>
