<?xml version="1.0" encoding="iso-8859-1"?>
<!-- Generator: Adobe Illustrator 19.0.0, SVG Export Plug-In . SVG Version: 6.00 Build 0)  -->
<svg xmlns="http://www.w3.org/2000/svg" xmlns:xlink="http://www.w3.org/1999/xlink" version="1.1" id="Layer_1" x="0px" y="0px" viewBox="0 0 512 512" style="enable-background:new 0 0 512 512;" xml:space="preserve">
<g>
	<g>
		<path d="M256,165.035l-55.552,49.408c2.684,1.508,4.347,4.345,4.352,7.424v68.267h25.6V256c0-4.713,3.82-8.533,8.533-8.533h34.133    c4.713,0,8.533,3.82,8.533,8.533v34.133h25.6v-68.267c0.005-3.079,1.668-5.916,4.352-7.424L256,165.035z"/>
	</g>
</g>
<g>
	<g>
		<path d="M349.867,0H162.133c-23.564,0-42.667,19.103-42.667,42.667v426.667c0,23.564,19.103,42.667,42.667,42.667h187.733    c23.564,0,42.667-19.102,42.667-42.667V42.667C392.533,19.103,373.431,0,349.867,0z M230.4,42.667h51.2    c4.713,0,8.533,3.82,8.533,8.533s-3.82,8.533-8.533,8.533h-51.2c-4.713,0-8.533-3.82-8.533-8.533S225.687,42.667,230.4,42.667z     M256,477.867c-23.564,0-42.667-19.103-42.667-42.667s19.102-42.667,42.667-42.667s42.667,19.103,42.667,42.667    S279.564,477.867,256,477.867z M340.736,224.939c-1.267,3.282-4.418,5.451-7.936,5.461h-8.533v68.267    c0,4.713-3.82,8.533-8.533,8.533h-42.667c-4.713,0-8.533-3.82-8.533-8.533v-34.133h-17.067v34.133c0,4.713-3.82,8.533-8.533,8.533    h-42.667c-4.713,0-8.533-3.82-8.533-8.533V230.4H179.2c-4.713-0.007-8.528-3.833-8.521-8.546c0.003-2.445,1.055-4.771,2.889-6.388    l76.8-68.267c3.235-2.88,8.114-2.88,11.349,0l76.8,68.267C341.16,217.852,342.045,221.628,340.736,224.939z"/>
	</g>
</g>
<g>
	<g>
		<circle cx="256" cy="435.2" r="25.6"/>
	</g>
</g>
<g>
</g>
<g>
</g>
<g>
</g>
<g>
</g>
<g>
</g>
<g>
</g>
<g>
</g>
<g>
</g>
<g>
</g>
<g>
</g>
<g>
</g>
<g>
</g>
<g>
</g>
<g>
</g>
<g>
</g>
</svg>
