<?xml version="1.0" encoding="iso-8859-1"?>
<!-- Generator: Adobe Illustrator 19.0.0, SVG Export Plug-In . SVG Version: 6.00 Build 0)  -->
<svg xmlns="http://www.w3.org/2000/svg" xmlns:xlink="http://www.w3.org/1999/xlink" version="1.1" id="Layer_1" x="0px" y="0px" viewBox="0 0 512.199 512.199" style="enable-background:new 0 0 512.199 512.199;" xml:space="preserve">
<g>
	<g>
		<path d="M321.977,96.028c-1.537-3.71-3.8-7.076-6.656-9.899c-2.784-2.885-6.122-5.178-9.813-6.741    c-7.686-3.282-16.378-3.282-24.064,0c-3.685,1.536-7.023,3.8-9.813,6.656c-3.175,3.471-5.742,7.452-7.595,11.776    c-1.791,4.359-6.776,6.442-11.136,4.651c-2.109-0.867-3.784-2.541-4.651-4.651c-1.835-4.288-4.373-8.239-7.509-11.691    c-2.915-2.904-6.402-5.171-10.24-6.656c-7.686-3.282-16.378-3.282-24.064,0c-3.684,1.538-7.021,3.802-9.813,6.656    c-2.858,2.821-5.121,6.187-6.656,9.899c-1.523,3.853-2.249,7.976-2.133,12.117c0.001,3.946,0.754,7.856,2.219,11.52l0.597,1.024    l65.451,73.643l66.048-74.667c1.465-3.664,2.218-7.574,2.219-11.52C324.404,103.986,323.591,99.863,321.977,96.028z"/>
	</g>
</g>
<g>
	<g>
		<path d="M436.153,297.756l-102.4-68.267l1.28-0.853c55.577-43.688,65.215-124.158,21.527-179.735S232.402-16.313,176.825,27.375    s-65.215,124.158-21.527,179.735c6.294,8.006,13.52,15.233,21.527,21.527l1.195,0.939l-102.4,68.267    c-4.606,3.237-7.32,8.536-7.253,14.165v12.459c0,9.426,7.641,17.067,17.067,17.067v153.6c0,9.426,7.641,17.067,17.067,17.067    h17.067c9.426,0,17.067-7.641,17.067-17.067v-102.4h59.733v102.4c0,9.426,7.641,17.067,17.067,17.067H409.7    c9.426,0,17.067-7.641,17.067-17.067v-153.6c9.426,0,17.067-7.641,17.067-17.067v-12.459    C443.832,306.268,440.947,300.913,436.153,297.756z M177.337,131.527c-0.388-0.449-0.731-0.935-1.024-1.451l-1.28-1.877    l-0.427-0.939c-7.635-18.095-3.553-39.011,10.325-52.907c4.354-4.423,9.547-7.933,15.275-10.325    c11.95-5.035,25.426-5.035,37.376,0c5.729,2.39,10.922,5.9,15.275,10.325c1.186,1.182,2.297,2.436,3.328,3.755    c1.055-1.351,2.195-2.634,3.413-3.84c4.353-4.425,9.546-7.935,15.275-10.325c11.95-5.035,25.426-5.035,37.376,0    c11.525,4.899,20.701,14.075,25.6,25.6c5.054,12.005,5.054,25.541,0,37.547l-0.683,1.109l-1.28,2.219    c-0.293,0.516-0.636,1.002-1.024,1.451l-69.12,77.739c-4.72,5.326-12.864,5.816-18.19,1.096c-0.387-0.343-0.753-0.709-1.096-1.096    L177.337,131.527z M135.951,336.242v0.085c-0.435,1.033-1.041,1.985-1.792,2.816c-2.454,2.421-6.124,3.128-9.301,1.792    c-1.034-0.432-1.987-1.038-2.816-1.792c-1.619-1.631-2.511-3.846-2.475-6.144c-0.013-2.268,0.877-4.448,2.475-6.059    c2.454-2.421,6.124-3.128,9.301-1.792c1.034,0.432,1.987,1.038,2.816,1.792c1.559,1.635,2.443,3.799,2.475,6.059    C136.662,334.118,136.428,335.229,135.951,336.242z M367.033,341.532H153.7c-4.713,0-8.533-3.821-8.533-8.533    c0-4.713,3.821-8.533,8.533-8.533h213.333c4.713,0,8.533,3.821,8.533,8.533C375.567,337.712,371.746,341.532,367.033,341.532z"/>
	</g>
</g>
<g>
</g>
<g>
</g>
<g>
</g>
<g>
</g>
<g>
</g>
<g>
</g>
<g>
</g>
<g>
</g>
<g>
</g>
<g>
</g>
<g>
</g>
<g>
</g>
<g>
</g>
<g>
</g>
<g>
</g>
</svg>
