<?xml version="1.0" encoding="iso-8859-1"?>
<!-- Generator: Adobe Illustrator 19.0.0, SVG Export Plug-In . SVG Version: 6.00 Build 0)  -->
<svg xmlns="http://www.w3.org/2000/svg" xmlns:xlink="http://www.w3.org/1999/xlink" version="1.1" id="Layer_1" x="0px" y="0px" viewBox="0 0 512 512" style="enable-background:new 0 0 512 512;" xml:space="preserve">
<g>
	<g>
		<g>
			<path d="M293.061,132.91c-0.09-0.162-0.181-0.322-0.273-0.482c-10.912-19.161-34.9-27.007-55.195-17.466     c-8.996,4.229-16.234,11.466-20.462,20.462c-2.683,5.681-4.053,11.893-4.011,18.176c0.019,11.728,4.864,22.931,13.397,30.976     c0.921,0.877,1.89,1.703,2.901,2.475c1.024,0.853,2.133,1.621,3.499,2.56l1.963,1.024c12.92,7.419,28.808,7.419,41.728,0     l2.475-1.451c1.191-0.749,2.331-1.575,3.413-2.475c1.107-0.813,2.135-1.727,3.072-2.731c8.253-7.949,12.907-18.92,12.885-30.379     c0.034-6.291-1.367-12.507-4.096-18.176C293.953,134.564,293.515,133.731,293.061,132.91z M264.32,170.667     c0,4.713-3.82,8.533-8.533,8.533s-8.533-3.82-8.533-8.533v-34.133c0-4.713,3.82-8.533,8.533-8.533s8.533,3.82,8.533,8.533     V170.667z"/>
			<path d="M260.053,0h-8.533C159.267,3.677,86.092,79.028,85.12,171.349c0.348,41.072,15.497,80.641,42.667,111.445     c3.243,3.755,6.571,7.339,9.984,10.923s8.533,8.533,11.776,12.971c6.751,8.079,12.911,16.635,18.432,25.6     c6.64,10.724,12.023,22.177,16.043,34.133c2.463,8.656,3.642,17.626,3.499,26.624c0.277,9.225,7.837,16.559,17.067,16.555v17.067     c0,9.426,7.641,17.067,17.067,17.067V460.8c0.037,6.061,3.285,11.647,8.533,14.677v19.456c0,9.426,7.641,17.067,17.067,17.067     h17.067c9.426,0,17.067-7.641,17.067-17.067v-19.456c5.249-3.03,8.497-8.617,8.533-14.677v-17.067     c9.426,0,17.067-7.641,17.067-17.067V409.6c9.229,0.004,16.79-7.33,17.067-16.555c-0.063-9.079,1.26-18.115,3.925-26.795     c3.946-11.985,9.333-23.447,16.043-34.133c5.492-8.984,11.653-17.542,18.432-25.6c3.669-4.437,7.595-8.533,11.776-13.056     s6.741-7.083,9.984-10.837c27.169-30.804,42.318-70.373,42.667-111.445C425.807,78.765,352.408,3.452,260.053,0z      M204.587,301.483V281.6c0-4.713,3.821-8.533,8.533-8.533c4.713,0,8.533,3.821,8.533,8.533v19.968     c0,17.067,21.163,30.464,21.419,30.635c2.592,1.537,4.181,4.326,4.181,7.339v52.992h-17.067v-48.555     C221.653,338.005,204.587,322.816,204.587,301.483z M264.32,494.933h-17.067v-17.067h17.067V494.933z M272.853,460.8H238.72     v-17.067h34.133V460.8z M289.92,426.667h-68.267V409.6h68.267V426.667z M306.987,301.483c0,21.333-17.067,36.523-25.6,42.667     v48.384H264.32v-53.077c0.001-3.013,1.59-5.802,4.181-7.339c0,0,21.419-13.056,21.419-30.635V281.6     c0-4.713,3.82-8.533,8.533-8.533s8.533,3.821,8.533,8.533V301.483z M297.6,196.267c-1.422,1.488-2.964,2.858-4.608,4.096     c-1.792,1.365-3.328,2.475-5.035,3.584l-2.731,1.621c-8.934,5.194-19.106,7.877-29.44,7.765     c-10.354,0.094-20.536-2.65-29.44-7.936l-2.304-1.28c-1.766-1.107-3.475-2.303-5.12-3.584c-1.574-1.166-3.057-2.45-4.437-3.84     c-11.758-11.253-18.415-26.818-18.432-43.093c-0.091-8.86,1.865-17.621,5.717-25.6c14.084-29.832,49.686-42.598,79.518-28.514     c12.523,5.912,22.602,15.992,28.514,28.514C320.713,151.029,315.813,178.444,297.6,196.267z"/>
		</g>
	</g>
</g>
<g>
</g>
<g>
</g>
<g>
</g>
<g>
</g>
<g>
</g>
<g>
</g>
<g>
</g>
<g>
</g>
<g>
</g>
<g>
</g>
<g>
</g>
<g>
</g>
<g>
</g>
<g>
</g>
<g>
</g>
</svg>
