<?xml version="1.0" encoding="iso-8859-1"?>
<!-- Generator: Adobe Illustrator 19.0.0, SVG Export Plug-In . SVG Version: 6.00 Build 0)  -->
<svg xmlns="http://www.w3.org/2000/svg" xmlns:xlink="http://www.w3.org/1999/xlink" version="1.1" id="Layer_1" x="0px" y="0px" viewBox="0 0 512 512" style="enable-background:new 0 0 512 512;" xml:space="preserve">
<g>
	<g>
		<circle cx="140.8" cy="354.131" r="12.8"/>
	</g>
</g>
<g>
	<g>
		<path d="M221.867,110.931c-4.713,0-8.533,3.82-8.533,8.533v51.2c0,4.713,3.82,8.533,8.533,8.533s8.533-3.82,8.533-8.533v-51.2    C230.4,114.751,226.58,110.931,221.867,110.931z"/>
	</g>
</g>
<g>
	<g>
		<circle cx="256" cy="349.864" r="25.6"/>
	</g>
</g>
<g>
	<g>
		<path d="M486.4,230.398H351.147c10.467-11.595,18.711-25.016,24.32-39.595c4.655-11.649,7.532-23.932,8.533-36.437    c0-3.072,0-6.144,0-9.301c0.056-18.988-4.174-37.743-12.373-54.869C341.304,26.336,264.955-0.85,201.096,29.472    c-26.629,12.645-48.078,34.093-60.722,60.722c-8.197,17.127-12.426,35.882-12.373,54.869c0,3.157,0,6.229,0,9.045    c0.984,12.591,3.86,24.961,8.533,36.693c5.607,14.579,13.852,28.001,24.32,39.595H25.6c-14.138,0-25.6,11.461-25.6,25.6v179.2    c0,14.138,11.461,25.6,25.6,25.6h8.533v8.533c0,14.138,11.461,25.6,25.6,25.6H460.8c14.138,0,25.6-11.461,25.6-25.6v-8.533    c14.138,0,25.6-11.462,25.6-25.6v-179.2C512,241.859,500.539,230.398,486.4,230.398z M264.533,119.464    c0-14.138,11.462-25.6,25.6-25.6s25.6,11.461,25.6,25.6v51.2c0,14.138-11.461,25.6-25.6,25.6s-25.6-11.462-25.6-25.6V119.464z     M196.267,119.464c0-14.138,11.462-25.6,25.6-25.6s25.6,11.461,25.6,25.6v51.2c0,14.138-11.461,25.6-25.6,25.6    s-25.6-11.462-25.6-25.6V119.464z M42.667,264.531H51.2c4.713,0,8.533,3.82,8.533,8.533s-3.82,8.533-8.533,8.533h-8.533    c-4.713,0-8.533-3.82-8.533-8.533S37.954,264.531,42.667,264.531z M64.768,477.864h-5.035c-4.713,0-8.533-3.82-8.533-8.533v-8.533    h31.061L64.768,477.864z M64,383.998c-16.495,0-29.867-13.372-29.867-29.867S47.505,324.264,64,324.264    c16.495,0,29.867,13.372,29.867,29.867S80.495,383.998,64,383.998z M108.459,477.864H89.173l17.067-17.067h19.2L108.459,477.864z     M152.064,477.864h-19.2l17.067-17.067h19.2L152.064,477.864z M140.8,383.998c-16.495,0-29.867-13.372-29.867-29.867    s13.372-29.867,29.867-29.867c16.495,0,29.867,13.372,29.867,29.867S157.295,383.998,140.8,383.998z M85.333,281.598    c-4.713,0-8.533-3.82-8.533-8.533s3.82-8.533,8.533-8.533h85.333c4.713,0,8.533,3.82,8.533,8.533s-3.82,8.533-8.533,8.533H85.333z     M195.669,477.864h-19.2l17.067-17.067h19.797L195.669,477.864z M238.933,477.864h-18.859l17.067-17.067h19.2L238.933,477.864z     M256,409.598c-4.713,0-8.533-3.82-8.533-8.533v-9.387c-16.762-3.419-29.862-16.518-33.28-33.28H204.8    c-4.713,0-8.533-3.82-8.533-8.533s3.82-8.533,8.533-8.533h9.387c3.418-16.762,16.518-29.862,33.28-33.28v-9.387    c0-4.713,3.82-8.533,8.533-8.533s8.533,3.82,8.533,8.533v9.387c16.762,3.419,29.862,16.518,33.28,33.28h9.387    c4.713,0,8.533,3.82,8.533,8.533s-3.82,8.533-8.533,8.533h-9.387c-3.418,16.762-16.518,29.862-33.28,33.28v9.387    C264.533,405.777,260.713,409.598,256,409.598z M282.539,477.864h-18.773l17.067-17.067h19.2L282.539,477.864z M326.656,477.864    H307.2l17.067-17.067h19.2L326.656,477.864z M349.867,324.264c0-4.713,3.82-8.533,8.533-8.533c1.846,0,3.643,0.599,5.12,1.707    l34.133,25.6c3.77,2.828,4.534,8.176,1.707,11.947c-0.485,0.647-1.06,1.221-1.707,1.707l-34.133,25.6    c-3.77,2.828-9.119,2.064-11.947-1.707c-1.108-1.477-1.707-3.274-1.707-5.12V324.264z M370.261,477.864h-19.285l17.067-17.067    h19.2L370.261,477.864z M413.867,477.864h-19.2l17.067-17.067h19.2L413.867,477.864z M426.667,366.931v-34.133    c0-4.713,3.82-8.533,8.533-8.533s8.533,3.82,8.533,8.533v34.133c0,4.713-3.82,8.533-8.533,8.533S426.667,371.644,426.667,366.931z     M469.333,469.331c0,4.713-3.82,8.533-8.533,8.533h-22.528l17.067-17.067h13.995V469.331z M477.867,366.931    c0,4.713-3.82,8.533-8.533,8.533s-8.533-3.82-8.533-8.533v-34.133c0-4.713,3.82-8.533,8.533-8.533s8.533,3.82,8.533,8.533V366.931    z"/>
	</g>
</g>
<g>
	<g>
		<circle cx="64" cy="354.131" r="12.8"/>
	</g>
</g>
<g>
	<g>
		<path d="M290.133,110.931c-4.713,0-8.533,3.82-8.533,8.533v51.2c0,4.713,3.82,8.533,8.533,8.533s8.533-3.82,8.533-8.533v-51.2    C298.667,114.751,294.846,110.931,290.133,110.931z"/>
	</g>
</g>
<g>
	<g>
		<polygon points="366.933,341.331 366.933,358.398 378.283,349.864   "/>
	</g>
</g>
<g>
</g>
<g>
</g>
<g>
</g>
<g>
</g>
<g>
</g>
<g>
</g>
<g>
</g>
<g>
</g>
<g>
</g>
<g>
</g>
<g>
</g>
<g>
</g>
<g>
</g>
<g>
</g>
<g>
</g>
</svg>
