<?xml version="1.0" encoding="iso-8859-1"?>
<!-- Generator: Adobe Illustrator 19.0.0, SVG Export Plug-In . SVG Version: 6.00 Build 0)  -->
<svg xmlns="http://www.w3.org/2000/svg" xmlns:xlink="http://www.w3.org/1999/xlink" version="1.1" id="Layer_1" x="0px" y="0px" viewBox="0 0 512 512" style="enable-background:new 0 0 512 512;" xml:space="preserve">
<g>
	<g>
		<polygon points="366.933,341.376 366.933,358.443 378.283,349.909   "/>
	</g>
</g>
<g>
	<g>
		<circle cx="256" cy="349.909" r="25.6"/>
	</g>
</g>
<g>
	<g>
		<circle cx="64" cy="354.176" r="12.8"/>
	</g>
</g>
<g>
	<g>
		<circle cx="140.8" cy="354.176" r="12.8"/>
	</g>
</g>
<g>
	<g>
		<path d="M486.4,230.443H351.147c10.468-11.593,18.713-25.015,24.32-39.595c4.655-11.649,7.532-23.932,8.533-36.437    c0-3.072,0-6.144,0-9.301c0.05-18.987-4.179-37.741-12.373-54.869C341.354,26.357,265.025-0.888,201.143,29.385    c-26.701,12.653-48.202,34.154-60.855,60.855c-8.164,17.135-12.364,35.889-12.288,54.869c0,3.157,0,6.229,0,9.045    c0.982,12.591,3.859,24.961,8.533,36.693c5.607,14.579,13.852,28.001,24.32,39.595H25.6c-14.138,0-25.6,11.461-25.6,25.6v179.2    c0,14.138,11.461,25.6,25.6,25.6h8.533v8.533c0,14.138,11.461,25.6,25.6,25.6H460.8c14.138,0,25.6-11.461,25.6-25.6v-8.533    c14.138,0,25.6-11.462,25.6-25.6v-179.2C512,241.904,500.539,230.443,486.4,230.443z M196.267,148.011c0-0.768,0-1.707,0-2.645    c-0.079-8.941,1.876-17.782,5.717-25.856c14.084-29.832,49.686-42.598,79.518-28.514c12.523,5.912,22.602,15.992,28.514,28.514    c3.809,7.994,5.764,16.745,5.717,25.6c0,1.28,0,2.219,0,3.157v1.707c-0.416,5.703-1.682,11.311-3.755,16.64    c-3.171,7.998-8.032,15.217-14.251,21.163c-1.421,1.432-2.931,2.771-4.523,4.011c-1.792,1.365-3.328,2.475-5.035,3.584    l-0.939,0.512l-1.792,1.024c-18.244,10.533-40.721,10.533-58.965,0l-2.219-1.28c-1.799-1.131-3.536-2.355-5.205-3.669    c-1.562-1.181-3.044-2.464-4.437-3.84c-6.37-6.137-11.321-13.593-14.507-21.845c-2.093-5.268-3.387-10.819-3.84-16.469V148.011z     M42.667,264.576H51.2c4.713,0,8.533,3.82,8.533,8.533s-3.82,8.533-8.533,8.533h-8.533c-4.713,0-8.533-3.82-8.533-8.533    S37.954,264.576,42.667,264.576z M64.768,477.909h-5.035c-4.713,0-8.533-3.82-8.533-8.533v-8.533h31.061L64.768,477.909z     M64,384.043c-16.495,0-29.867-13.372-29.867-29.867S47.505,324.309,64,324.309c16.495,0,29.867,13.372,29.867,29.867    S80.495,384.043,64,384.043z M108.459,477.909H89.173l17.067-17.067h19.2L108.459,477.909z M152.064,477.909h-19.2l17.067-17.067    h19.2L152.064,477.909z M140.8,384.043c-16.495,0-29.867-13.372-29.867-29.867s13.372-29.867,29.867-29.867    c16.495,0,29.867,13.372,29.867,29.867S157.295,384.043,140.8,384.043z M85.333,281.643c-4.713,0-8.533-3.82-8.533-8.533    s3.82-8.533,8.533-8.533h85.333c4.713,0,8.533,3.82,8.533,8.533s-3.82,8.533-8.533,8.533H85.333z M195.669,477.909h-19.2    l17.067-17.067h19.797L195.669,477.909z M238.933,477.909h-18.859l17.067-17.067h19.2L238.933,477.909z M256,409.643    c-4.713,0-8.533-3.82-8.533-8.533v-9.387c-16.762-3.419-29.862-16.518-33.28-33.28H204.8c-4.713,0-8.533-3.82-8.533-8.533    s3.82-8.533,8.533-8.533h9.387c3.418-16.762,16.518-29.862,33.28-33.28v-9.387c0-4.713,3.82-8.533,8.533-8.533    s8.533,3.82,8.533,8.533v9.387c16.762,3.419,29.862,16.518,33.28,33.28h9.387c4.713,0,8.533,3.82,8.533,8.533    s-3.82,8.533-8.533,8.533h-9.387c-3.418,16.762-16.518,29.862-33.28,33.28v9.387C264.533,405.822,260.713,409.643,256,409.643z     M282.539,477.909h-18.773l17.067-17.067h19.2L282.539,477.909z M326.656,477.909H307.2l17.067-17.067h19.2L326.656,477.909z     M349.867,324.309c0-4.713,3.82-8.533,8.533-8.533c1.846,0,3.643,0.599,5.12,1.707l34.133,25.6    c3.77,2.828,4.534,8.176,1.707,11.947c-0.485,0.647-1.06,1.221-1.707,1.707l-34.133,25.6c-3.77,2.828-9.119,2.064-11.947-1.707    c-1.108-1.477-1.707-3.274-1.707-5.12V324.309z M370.261,477.909h-19.285l17.067-17.067h19.2L370.261,477.909z M413.867,477.909    h-19.2l17.067-17.067h19.2L413.867,477.909z M426.667,366.976v-34.133c0-4.713,3.82-8.533,8.533-8.533s8.533,3.82,8.533,8.533    v34.133c0,4.713-3.82,8.533-8.533,8.533S426.667,371.689,426.667,366.976z M469.333,469.376c0,4.713-3.82,8.533-8.533,8.533    h-22.528l17.067-17.067h13.995V469.376z M477.867,366.976c0,4.713-3.82,8.533-8.533,8.533s-8.533-3.82-8.533-8.533v-34.133    c0-4.713,3.82-8.533,8.533-8.533s8.533,3.82,8.533,8.533V366.976z"/>
	</g>
</g>
<g>
	<g>
		<path d="M294.571,126.507c-10.024-21.326-35.439-30.487-56.764-20.462c-8.996,4.229-16.234,11.466-20.462,20.462    c-2.755,5.808-4.128,12.175-4.011,18.603c0,0.768,0,1.109,0,1.451v2.048c0.278,3.973,1.141,7.884,2.56,11.605    c2.336,5.97,5.947,11.357,10.581,15.787c0.91,0.916,1.879,1.771,2.901,2.56c1.109,0.853,2.133,1.621,3.584,2.475l1.963,1.109    c12.92,7.419,28.808,7.419,41.728,0l1.963-1.195l3.413-2.475c1.081-0.843,2.108-1.756,3.072-2.731    c4.411-4.279,7.846-9.46,10.069-15.189c1.771-3.75,2.951-7.751,3.499-11.861v-1.963c0.037-0.54,0.037-1.082,0-1.621    C298.721,138.679,297.32,132.32,294.571,126.507z M263.68,148.352c-0.432,1.034-1.038,1.987-1.792,2.816    c-1.592,1.52-3.688,2.401-5.888,2.475c-2.268,0.013-4.448-0.877-6.059-2.475c-0.754-0.829-1.36-1.782-1.792-2.816    c-0.913-2.065-0.913-4.42,0-6.485h-0.171c0.406-1.047,1.015-2.004,1.792-2.816c3.319-3.346,8.722-3.368,12.068-0.049    c0.017,0.016,0.033,0.033,0.049,0.049c0.777,0.812,1.386,1.769,1.792,2.816C264.593,143.932,264.593,146.286,263.68,148.352z"/>
	</g>
</g>
<g>
</g>
<g>
</g>
<g>
</g>
<g>
</g>
<g>
</g>
<g>
</g>
<g>
</g>
<g>
</g>
<g>
</g>
<g>
</g>
<g>
</g>
<g>
</g>
<g>
</g>
<g>
</g>
<g>
</g>
</svg>
