<?xml version="1.0" encoding="iso-8859-1"?>
<!-- Generator: Adobe Illustrator 19.0.0, SVG Export Plug-In . SVG Version: 6.00 Build 0)  -->
<svg xmlns="http://www.w3.org/2000/svg" xmlns:xlink="http://www.w3.org/1999/xlink" version="1.1" id="Layer_1" x="0px" y="0px" viewBox="0 0 512 512" style="enable-background:new 0 0 512 512;" xml:space="preserve">
<g>
	<g>
		<polygon points="366.933,341.376 366.933,358.443 378.283,349.909   "/>
	</g>
</g>
<g>
	<g>
		<circle cx="140.8" cy="354.176" r="12.8"/>
	</g>
</g>
<g>
	<g>
		<circle cx="256" cy="145.109" r="25.6"/>
	</g>
</g>
<g>
	<g>
		<circle cx="64" cy="354.176" r="12.8"/>
	</g>
</g>
<g>
	<g>
		<path d="M486.4,230.443H351.147c10.468-11.593,18.713-25.015,24.32-39.595c4.655-11.649,7.532-23.932,8.533-36.437    c0-3.072,0-6.144,0-9.301c0.05-18.987-4.179-37.741-12.373-54.869C341.354,26.357,265.025-0.888,201.143,29.385    c-26.701,12.653-48.202,34.154-60.855,60.855c-8.164,17.135-12.364,35.889-12.288,54.869c0,3.157,0,6.229,0,9.045    c0.982,12.591,3.859,24.961,8.533,36.693c5.609,14.578,13.853,28,24.32,39.595H25.6c-14.138,0-25.6,11.461-25.6,25.6v179.2    c0,14.138,11.461,25.6,25.6,25.6h8.533v8.533c0,14.138,11.461,25.6,25.6,25.6H460.8c14.138,0,25.6-11.461,25.6-25.6v-8.533    c14.138,0,25.6-11.462,25.6-25.6v-179.2C512,241.904,500.539,230.443,486.4,230.443z M232.146,109.654    c4.642-3.101,9.847-5.262,15.321-6.358V61.312c0-4.713,3.82-8.533,8.533-8.533s8.533,3.82,8.533,8.533v41.984    c23.084,4.734,37.959,27.285,33.225,50.369c-1.091,5.318-3.186,10.379-6.174,14.911l18.688,18.688    c3.58,3.065,3.996,8.452,0.931,12.032s-8.452,3.996-12.032,0.931c-0.334-0.286-0.645-0.597-0.931-0.931l-18.688-18.688    c-19.593,13.091-46.089,7.82-59.18-11.774C207.281,149.241,212.552,122.745,232.146,109.654z M42.667,264.576H51.2    c4.713,0,8.533,3.82,8.533,8.533s-3.82,8.533-8.533,8.533h-8.533c-4.713,0-8.533-3.82-8.533-8.533S37.954,264.576,42.667,264.576z     M64.768,477.909h-5.035c-4.713,0-8.533-3.82-8.533-8.533v-8.533h31.061L64.768,477.909z M64,384.043    c-16.495,0-29.867-13.372-29.867-29.867S47.505,324.309,64,324.309c16.495,0,29.867,13.372,29.867,29.867    S80.495,384.043,64,384.043z M108.459,477.909H89.173l17.067-17.067h19.2L108.459,477.909z M152.064,477.909h-19.2l17.067-17.067    h19.2L152.064,477.909z M140.8,384.043c-16.495,0-29.867-13.372-29.867-29.867s13.372-29.867,29.867-29.867    c16.495,0,29.867,13.372,29.867,29.867S157.295,384.043,140.8,384.043z M85.333,281.643c-4.713,0-8.533-3.82-8.533-8.533    s3.82-8.533,8.533-8.533h85.333c4.713,0,8.533,3.82,8.533,8.533s-3.82,8.533-8.533,8.533H85.333z M195.669,477.909h-19.2    l17.067-17.067h19.797L195.669,477.909z M238.933,477.909h-18.859l17.067-17.067h19.2L238.933,477.909z M256,409.643    c-4.713,0-8.533-3.82-8.533-8.533v-9.387c-16.762-3.419-29.862-16.518-33.28-33.28H204.8c-4.713,0-8.533-3.82-8.533-8.533    s3.82-8.533,8.533-8.533h9.387c3.418-16.762,16.518-29.862,33.28-33.28v-9.387c0-4.713,3.82-8.533,8.533-8.533    s8.533,3.82,8.533,8.533v9.387c16.762,3.419,29.862,16.518,33.28,33.28h9.387c4.713,0,8.533,3.82,8.533,8.533    s-3.82,8.533-8.533,8.533h-9.387c-3.418,16.762-16.518,29.862-33.28,33.28v9.387C264.533,405.822,260.713,409.643,256,409.643z     M282.539,477.909h-18.773l17.067-17.067h19.2L282.539,477.909z M326.656,477.909H307.2l17.067-17.067h19.2L326.656,477.909z     M349.867,324.309c0-4.713,3.82-8.533,8.533-8.533c1.846,0,3.643,0.599,5.12,1.707l34.133,25.6    c3.77,2.828,4.534,8.176,1.707,11.947c-0.485,0.647-1.06,1.221-1.707,1.707l-34.133,25.6c-3.77,2.828-9.119,2.064-11.947-1.707    c-1.108-1.477-1.707-3.274-1.707-5.12V324.309z M370.261,477.909h-19.285l17.067-17.067h19.2L370.261,477.909z M413.867,477.909    h-19.2l17.067-17.067h19.2L413.867,477.909z M426.667,366.976v-34.133c0-4.713,3.82-8.533,8.533-8.533s8.533,3.82,8.533,8.533    v34.133c0,4.713-3.82,8.533-8.533,8.533S426.667,371.689,426.667,366.976z M469.333,469.376c0,4.713-3.82,8.533-8.533,8.533    h-22.528l17.067-17.067h13.995V469.376z M477.867,366.976c0,4.713-3.82,8.533-8.533,8.533s-8.533-3.82-8.533-8.533v-34.133    c0-4.713,3.82-8.533,8.533-8.533s8.533,3.82,8.533,8.533V366.976z"/>
	</g>
</g>
<g>
	<g>
		<circle cx="256" cy="349.909" r="25.6"/>
	</g>
</g>
<g>
</g>
<g>
</g>
<g>
</g>
<g>
</g>
<g>
</g>
<g>
</g>
<g>
</g>
<g>
</g>
<g>
</g>
<g>
</g>
<g>
</g>
<g>
</g>
<g>
</g>
<g>
</g>
<g>
</g>
</svg>
