<?xml version="1.0" encoding="iso-8859-1"?>
<!-- Generator: Adobe Illustrator 19.0.0, SVG Export Plug-In . SVG Version: 6.00 Build 0)  -->
<svg xmlns="http://www.w3.org/2000/svg" xmlns:xlink="http://www.w3.org/1999/xlink" version="1.1" id="Layer_1" x="0px" y="0px" viewBox="0 0 512.085 512.085" style="enable-background:new 0 0 512.085 512.085;" xml:space="preserve">
<g>
	<g>
		<path d="M85.376,196.352h-8.533c-4.713,0-8.533,3.82-8.533,8.533s3.82,8.533,8.533,8.533h8.533c4.713,0,8.533-3.821,8.533-8.533    S90.089,196.352,85.376,196.352z"/>
	</g>
</g>
<g>
	<g>
		<path d="M477.909,128.085h-93.867c0.05-18.987-4.179-37.741-12.373-54.869C341.396,9.333,265.068-17.912,201.186,12.361    c-26.701,12.653-48.202,34.154-60.855,60.855c-8.164,17.135-12.364,35.889-12.288,54.869H34.176    c-18.851,0-34.133,15.282-34.133,34.133v281.6c0,18.851,15.282,34.133,34.133,34.133h177.835    c-2.799,10.863-13.064,18.091-24.235,17.067h-68.267c-4.713,0-8.533,3.82-8.533,8.533s3.82,8.533,8.533,8.533h273.067    c4.713,0,8.533-3.82,8.533-8.533s-3.821-8.533-8.533-8.533h-68.267c-11.171,1.025-21.435-6.204-24.235-17.067h177.835    c18.851,0,34.133-15.282,34.133-34.133v-281.6C512.043,143.367,496.761,128.085,477.909,128.085z M232.188,92.63    c4.642-3.101,9.847-5.262,15.321-6.358V44.288c0-4.713,3.82-8.533,8.533-8.533s8.533,3.821,8.533,8.533v41.984    c23.084,4.734,37.959,27.285,33.225,50.369c-1.091,5.318-3.186,10.379-6.174,14.911l18.688,18.688    c3.58,3.065,3.996,8.452,0.931,12.032c-3.065,3.58-8.452,3.996-12.032,0.931c-0.334-0.286-0.645-0.597-0.931-0.931l-18.688-18.688    c-19.593,13.091-46.089,7.82-59.18-11.774C207.324,132.217,212.595,105.721,232.188,92.63z M222.592,495.018    c3.444-5.167,5.823-10.969,6.997-17.067h52.907c1.174,6.098,3.553,11.9,6.997,17.067H222.592z M460.843,401.152h-409.6V179.285    h87.467c0.597,1.365,1.365,2.645,1.963,3.925c0.597,1.28,1.621,3.328,2.475,4.949s2.56,4.523,3.925,6.741l0.853,1.451h-28.416    c-4.713,0-8.533,3.82-8.533,8.533s3.82,8.533,8.533,8.533h41.387c1.792,2.048,3.669,4.096,5.632,6.059    c3.302,3.289,6.807,6.367,10.496,9.216c3.763,3.061,7.695,5.91,11.776,8.533l3.243,1.877c39.556,23.042,88.444,23.042,128,0    c1.258-0.649,2.483-1.361,3.669-2.133c4.109-2.622,8.069-5.471,11.861-8.533c3.691-2.846,7.197-5.924,10.496-9.216    c3.002-3.072,5.85-6.29,8.533-9.643c0.939-1.109,1.792-2.389,2.731-3.499c0.939-1.109,3.499-4.523,5.12-6.912    c1.621-2.389,1.792-2.901,2.731-4.437c0.939-1.536,2.731-4.523,4.011-6.827c1.28-2.304,1.621-3.243,2.389-4.864    s1.365-2.645,1.963-4.011h87.296V401.152z"/>
	</g>
</g>
<g>
	<g>
		<circle cx="256.043" cy="128.085" r="25.6"/>
	</g>
</g>
<g>
</g>
<g>
</g>
<g>
</g>
<g>
</g>
<g>
</g>
<g>
</g>
<g>
</g>
<g>
</g>
<g>
</g>
<g>
</g>
<g>
</g>
<g>
</g>
<g>
</g>
<g>
</g>
<g>
</g>
</svg>
