<?xml version="1.0" encoding="iso-8859-1"?>
<!-- Generator: Adobe Illustrator 19.0.0, SVG Export Plug-In . SVG Version: 6.00 Build 0)  -->
<svg xmlns="http://www.w3.org/2000/svg" xmlns:xlink="http://www.w3.org/1999/xlink" version="1.1" id="Layer_1" x="0px" y="0px" viewBox="0 0 512.085 512.085" style="enable-background:new 0 0 512.085 512.085;" xml:space="preserve">
<g>
	<g>
		<path d="M85.376,196.352h-8.533c-4.713,0-8.533,3.82-8.533,8.533s3.82,8.533,8.533,8.533h8.533c4.713,0,8.533-3.821,8.533-8.533    S90.089,196.352,85.376,196.352z"/>
	</g>
</g>
<g>
	<g>
		<path d="M477.909,128.085h-93.867c0.05-18.987-4.179-37.741-12.373-54.869C341.396,9.333,265.068-17.912,201.186,12.361    c-26.701,12.653-48.202,34.154-60.855,60.855c-8.164,17.135-12.364,35.889-12.288,54.869H34.176    c-18.851,0-34.133,15.282-34.133,34.133v281.6c0,18.851,15.282,34.133,34.133,34.133h177.835    c-2.799,10.863-13.064,18.091-24.235,17.067h-68.267c-4.713,0-8.533,3.82-8.533,8.533s3.82,8.533,8.533,8.533h273.067    c4.713,0,8.533-3.82,8.533-8.533s-3.821-8.533-8.533-8.533h-68.267c-11.171,1.025-21.435-6.204-24.235-17.067h177.835    c18.851,0,34.133-15.282,34.133-34.133v-281.6C512.043,143.367,496.761,128.085,477.909,128.085z M202.027,102.485    c14.084-29.832,49.686-42.599,79.518-28.514c12.523,5.912,22.602,15.992,28.514,28.514c10.91,23.029,6.01,50.443-12.203,68.267    c-1.443,1.44-2.983,2.78-4.608,4.011c-1.792,1.365-3.413,2.56-5.035,3.584l-2.731,1.621c-18.222,10.5-40.658,10.5-58.88,0    l-2.304-1.28c-1.769-1.134-3.478-2.359-5.12-3.669c-1.532-1.185-2.986-2.467-4.352-3.84    c-11.84-11.204-18.539-26.793-18.517-43.093C196.254,119.229,198.209,110.476,202.027,102.485z M222.677,495.018    c3.444-5.167,5.823-10.969,6.997-17.067h52.821c1.174,6.098,3.553,11.9,6.997,17.067H222.677z M460.843,401.152h-409.6V179.285    h87.467c0.597,1.365,1.365,2.645,1.963,3.925c0.597,1.28,1.621,3.328,2.475,4.949s2.56,4.523,3.925,6.741l0.853,1.451h-28.416    c-4.713,0-8.533,3.82-8.533,8.533s3.82,8.533,8.533,8.533h41.387c1.792,2.048,3.669,4.096,5.632,6.059    c3.302,3.289,6.807,6.367,10.496,9.216c3.763,3.061,7.695,5.91,11.776,8.533l3.243,1.877c39.556,23.042,88.444,23.042,128,0    c1.258-0.649,2.483-1.361,3.669-2.133c4.109-2.622,8.069-5.471,11.861-8.533c3.691-2.846,7.197-5.924,10.496-9.216    c3.002-3.072,5.85-6.29,8.533-9.643c0.939-1.109,1.792-2.389,2.731-3.499c0.939-1.109,3.499-4.523,5.12-6.912    c1.621-2.389,1.792-2.901,2.731-4.437c0.939-1.536,2.731-4.523,4.011-6.827c1.28-2.304,1.621-3.243,2.389-4.864    s1.365-2.645,1.963-4.011h87.296V401.152z"/>
	</g>
</g>
<g>
	<g>
		<path d="M294.357,109.909c-10.024-21.326-35.439-30.487-56.764-20.462c-8.996,4.229-16.234,11.466-20.462,20.462    c-2.603,5.699-3.886,11.912-3.755,18.176c0.019,11.728,4.864,22.931,13.397,30.976c0.912,0.887,1.881,1.714,2.901,2.475    c1.109,0.853,2.133,1.621,3.499,2.475l1.963,1.109c12.925,7.402,28.803,7.402,41.728,0l2.475-1.365l3.413-2.475    c1.082-0.843,2.108-1.755,3.072-2.731C298.715,145.796,302.138,126.288,294.357,109.909z M264.576,145.152    c0,4.713-3.82,8.533-8.533,8.533s-8.533-3.821-8.533-8.533v-34.133c0-4.713,3.82-8.533,8.533-8.533s8.533,3.82,8.533,8.533    V145.152z"/>
	</g>
</g>
<g>
</g>
<g>
</g>
<g>
</g>
<g>
</g>
<g>
</g>
<g>
</g>
<g>
</g>
<g>
</g>
<g>
</g>
<g>
</g>
<g>
</g>
<g>
</g>
<g>
</g>
<g>
</g>
<g>
</g>
</svg>
