<?xml version="1.0" encoding="iso-8859-1"?>
<!-- Generator: Adobe Illustrator 19.0.0, SVG Export Plug-In . SVG Version: 6.00 Build 0)  -->
<svg xmlns="http://www.w3.org/2000/svg" xmlns:xlink="http://www.w3.org/1999/xlink" version="1.1" id="Layer_1" x="0px" y="0px" viewBox="0 0 512 512" style="enable-background:new 0 0 512 512;" xml:space="preserve">
<g>
	<g>
		<path d="M85.333,196.264H76.8c-4.713,0-8.533,3.82-8.533,8.533s3.82,8.533,8.533,8.533h8.533c4.713,0,8.533-3.821,8.533-8.533    S90.046,196.264,85.333,196.264z"/>
	</g>
</g>
<g>
	<g>
		<path d="M477.867,127.998H384c0.056-18.988-4.174-37.743-12.373-54.869C341.304,9.269,264.955-17.917,201.096,12.406    c-26.629,12.645-48.078,34.093-60.722,60.722c-8.199,17.126-12.429,35.882-12.373,54.869H34.133    C15.282,127.998,0,143.28,0,162.131v281.6c0,18.851,15.282,34.133,34.133,34.133h177.835    c-2.799,10.863-13.064,18.091-24.235,17.067h-68.267c-4.713,0-8.533,3.82-8.533,8.533s3.82,8.533,8.533,8.533h273.067    c4.713,0,8.533-3.82,8.533-8.533s-3.821-8.533-8.533-8.533h-68.267c-11.171,1.025-21.435-6.204-24.235-17.067h177.835    c18.851,0,34.133-15.282,34.133-34.133v-281.6C512,143.28,496.718,127.998,477.867,127.998z M247.467,68.264    c0-4.713,3.82-8.533,8.533-8.533s8.533,3.82,8.533,8.533v34.133c0,4.713-3.82,8.533-8.533,8.533s-8.533-3.82-8.533-8.533V68.264z     M201.984,102.398c5.226-10.923,13.648-19.999,24.149-26.027c4.176-2.185,9.332-0.57,11.517,3.606    c2.055,3.929,0.759,8.778-2.983,11.157c-7.461,4.382-13.413,10.93-17.067,18.773c-2.767,5.632-4.226,11.816-4.267,18.091    c0.019,11.728,4.864,22.931,13.397,30.976c0.915,0.884,1.884,1.711,2.901,2.475c1.109,0.853,2.133,1.621,3.499,2.475l1.963,1.109    c12.925,7.402,28.803,7.402,41.728,0l2.475-1.365l3.413-2.475c1.083-0.841,2.11-1.753,3.072-2.731    c12.891-12.753,16.314-32.261,8.533-48.64c-3.668-7.812-9.619-14.328-17.067-18.688c-4.176-2.185-5.79-7.341-3.606-11.517    s7.341-5.79,11.517-3.606c0.213,0.111,0.42,0.231,0.623,0.36c10.533,6.014,18.986,15.092,24.235,26.027    c10.91,23.029,6.01,50.443-12.203,68.267c-1.447,1.436-2.986,2.776-4.608,4.011c-1.792,1.365-3.413,2.56-5.035,3.584l-2.731,1.621    c-18.222,10.5-40.658,10.5-58.88,0l-2.304-1.28c-1.766-1.108-3.475-2.304-5.12-3.584c-1.527-1.16-2.981-2.414-4.352-3.755    c-11.883-11.245-18.586-26.904-18.517-43.264C196.208,119.141,198.163,110.388,201.984,102.398z M222.635,494.931    c3.444-5.167,5.823-10.969,6.997-17.067h52.821c1.174,6.098,3.553,11.9,6.997,17.067H222.635z M460.8,401.064H51.2V179.198h87.467    l0.597,1.28c0.853,1.963,1.792,3.84,2.731,5.717c0.939,1.877,2.56,4.864,4.011,7.168c0.518,0.996,1.088,1.964,1.707,2.901h-28.245    c-4.713,0-8.533,3.82-8.533,8.533s3.82,8.533,8.533,8.533h41.216l0.939,1.109c1.536,1.707,3.157,3.328,4.779,4.949    c3.324,3.266,6.828,6.343,10.496,9.216c3.755,2.901,7.68,5.746,11.776,8.533c1.04,0.693,2.123,1.32,3.243,1.877    c39.551,23.06,88.449,23.06,128,0c1.26-0.613,2.486-1.297,3.669-2.048c4.074-2.634,8.004-5.482,11.776-8.533    c3.704-2.83,7.211-5.909,10.496-9.216l4.352-4.437c0.149-0.191,0.321-0.363,0.512-0.512l3.925-4.523l0.597-0.683l0.939-1.28    c1.154-1.336,2.236-2.731,3.243-4.181c1.536-1.963,2.901-4.011,4.267-6.059c1.365-2.048,2.219-3.499,3.243-5.376    c1.024-1.877,2.133-3.755,3.157-5.632v-0.512c0.939-1.877,1.877-3.755,2.731-5.717c0.163-0.442,0.363-0.871,0.597-1.28H460.8    V401.064z"/>
	</g>
</g>
<g>
</g>
<g>
</g>
<g>
</g>
<g>
</g>
<g>
</g>
<g>
</g>
<g>
</g>
<g>
</g>
<g>
</g>
<g>
</g>
<g>
</g>
<g>
</g>
<g>
</g>
<g>
</g>
<g>
</g>
</svg>
