<?xml version="1.0" encoding="iso-8859-1"?>
<!-- Generator: Adobe Illustrator 19.0.0, SVG Export Plug-In . SVG Version: 6.00 Build 0)  -->
<svg xmlns="http://www.w3.org/2000/svg" xmlns:xlink="http://www.w3.org/1999/xlink" version="1.1" id="Layer_1" x="0px" y="0px" viewBox="0 0 512 512" style="enable-background:new 0 0 512 512;" xml:space="preserve">
<g>
	<g>
		<path d="M294.315,271.957c-6.995-14.856-21.894-24.38-38.315-24.491c-16.563-0.006-31.633,9.575-38.656,24.576    c-2.679,5.653-4.049,11.836-4.011,18.091c0.019,11.728,4.864,22.931,13.397,30.976c0.915,0.884,1.884,1.711,2.901,2.475    c1.109,0.853,2.133,1.621,3.499,2.475l1.963,1.109c12.925,7.402,28.803,7.402,41.728,0l2.475-1.365l3.413-2.475    c1.083-0.841,2.11-1.753,3.072-2.731C298.673,307.845,302.095,288.337,294.315,271.957z M264.533,307.2    c0,4.713-3.82,8.533-8.533,8.533s-8.533-3.82-8.533-8.533v-34.133c0-4.713,3.82-8.533,8.533-8.533s8.533,3.821,8.533,8.533V307.2z    "/>
	</g>
</g>
<g>
	<g>
		<circle cx="132.267" cy="64" r="12.8"/>
	</g>
</g>
<g>
	<g>
		<path d="M332.8,320v-51.2c-0.039-13.406,10.271-24.572,23.637-25.6c-25.82-55.56-91.792-79.669-147.353-53.848    c-55.56,25.82-79.669,91.792-53.848,147.353c25.82,55.56,91.792,79.669,147.352,53.848c20.96-9.741,38.354-25.785,49.752-45.891    C340.948,341.887,332.897,331.726,332.8,320z M297.813,332.8c-1.447,1.436-2.986,2.776-4.608,4.011    c-1.792,1.365-3.413,2.56-5.035,3.584l-2.731,1.621c-18.222,10.5-40.658,10.5-58.88,0l-2.304-1.28    c-1.766-1.108-3.475-2.304-5.12-3.584c-1.527-1.16-2.981-2.414-4.352-3.755c-11.883-11.245-18.586-26.904-18.517-43.264    c-0.058-8.856,1.897-17.61,5.717-25.6c14.084-29.832,49.686-42.598,79.518-28.514c12.523,5.912,22.602,15.992,28.514,28.514    C320.926,287.562,316.026,314.977,297.813,332.8z"/>
	</g>
</g>
<g>
	<g>
		<path d="M409.6,0H102.4C83.549,0,68.267,15.282,68.267,34.133v409.6c0,18.851,15.282,34.133,34.133,34.133v8.533    c0,14.138,11.461,25.6,25.6,25.6h34.133c14.138,0,25.6-11.461,25.6-25.6v-8.533h136.533v8.533c0,14.138,11.462,25.6,25.6,25.6H384    c14.138,0,25.6-11.461,25.6-25.6v-8.533c18.851,0,34.133-15.282,34.133-34.133v-409.6C443.733,15.282,428.451,0,409.6,0z     M226.133,51.2h59.733c4.713,0,8.533,3.82,8.533,8.533s-3.82,8.533-8.533,8.533h-59.733c-4.713,0-8.533-3.82-8.533-8.533    S221.421,51.2,226.133,51.2z M132.267,34.133c16.495,0,29.867,13.372,29.867,29.867c0,16.495-13.372,29.867-29.867,29.867    C115.772,93.867,102.4,80.495,102.4,64C102.4,47.505,115.772,34.133,132.267,34.133z M102.4,435.2c0-4.713,3.82-8.533,8.533-8.533    h8.533c4.713,0,8.533,3.82,8.533,8.533s-3.82,8.533-8.533,8.533h-8.533C106.221,443.733,102.4,439.913,102.4,435.2z     M170.667,486.4c0,4.713-3.82,8.533-8.533,8.533H128c-4.713,0-8.533-3.82-8.533-8.533v-8.533h51.2V486.4z M196.267,443.733H153.6    c-4.713,0-8.533-3.82-8.533-8.533s3.821-8.533,8.533-8.533h42.667c4.713,0,8.533,3.82,8.533,8.533    S200.979,443.733,196.267,443.733z M392.533,486.4c0,4.713-3.82,8.533-8.533,8.533h-34.133c-4.713,0-8.533-3.82-8.533-8.533    v-8.533h51.2V486.4z M409.6,328.533c0,9.426-7.641,17.067-17.067,17.067H371.2c-30.597,63.728-107.062,90.586-170.79,59.989    s-90.586-107.062-59.989-170.79c30.597-63.728,107.062-90.586,170.79-59.989c29.079,13.961,51.814,38.387,63.659,68.39h17.664    c9.426,0,17.067,7.641,17.067,17.067V328.533z M379.733,93.867c-16.495,0-29.867-13.372-29.867-29.867    c0-16.495,13.372-29.867,29.867-29.867c16.495,0,29.867,13.372,29.867,29.867C409.6,80.495,396.228,93.867,379.733,93.867z"/>
	</g>
</g>
<g>
	<g>
		<circle cx="379.733" cy="64" r="12.8"/>
	</g>
</g>
<g>
	<g>
		<path d="M358.4,260.267c-4.713,0-8.533,3.82-8.533,8.533V320c0,4.713,3.82,8.533,8.533,8.533h34.133v-68.267H358.4z"/>
	</g>
</g>
<g>
</g>
<g>
</g>
<g>
</g>
<g>
</g>
<g>
</g>
<g>
</g>
<g>
</g>
<g>
</g>
<g>
</g>
<g>
</g>
<g>
</g>
<g>
</g>
<g>
</g>
<g>
</g>
<g>
</g>
</svg>
