<?xml version="1.0" encoding="iso-8859-1"?>
<!-- Generator: Adobe Illustrator 19.0.0, SVG Export Plug-In . SVG Version: 6.00 Build 0)  -->
<svg xmlns="http://www.w3.org/2000/svg" xmlns:xlink="http://www.w3.org/1999/xlink" version="1.1" id="Layer_1" x="0px" y="0px" viewBox="0 0 512 512" style="enable-background:new 0 0 512 512;" xml:space="preserve">
<g>
	<g>
		<path d="M358.4,260.267c-4.713,0-8.533,3.82-8.533,8.533V320c0,4.713,3.82,8.533,8.533,8.533h34.133v-68.267H358.4z"/>
	</g>
</g>
<g>
	<g>
		<circle cx="132.267" cy="64" r="12.8"/>
	</g>
</g>
<g>
	<g>
		<path d="M332.8,320v-51.2c-0.039-13.406,10.271-24.572,23.637-25.6c-25.82-55.56-91.792-79.669-147.353-53.848    c-55.56,25.82-79.669,91.792-53.848,147.353c25.82,55.56,91.792,79.669,147.352,53.848c20.96-9.741,38.354-25.785,49.752-45.891    C340.948,341.887,332.897,331.726,332.8,320z M247.467,230.4c0-4.713,3.82-8.533,8.533-8.533s8.533,3.82,8.533,8.533v34.133    c0,4.713-3.82,8.533-8.533,8.533s-8.533-3.82-8.533-8.533V230.4z M297.813,332.8c-1.447,1.436-2.986,2.776-4.608,4.011    c-1.792,1.365-3.413,2.56-5.035,3.584l-2.731,1.621c-18.222,10.5-40.658,10.5-58.88,0l-2.304-1.28    c-1.766-1.108-3.475-2.304-5.12-3.584c-1.527-1.16-2.981-2.414-4.352-3.755c-11.883-11.245-18.586-26.904-18.517-43.264    c-0.058-8.856,1.897-17.61,5.717-25.6c5.197-10.986,13.622-20.125,24.149-26.197c4.176-2.184,9.332-0.57,11.517,3.606    c2.055,3.929,0.759,8.778-2.983,11.157c-7.461,4.382-13.413,10.93-17.067,18.773c-2.792,5.684-4.251,11.929-4.267,18.261    c0.019,11.728,4.864,22.931,13.397,30.976c0.915,0.884,1.884,1.711,2.901,2.475c1.109,0.853,2.133,1.621,3.499,2.475l1.963,1.109    c12.925,7.402,28.803,7.402,41.728,0l2.475-1.365l3.413-2.475c1.083-0.841,2.11-1.753,3.072-2.731    c12.891-12.753,16.314-32.261,8.533-48.64c-3.668-7.812-9.619-14.328-17.067-18.688c-4.176-2.184-5.79-7.341-3.606-11.517    c2.185-4.176,7.341-5.79,11.517-3.606c0.213,0.111,0.42,0.231,0.623,0.36c10.533,6.014,18.986,15.092,24.235,26.027    C320.926,287.562,316.026,314.977,297.813,332.8z"/>
	</g>
</g>
<g>
	<g>
		<path d="M409.6,0H102.4C83.549,0,68.267,15.282,68.267,34.133v409.6c0,18.851,15.282,34.133,34.133,34.133v8.533    c0,14.138,11.461,25.6,25.6,25.6h34.133c14.138,0,25.6-11.461,25.6-25.6v-8.533h136.533v8.533c0,14.138,11.462,25.6,25.6,25.6H384    c14.138,0,25.6-11.461,25.6-25.6v-8.533c18.851,0,34.133-15.282,34.133-34.133v-409.6C443.733,15.282,428.451,0,409.6,0z     M226.133,51.2h59.733c4.713,0,8.533,3.82,8.533,8.533s-3.82,8.533-8.533,8.533h-59.733c-4.713,0-8.533-3.82-8.533-8.533    S221.421,51.2,226.133,51.2z M132.267,34.133c16.495,0,29.867,13.372,29.867,29.867c0,16.495-13.372,29.867-29.867,29.867    C115.772,93.867,102.4,80.495,102.4,64C102.4,47.505,115.772,34.133,132.267,34.133z M102.4,435.2c0-4.713,3.82-8.533,8.533-8.533    h8.533c4.713,0,8.533,3.82,8.533,8.533s-3.82,8.533-8.533,8.533h-8.533C106.221,443.733,102.4,439.913,102.4,435.2z     M170.667,486.4c0,4.713-3.82,8.533-8.533,8.533H128c-4.713,0-8.533-3.82-8.533-8.533v-8.533h51.2V486.4z M196.267,443.733H153.6    c-4.713,0-8.533-3.82-8.533-8.533s3.821-8.533,8.533-8.533h42.667c4.713,0,8.533,3.82,8.533,8.533    S200.979,443.733,196.267,443.733z M392.533,486.4c0,4.713-3.82,8.533-8.533,8.533h-34.133c-4.713,0-8.533-3.82-8.533-8.533    v-8.533h51.2V486.4z M409.6,328.533c0,9.426-7.641,17.067-17.067,17.067H371.2c-30.597,63.728-107.062,90.586-170.79,59.989    s-90.586-107.062-59.989-170.79c30.597-63.728,107.062-90.586,170.79-59.989c29.079,13.961,51.814,38.387,63.659,68.39h17.664    c9.426,0,17.067,7.641,17.067,17.067V328.533z M379.733,93.867c-16.495,0-29.867-13.372-29.867-29.867    c0-16.495,13.372-29.867,29.867-29.867c16.495,0,29.867,13.372,29.867,29.867C409.6,80.495,396.228,93.867,379.733,93.867z"/>
	</g>
</g>
<g>
	<g>
		<circle cx="379.733" cy="64" r="12.8"/>
	</g>
</g>
<g>
</g>
<g>
</g>
<g>
</g>
<g>
</g>
<g>
</g>
<g>
</g>
<g>
</g>
<g>
</g>
<g>
</g>
<g>
</g>
<g>
</g>
<g>
</g>
<g>
</g>
<g>
</g>
<g>
</g>
</svg>
