<?xml version="1.0" encoding="iso-8859-1"?>
<!-- Generator: Adobe Illustrator 19.0.0, SVG Export Plug-In . SVG Version: 6.00 Build 0)  -->
<svg xmlns="http://www.w3.org/2000/svg" xmlns:xlink="http://www.w3.org/1999/xlink" version="1.1" id="Layer_1" x="0px" y="0px" viewBox="0 0 477.87 477.87" style="enable-background:new 0 0 477.87 477.87;" xml:space="preserve">
<g>
	<g>
		<path d="M264.023,228.184c-3.847,1.678-7.778,3.159-11.776,4.437c-24.984,7.944-51.816,7.944-76.8,0h-1.109    c-3.755-1.252-7.452-2.645-11.093-4.181h-0.768v27.563c0,4.713,3.82,8.533,8.533,8.533h84.992c4.713,0,8.533-3.821,8.533-8.533    v-27.819H264.023z"/>
	</g>
</g>
<g>
	<g>
		<path d="M300.289,204.803l-0.853,0.768c-2.219,2.048-4.523,4.011-7.083,6.059c-2.56,2.048-6.997,5.12-10.752,7.509v36.864    c0,14.138-11.461,25.6-25.6,25.6v8.533h35.669c0-0.427,0-0.853,0-1.28s0.683-1.28,1.024-1.877c0.408-0.85,0.863-1.676,1.365-2.475    c0.427-0.683,1.024-1.195,1.536-1.877c0.507-0.681,1.048-1.336,1.621-1.963c3.509-3.6,8.035-6.042,12.971-6.997    c1.822-0.401,3.682-0.601,5.547-0.597h17.067v-68.267H300.289z"/>
	</g>
</g>
<g>
	<g>
		<rect x="187.735" y="281.603" width="51.2" height="25.6"/>
	</g>
</g>
<g>
	<g>
		<path d="M315.735,324.27c-10.822-0.03-20.457-6.863-24.064-17.067h-35.669v8.533c0,4.713-3.82,8.533-8.533,8.533h-68.267    c-4.713,0-8.533-3.821-8.533-8.533v-34.133c-14.139,0-25.6-11.462-25.6-25.6v-36.949c-3.738-2.348-7.355-4.883-10.837-7.595    c-2.475-1.963-4.779-3.925-6.997-5.973l-0.853-0.768H93.868v204.885h68.267v-9.301c-14.16-8.131-25.141-20.827-31.147-36.011    c-3.252-8.847,1.284-18.655,10.13-21.907c1.92-0.706,3.952-1.061,5.998-1.048h132.437c9.426-0.013,17.077,7.617,17.09,17.043    c0.003,2.017-0.352,4.019-1.048,5.912c-5.984,15.171-16.933,27.865-31.061,36.011v9.301h68.267V324.27H315.735z"/>
	</g>
</g>
<g>
	<g>
		<path d="M349.868,68.27h-15.787v0.512c0,0.683,0.427,1.451,0.683,2.219c1.081,3.356,2.048,6.713,2.901,10.069    c0,1.28,0.597,2.645,0.853,4.011c0.626,3.015,1.138,6.059,1.536,9.131c0,1.28,0,2.56,0.512,3.84c0,4.267,0.683,8.533,0.683,12.885    s0,7.936-0.597,11.861c0,1.195,0,2.475-0.427,3.669c0,2.731-0.683,5.376-1.195,8.021c0,1.365-0.512,2.731-0.853,4.096    c-0.341,1.365-1.195,5.12-1.963,7.68c0,1.28-0.683,2.475-1.109,3.669c-0.939,3.072-2.048,6.059-3.328,9.045l-0.683,1.792    c-1.536,3.584-3.157,6.997-5.035,10.411l-1.792,2.901c-1.365,2.475-2.816,4.864-4.437,7.253l-1.963,3.243    c-0.768,1.024-1.365,2.133-2.133,3.157h34.133c9.426,0,17.067-7.641,17.067-17.067V85.336    C366.935,75.911,359.294,68.27,349.868,68.27z"/>
	</g>
</g>
<g>
	<g>
		<path d="M147.116,358.403c5.325,12.901,15.191,23.404,27.733,29.525c2.684,1.508,4.347,4.345,4.352,7.424v14.251h68.267v-14.251    c0.005-3.078,1.668-5.916,4.352-7.424c12.565-6.117,22.46-16.619,27.819-29.525H147.116z"/>
	</g>
</g>
<g>
	<g>
		<path d="M251.65,92.76c-10.024-21.326-35.439-30.487-56.764-20.462c-8.996,4.229-16.234,11.466-20.462,20.462    c-2.603,5.699-3.886,11.912-3.755,18.176c0.019,11.728,4.864,22.931,13.397,30.976c0.915,0.884,1.884,1.711,2.901,2.475    c1.109,0.853,2.133,1.621,3.499,2.475l1.963,1.109c12.925,7.402,28.803,7.402,41.728,0l2.475-1.365l3.413-2.475    c1.083-0.841,2.11-1.753,3.072-2.731C256.008,128.648,259.43,109.14,251.65,92.76z M221.868,128.003    c0,4.713-3.82,8.533-8.533,8.533s-8.533-3.821-8.533-8.533V93.87c0-4.713,3.82-8.533,8.533-8.533s8.533,3.82,8.533,8.533V128.003z    "/>
	</g>
</g>
<g>
	<g>
		<path d="M313.601,63.406c-26.263-55.352-92.425-78.934-147.778-52.67c-23.102,10.962-41.709,29.568-52.67,52.67    c-4.859,10.117-8.058,20.951-9.472,32.085c-0.782,5.113-1.209,10.274-1.28,15.445c-0.086,29.831,11.958,58.415,33.365,79.189    c2.925,2.845,6.032,5.496,9.301,7.936c3.335,2.607,6.81,5.028,10.411,7.253l2.304,1.28c8.521,4.972,17.679,8.762,27.221,11.264    c28.405,7.494,58.617,3.542,84.139-11.008l2.731-1.536c3.367-2.246,6.614-4.668,9.728-7.253c3.15-2.425,6.143-5.047,8.96-7.851    c18.696-18.143,30.339-42.337,32.853-68.267c0.569-3.584,0.853-7.253,0.853-11.008C324.333,94.492,320.687,78.245,313.601,63.406z     M255.148,153.603c-1.447,1.436-2.986,2.776-4.608,4.011c-1.792,1.365-3.413,2.56-5.035,3.584l-2.731,1.621    c-18.222,10.5-40.658,10.5-58.88,0l-2.304-1.28c-1.766-1.108-3.475-2.304-5.12-3.584c-1.527-1.16-2.981-2.414-4.352-3.755    c-11.883-11.245-18.586-26.904-18.517-43.264c-0.058-8.856,1.897-17.61,5.717-25.6c14.084-29.832,49.686-42.599,79.518-28.514    c12.523,5.912,22.602,15.992,28.514,28.514C278.261,108.365,273.361,135.78,255.148,153.603z"/>
	</g>
</g>
<g>
	<g>
		<path d="M108.887,184.75l-2.475-3.584c-1.451-2.219-2.816-4.523-4.181-6.827l-1.792-3.157c-1.792-3.328-3.499-6.827-4.949-10.325    l-0.853-2.133c-1.195-2.901-2.219-5.803-3.157-8.533c0-1.28-0.768-2.56-1.109-3.84c-0.341-1.28-1.365-5.035-1.877-7.595    s-0.597-2.731-0.853-4.096c-0.256-1.365-0.853-5.376-1.195-8.021c0-1.195,0-2.475-0.427-3.669c0-3.925-0.597-7.851-0.597-11.861    s0-8.533,0.683-12.885c0-1.28,0-2.56,0.512-3.84c0.398-3.072,0.91-6.116,1.536-9.131c0-1.365,0.512-2.645,0.853-3.925    c0.796-3.413,1.764-6.798,2.901-10.155c0-0.683,0-1.451,0.683-2.133v-0.512H76.801c-9.426,0-17.067,7.641-17.067,17.067v85.077    c0,9.426,7.641,17.067,17.067,17.067h34.133C110.167,186.798,109.569,185.774,108.887,184.75z"/>
	</g>
</g>
<g>
	<g>
		<path d="M409.601,290.136h-93.867c-2.209,0.032-4.32,0.919-5.888,2.475c-1.66,1.582-2.613,3.766-2.645,6.059    c0,4.713,3.82,8.533,8.533,8.533h93.867c2.209-0.032,4.32-0.919,5.888-2.475c1.66-1.582,2.613-3.766,2.645-6.059    C418.135,293.957,414.314,290.136,409.601,290.136z"/>
	</g>
</g>
<g>
	<g>
		<path d="M349.868,426.67H76.801c-9.426,0-17.067,7.641-17.067,17.067v17.067c0,9.426,7.641,17.067,17.067,17.067h273.067    c9.426,0,17.067-7.641,17.067-17.067v-17.067C366.935,434.311,359.294,426.67,349.868,426.67z M93.868,460.803h-8.533    c-4.713,0-8.533-3.82-8.533-8.533s3.82-8.533,8.533-8.533h8.533c4.713,0,8.533,3.82,8.533,8.533S98.581,460.803,93.868,460.803z     M230.402,460.803h-102.4c-4.713,0-8.533-3.82-8.533-8.533s3.82-8.533,8.533-8.533h102.4c4.713,0,8.533,3.82,8.533,8.533    S235.114,460.803,230.402,460.803z"/>
	</g>
</g>
<g>
</g>
<g>
</g>
<g>
</g>
<g>
</g>
<g>
</g>
<g>
</g>
<g>
</g>
<g>
</g>
<g>
</g>
<g>
</g>
<g>
</g>
<g>
</g>
<g>
</g>
<g>
</g>
<g>
</g>
</svg>
