<?xml version="1.0" encoding="iso-8859-1"?>
<!-- Generator: Adobe Illustrator 19.0.0, SVG Export Plug-In . SVG Version: 6.00 Build 0)  -->
<svg xmlns="http://www.w3.org/2000/svg" xmlns:xlink="http://www.w3.org/1999/xlink" version="1.1" id="Layer_1" x="0px" y="0px" viewBox="0 0 512 512" style="enable-background:new 0 0 512 512;" xml:space="preserve">
<g>
	<g>
		<path d="M260.267,0h-8.533C159.48,3.677,86.306,79.028,85.333,171.349c0.23,41.017,15.225,80.58,42.24,111.445    c3.243,3.669,6.571,7.253,9.984,10.837c3.413,3.584,8.533,8.533,11.776,13.056c6.751,8.079,12.911,16.635,18.432,25.6    c6.675,10.705,12.06,22.163,16.043,34.133c2.648,8.625,3.971,17.602,3.925,26.624c0.277,9.225,7.837,16.559,17.067,16.555v17.067    c0,9.426,7.641,17.067,17.067,17.067V460.8c0.037,6.061,3.285,11.647,8.533,14.677v19.456c0,9.426,7.641,17.067,17.067,17.067    h17.067c9.426,0,17.067-7.641,17.067-17.067v-19.456c5.249-3.03,8.497-8.617,8.533-14.677v-17.067    c9.426,0,17.067-7.641,17.067-17.067V409.6c9.229,0.004,16.79-7.33,17.067-16.555c-0.071-9.052,1.253-18.061,3.925-26.709    c3.97-11.976,9.355-23.435,16.043-34.133c5.521-8.965,11.68-17.521,18.432-25.6c3.669-4.437,7.595-8.533,11.776-13.056    s6.741-7.168,9.984-10.837c26.996-30.843,41.989-70.372,42.24-111.36C425.694,79.028,352.519,3.677,260.267,0z M247.467,93.867    c0-4.713,3.82-8.533,8.533-8.533s8.533,3.82,8.533,8.533V128c0,4.713-3.82,8.533-8.533,8.533s-8.533-3.82-8.533-8.533V93.867z     M204.8,301.483V281.6c0-4.713,3.821-8.533,8.533-8.533c4.713,0,8.533,3.821,8.533,8.533v19.968    c0,17.579,21.248,30.464,21.419,30.635c2.592,1.537,4.181,4.326,4.181,7.339v52.992H230.4v-48.555    C221.867,338.005,204.8,322.816,204.8,301.483z M264.533,494.933h-17.067v-17.067h17.067V494.933z M273.067,460.8h-34.133v-17.067    h34.133V460.8z M290.133,426.667h-68.267V409.6h68.267V426.667z M307.2,301.483c0,21.333-17.067,36.523-25.6,42.667v48.384    h-17.067v-53.077c0.001-3.013,1.59-5.802,4.181-7.339c0,0,21.419-13.056,21.419-30.635V281.6c0-4.713,3.82-8.533,8.533-8.533    s8.533,3.821,8.533,8.533V301.483z M307.204,184.136c-2.596,4.43-5.752,8.507-9.391,12.13c-1.445,1.465-2.984,2.833-4.608,4.096    c-1.792,1.365-3.328,2.475-5.035,3.584l-2.731,1.621c-8.934,5.194-19.106,7.877-29.44,7.765    c-10.354,0.094-20.536-2.65-29.44-7.936l-2.304-1.28c-2.304-1.451-3.755-2.475-5.205-3.584c-1.531-1.186-2.985-2.468-4.352-3.84    c-11.758-11.253-18.415-26.818-18.432-43.093c-0.091-8.86,1.865-17.621,5.717-25.6c5.296-10.765,13.711-19.685,24.149-25.6    c4.066-2.383,9.294-1.018,11.677,3.048c0.005,0.008,0.009,0.016,0.014,0.024c2.362,4.078,0.972,9.299-3.106,11.661    c-0.017,0.01-0.034,0.02-0.051,0.029c-7.461,4.382-13.413,10.93-17.067,18.773c-2.697,5.505-4.154,11.535-4.267,17.664    c0.019,11.728,4.864,22.931,13.397,30.976c0.921,0.877,1.89,1.703,2.901,2.475l3.499,2.56l1.963,1.024    c12.92,7.419,28.808,7.419,41.728,0l2.475-1.365l3.413-2.56c1.07-0.857,2.096-1.768,3.072-2.731    c8.253-7.949,12.907-18.92,12.885-30.379c0.034-6.291-1.367-12.507-4.096-18.176c-3.631-7.837-9.591-14.362-17.067-18.688    c-2.624-1.515-4.248-4.308-4.267-7.339c0-1.532,0.413-3.035,1.195-4.352c2.504-3.779,7.526-4.941,11.435-2.645    C314.33,119.079,323.883,155.673,307.204,184.136z"/>
	</g>
</g>
<g>
</g>
<g>
</g>
<g>
</g>
<g>
</g>
<g>
</g>
<g>
</g>
<g>
</g>
<g>
</g>
<g>
</g>
<g>
</g>
<g>
</g>
<g>
</g>
<g>
</g>
<g>
</g>
<g>
</g>
</svg>
