<?xml version="1.0" encoding="iso-8859-1"?>
<!-- Generator: Adobe Illustrator 19.0.0, SVG Export Plug-In . SVG Version: 6.00 Build 0)  -->
<svg xmlns="http://www.w3.org/2000/svg" xmlns:xlink="http://www.w3.org/1999/xlink" version="1.1" id="Layer_1" x="0px" y="0px" viewBox="0 0 511.99 511.99" style="enable-background:new 0 0 511.99 511.99;" xml:space="preserve">
<g>
	<g>
		<path d="M324.262,257.28V68.267C324.262,30.564,293.698,0,255.995,0s-68.267,30.564-68.267,68.267V257.28    c-42.227,24.38-68.247,69.427-68.267,118.187c-0.019,8.768,0.839,17.515,2.56,26.112c-0.041,0.597-0.041,1.195,0,1.792    c15.432,73.809,87.776,121.134,161.585,105.702c57.406-12.002,100.734-59.324,107.641-117.563    c0.732-5.319,1.159-10.675,1.28-16.043C392.509,326.708,366.488,281.66,324.262,257.28z M307.195,128v17.067h-42.667    c-4.713,0-8.533-3.82-8.533-8.533s3.82-8.533,8.533-8.533H307.195z M264.528,213.333c-4.713,0-8.533-3.821-8.533-8.533    s3.82-8.533,8.533-8.533h42.667v17.067H264.528z M307.195,230.4v17.067h-42.667c-4.713,0-8.533-3.82-8.533-8.533    s3.82-8.533,8.533-8.533H307.195z M264.528,179.2c-4.713,0-8.533-3.82-8.533-8.533s3.82-8.533,8.533-8.533h42.667V179.2H264.528z     M255.995,34.133c4.713,0,8.533,3.82,8.533,8.533s-3.82,8.533-8.533,8.533c-9.426,0-17.067,7.641-17.067,17.067    c0,4.713-3.82,8.533-8.533,8.533s-8.533-3.82-8.533-8.533C221.862,49.415,237.144,34.133,255.995,34.133z M153.595,375.296    c0.073-37.91,21.085-72.677,54.613-90.368c4.12-2.289,9.315-0.806,11.604,3.314c2.289,4.12,0.806,9.315-3.314,11.604    c-0.117,0.065-0.235,0.127-0.354,0.186c-27.97,14.772-45.475,43.803-45.483,75.435c0,0.939,0,1.707,0,2.816    c0.006,4.551-3.561,8.306-8.107,8.533h-0.427c-4.551,0.006-8.306-3.561-8.533-8.107    C153.595,377.088,153.595,376.149,153.595,375.296z M373.414,397.739c-29.063-29.52-76.554-29.89-106.074-0.827    c-1.703,1.676-3.324,3.433-4.859,5.264c-17.292,21.101-43.205,33.242-70.485,33.024c-15.886,0.07-31.521-3.957-45.397-11.691    c-3.995-8.969-6.861-18.4-8.533-28.075c28.884,29.629,76.319,30.233,105.948,1.349c1.748-1.704,3.412-3.493,4.985-5.359    c31.548-37.738,87.112-44.186,126.464-14.677C375.388,383.79,374.703,390.814,373.414,397.739z"/>
	</g>
</g>
<g>
</g>
<g>
</g>
<g>
</g>
<g>
</g>
<g>
</g>
<g>
</g>
<g>
</g>
<g>
</g>
<g>
</g>
<g>
</g>
<g>
</g>
<g>
</g>
<g>
</g>
<g>
</g>
<g>
</g>
</svg>
