<?xml version="1.0" encoding="iso-8859-1"?>
<!-- Generator: Adobe Illustrator 19.0.0, SVG Export Plug-In . SVG Version: 6.00 Build 0)  -->
<svg xmlns="http://www.w3.org/2000/svg" xmlns:xlink="http://www.w3.org/1999/xlink" version="1.1" id="Layer_1" x="0px" y="0px" viewBox="0 0 512 512" style="enable-background:new 0 0 512 512;" xml:space="preserve">
<g>
	<g>
		<path d="M332.8,320v-51.2c-0.039-13.406,10.271-24.572,23.637-25.6c-25.82-55.56-91.792-79.669-147.353-53.848    c-55.56,25.82-79.669,91.792-53.848,147.353c25.82,55.56,91.792,79.669,147.352,53.848c20.96-9.741,38.354-25.785,49.752-45.891    C340.948,341.887,332.897,331.726,332.8,320z M322.389,252.843v-0.085l-68.267,85.333c-2.923,3.697-8.289,4.325-11.986,1.402    c-0.015-0.012-0.031-0.024-0.046-0.036l-42.667-34.133c-3.768-2.831-4.528-8.18-1.697-11.948c2.831-3.768,8.18-4.528,11.948-1.697    c0.142,0.107,0.281,0.218,0.416,0.333l36.011,28.843l62.976-78.677c3.06-3.584,8.447-4.009,12.031-0.948    C324.535,244.154,325.096,249.24,322.389,252.843z"/>
	</g>
</g>
<g>
	<g>
		<path d="M358.4,260.267c-4.713,0-8.533,3.82-8.533,8.533V320c0,4.713,3.82,8.533,8.533,8.533h34.133v-68.267H358.4z"/>
	</g>
</g>
<g>
	<g>
		<circle cx="379.733" cy="64" r="12.8"/>
	</g>
</g>
<g>
	<g>
		<path d="M409.6,0H102.4C83.549,0,68.267,15.282,68.267,34.133v409.6c0,18.851,15.282,34.133,34.133,34.133v8.533    c0,14.138,11.461,25.6,25.6,25.6h34.133c14.138,0,25.6-11.461,25.6-25.6v-8.533h136.533v8.533c0,14.138,11.462,25.6,25.6,25.6H384    c14.138,0,25.6-11.461,25.6-25.6v-8.533c18.851,0,34.133-15.282,34.133-34.133v-409.6C443.733,15.282,428.451,0,409.6,0z     M226.133,51.2h59.733c4.713,0,8.533,3.82,8.533,8.533s-3.82,8.533-8.533,8.533h-59.733c-4.713,0-8.533-3.82-8.533-8.533    S221.421,51.2,226.133,51.2z M132.267,34.133c16.495,0,29.867,13.372,29.867,29.867c0,16.495-13.372,29.867-29.867,29.867    C115.772,93.867,102.4,80.495,102.4,64C102.4,47.505,115.772,34.133,132.267,34.133z M102.4,435.2c0-4.713,3.82-8.533,8.533-8.533    h8.533c4.713,0,8.533,3.82,8.533,8.533s-3.82,8.533-8.533,8.533h-8.533C106.221,443.733,102.4,439.913,102.4,435.2z     M170.667,486.4c0,4.713-3.82,8.533-8.533,8.533H128c-4.713,0-8.533-3.82-8.533-8.533v-8.533h51.2V486.4z M196.267,443.733H153.6    c-4.713,0-8.533-3.82-8.533-8.533s3.821-8.533,8.533-8.533h42.667c4.713,0,8.533,3.82,8.533,8.533    S200.979,443.733,196.267,443.733z M392.533,486.4c0,4.713-3.82,8.533-8.533,8.533h-34.133c-4.713,0-8.533-3.82-8.533-8.533    v-8.533h51.2V486.4z M409.6,328.533c0,9.426-7.641,17.067-17.067,17.067H371.2c-30.597,63.728-107.062,90.586-170.79,59.989    s-90.586-107.062-59.989-170.79c30.597-63.728,107.062-90.586,170.79-59.989c29.079,13.961,51.814,38.387,63.659,68.39h17.664    c9.426,0,17.067,7.641,17.067,17.067V328.533z M379.733,93.867c-16.495,0-29.867-13.372-29.867-29.867    c0-16.495,13.372-29.867,29.867-29.867c16.495,0,29.867,13.372,29.867,29.867C409.6,80.495,396.228,93.867,379.733,93.867z"/>
	</g>
</g>
<g>
	<g>
		<circle cx="132.267" cy="64" r="12.8"/>
	</g>
</g>
<g>
</g>
<g>
</g>
<g>
</g>
<g>
</g>
<g>
</g>
<g>
</g>
<g>
</g>
<g>
</g>
<g>
</g>
<g>
</g>
<g>
</g>
<g>
</g>
<g>
</g>
<g>
</g>
<g>
</g>
</svg>
