<?xml version="1.0" encoding="iso-8859-1"?>
<!-- Generator: Adobe Illustrator 19.0.0, SVG Export Plug-In . SVG Version: 6.00 Build 0)  -->
<svg xmlns="http://www.w3.org/2000/svg" xmlns:xlink="http://www.w3.org/1999/xlink" version="1.1" id="Layer_1" x="0px" y="0px" viewBox="0 0 477.64 477.64" style="enable-background:new 0 0 477.64 477.64;" xml:space="preserve">
<g>
	<g>
		<g>
			<rect x="187.62" y="281.374" width="51.2" height="25.6"/>
			<path d="M315.62,272.84h17.067v-68.267h-32.512l-0.853,0.768c-2.219,1.963-4.523,4.011-7.083,5.973     c-2.56,1.963-6.997,5.12-10.752,7.509v36.949c0,14.138-11.461,25.6-25.6,25.6v8.533h35.669c0,0,0-0.853,0-1.28     c0.308-0.671,0.649-1.326,1.024-1.963c0.427-0.768,0.853-1.707,1.365-2.475s1.024-1.195,1.536-1.792     c0.493-0.719,1.034-1.403,1.621-2.048c3.533-3.551,8.052-5.959,12.971-6.912C311.894,273.029,313.755,272.828,315.62,272.84z"/>
			<path d="M264.42,255.774v-27.819h-0.512c-3.807,1.707-7.71,3.188-11.691,4.437c-12.597,4.1-25.751,6.23-38.997,6.315     c-13.003-0.011-25.926-2.026-38.315-5.973h-1.024c-3.755-1.28-7.509-2.645-11.093-4.181h-0.768v27.221     c0,4.713,3.821,8.533,8.533,8.533h85.333C260.6,264.307,264.42,260.486,264.42,255.774z"/>
			<path d="M318.18,184.35c-0.853,1.109-1.365,2.133-2.133,3.157h34.133c9.426,0,17.067-7.641,17.067-17.067V85.107     c0.003-9.426-7.636-17.069-17.061-17.072c-0.144,0-0.288,0.002-0.432,0.005h-15.787c-0.037,0.169-0.037,0.343,0,0.512     c0,0.683,0,1.451,0.597,2.219c1.135,3.306,2.104,6.666,2.901,10.069c0,1.365,0.597,2.645,0.853,4.011     c0.597,2.987,1.109,6.059,1.536,9.045l0.512,3.925c0.499,4.278,0.784,8.579,0.853,12.885c0,4.011,0,7.936-0.597,11.861     c0,1.195,0,2.389,0,3.669c0,2.731-0.683,5.376-1.195,8.021c0,1.365-0.512,2.731-0.853,4.096s-1.195,5.12-1.963,7.68l-1.024,3.669     c-1.024,3.072-2.133,6.144-3.328,9.045c0,0.683-0.427,1.28-0.683,1.877c-1.536,3.499-3.157,6.997-5.035,10.411     c-0.512,0.939-1.024,1.877-1.621,2.816c-1.365,2.389-2.816,4.864-4.352,7.168C319.034,183.326,319.034,183.24,318.18,184.35z"/>
			<path d="M247.353,409.374v-14.251c0.005-3.078,1.668-5.916,4.352-7.424c12.556-6.13,22.446-16.627,27.819-29.525H147.001     c5.304,12.914,15.176,23.424,27.733,29.525c2.684,1.508,4.347,4.345,4.352,7.424v14.251H247.353z"/>
			<path d="M332.687,324.04H315.62c-10.822-0.03-20.457-6.863-24.064-17.067h-35.669v8.533c0,4.713-3.82,8.533-8.533,8.533h-68.267     c-4.713,0-8.533-3.821-8.533-8.533v-34.133c-14.139,0-25.6-11.462-25.6-25.6v-36.949c-3.755-2.389-7.339-4.779-10.837-7.509     s-4.779-4.011-6.997-5.973l-0.853-0.768H93.753v204.8h68.267v-9.301c-14.138-8.157-25.112-20.844-31.147-36.011     c-1.904-5.228-1.139-11.056,2.048-15.616c3.2-4.613,8.465-7.357,14.08-7.339h132.437c5.615-0.019,10.88,2.725,14.08,7.339     c3.187,4.56,3.952,10.388,2.048,15.616c-6.035,15.166-17.008,27.854-31.147,36.011v9.301h68.267V324.04z"/>
			<polygon points="223.972,119.24 228.751,58.824 230.287,42.44 196.153,42.44 202.297,119.24    "/>
			<path d="M76.687,187.507h34.133c-0.768-0.939-1.365-1.963-2.048-2.987l-2.56-3.584c-1.451-2.219-2.816-4.523-4.181-6.827     l-1.792-3.157c-1.792-3.328-3.413-6.827-4.949-10.325c-0.247-0.725-0.532-1.437-0.853-2.133     c-0.555-1.451-1.109-2.901-1.643-4.331c-0.533-1.429-1.045-2.837-1.515-4.203c0-0.8-0.267-1.6-0.571-2.4     c-0.182-0.48-0.378-0.96-0.539-1.44c-0.027-0.08-0.055-0.17-0.086-0.268c-0.304-0.984-0.786-2.846-1.215-4.689     c-0.043-0.184-0.085-0.368-0.127-0.551c-0.083-0.366-0.164-0.728-0.239-1.078s-0.146-0.689-0.21-1.009     c-0.512-2.56-0.597-2.731-0.853-4.096c-0.512-2.645-0.853-5.291-1.195-8.021c0-1.195,0-2.475,0-3.669     c0-3.925-0.597-7.851-0.597-11.861c0.013-4.304,0.24-8.604,0.683-12.885l0.512-3.925c0-3.072,0.939-6.059,1.536-9.045     c0-1.365,0.512-2.731,0.853-4.011c0.576-2.56,1.296-5.12,2.088-7.644c0.264-0.841,0.536-1.679,0.813-2.511     c0.094-0.362,0.198-0.72,0.312-1.076c0.114-0.356,0.237-0.708,0.37-1.057c0,0,0,0,0-0.512H76.687     c-9.426,0-17.067,7.641-17.067,17.067v85.163C59.62,179.866,67.261,187.507,76.687,187.507z"/>
			<path d="M135.652,189.896c2.807,2.841,5.8,5.493,8.96,7.936c3.332,2.611,6.807,5.032,10.411,7.253l2.304,1.365     c8.522,4.909,17.643,8.695,27.136,11.264c11.125,2.943,22.643,4.124,34.133,3.499c0.937,0.084,1.879,0.084,2.816,0h2.304     c15.917-1.164,31.357-5.95,45.141-13.995l2.731-1.536c3.451-2.42,6.756-5.042,9.899-7.851c3.026-2.412,5.878-5.036,8.533-7.851     c18.758-18.108,30.438-42.315,32.939-68.267c0-3.669,0.512-7.424,0.512-11.179c0.25-16.334-3.162-32.517-9.984-47.36h-0.256     c-13.767-28.715-39.128-50.196-69.717-59.051l-1.707-0.427h-0.512c-51.657-13.658-105.711,11.45-128.597,59.733     c-1.769,3.684-3.308,7.474-4.608,11.349c-2.352,6.749-3.982,13.729-4.864,20.821c-0.647,5.008-0.96,10.054-0.939,15.104     C102.201,140.537,114.245,169.121,135.652,189.896z M238.82,183.496c0.152,10.227-7.032,19.099-17.067,21.077h-1.963h-11.093     c-11.621-0.047-21.031-9.456-21.077-21.077v-9.045c0.047-11.621,9.456-21.031,21.077-21.077h9.045     c11.621,0.047,21.031,9.456,21.077,21.077V183.496z M183.097,30.92c3.044-3.469,7.417-5.485,12.032-5.547h36.181     c1.707,0.003,3.404,0.262,5.035,0.768l1.536,0.597c2.066,0.889,3.925,2.197,5.461,3.84c2.99,3.187,4.453,7.513,4.011,11.861     l-6.4,79.616c-0.837,8.16-7.755,14.338-15.957,14.251h-23.552c-8.232,0.083-15.161-6.142-15.957-14.336l-6.4-79.531     C178.745,38.207,180.2,34.026,183.097,30.92z"/>
			<path d="M217.743,170.44h-0.085h-8.96c-2.215,0-4.011,1.796-4.011,4.011v9.045c0,2.215,1.796,4.011,4.011,4.011h9.045     c2.215,0,4.011-1.796,4.011-4.011v-9.045C221.753,172.236,219.958,170.44,217.743,170.44z"/>
			<path d="M349.753,426.44H76.687c-9.426,0-17.067,7.641-17.067,17.067v17.067c0,9.426,7.641,17.067,17.067,17.067h273.067     c9.426,0,17.067-7.641,17.067-17.067v-17.067C366.82,434.081,359.179,426.44,349.753,426.44z M93.753,460.574H85.22     c-4.713,0-8.533-3.82-8.533-8.533s3.82-8.533,8.533-8.533h8.533c4.713,0,8.533,3.82,8.533,8.533S98.466,460.574,93.753,460.574z      M230.287,460.574h-102.4c-4.713,0-8.533-3.82-8.533-8.533s3.82-8.533,8.533-8.533h102.4c4.713,0,8.533,3.82,8.533,8.533     S235,460.574,230.287,460.574z"/>
			<path d="M409.487,289.907H315.62c-2.223-0.036-4.359,0.862-5.888,2.475c-1.66,1.582-2.613,3.766-2.645,6.059     c0,4.713,3.82,8.533,8.533,8.533h93.867c2.223,0.036,4.359-0.862,5.888-2.475c1.66-1.582,2.613-3.766,2.645-6.059     C418.02,293.727,414.2,289.907,409.487,289.907z"/>
		</g>
	</g>
</g>
<g>
</g>
<g>
</g>
<g>
</g>
<g>
</g>
<g>
</g>
<g>
</g>
<g>
</g>
<g>
</g>
<g>
</g>
<g>
</g>
<g>
</g>
<g>
</g>
<g>
</g>
<g>
</g>
<g>
</g>
</svg>
