<?xml version="1.0" encoding="iso-8859-1"?>
<!-- Generator: Adobe Illustrator 19.0.0, SVG Export Plug-In . SVG Version: 6.00 Build 0)  -->
<svg xmlns="http://www.w3.org/2000/svg" xmlns:xlink="http://www.w3.org/1999/xlink" version="1.1" id="Layer_1" x="0px" y="0px" viewBox="0 0 367.006 367.006" style="enable-background:new 0 0 367.006 367.006;" xml:space="preserve">
<g>
	<g>
		<path d="M336.892,147.883h-0.085L288.594,11.349C286.169,4.529,279.704-0.02,272.466,0H94.46    c-7.239-0.02-13.703,4.529-16.128,11.349L30.119,147.883c-3.158,8.881,1.482,18.64,10.363,21.798    c1.824,0.648,3.744,0.982,5.68,0.986h81.835v17.067c-0.013,13.716,10.787,25.006,24.491,25.6    c-2.527,14.557-15.009,25.287-29.781,25.6h-2.645c-0.455-0.033-0.911-0.033-1.365,0c-35.346,1.39-62.873,31.171-61.483,66.517    c1.39,35.346,31.171,62.873,66.517,61.483h110.933c35.346,1.673,65.356-25.624,67.029-60.971    c1.673-35.346-25.624-65.356-60.971-67.029c-0.596-0.063-1.196-0.063-1.792,0h-3.243c-14.798-0.246-27.317-11.007-29.781-25.6    c13.703-0.594,24.504-11.884,24.491-25.6v-17.067h90.368c9.426,0.026,17.088-7.594,17.114-17.019    C337.884,151.684,337.55,149.733,336.892,147.883z M93.18,131.243v-0.427c-0.434,1.033-1.04,1.986-1.792,2.816l-1.28,1.024    c-0.476,0.323-0.992,0.581-1.536,0.768l-1.536,1.109H85.33c-1.115-0.013-2.217-0.245-3.243-0.683    c-1.033-0.434-1.986-1.04-2.816-1.792c-0.777-0.812-1.386-1.769-1.792-2.816c-0.437-1.026-0.669-2.128-0.683-3.243    c-0.013-2.268,0.877-4.448,2.475-6.059c0.829-0.754,1.782-1.36,2.816-1.792c1.545-0.716,3.268-0.954,4.949-0.683    c0.535,0.092,1.053,0.265,1.536,0.512c0.544,0.187,1.06,0.445,1.536,0.768l1.28,1.024c1.6,1.678,2.487,3.911,2.475,6.229    C93.849,129.115,93.617,130.217,93.18,131.243z M123.474,290.133h0.085c-3.204,0.111-6.249,1.421-8.533,3.669    c-2.524,2.379-3.998,5.664-4.096,9.131c0,4.713-3.82,8.533-8.533,8.533s-8.533-3.821-8.533-8.533    c-0.047-16.415,13.196-29.773,29.611-29.867c4.713,0,8.533,3.82,8.533,8.533S128.186,290.133,123.474,290.133z M213.33,187.733    c0,4.713-3.82,8.533-8.533,8.533h-51.2c-4.713,0-8.533-3.821-8.533-8.533v-17.067h68.267V187.733z M213.33,136.533h-93.867    c-4.713,0-8.533-3.821-8.533-8.533c0-4.713,3.82-8.533,8.533-8.533h93.867c4.713,0,8.533,3.821,8.533,8.533    C221.863,132.713,218.042,136.533,213.33,136.533z"/>
	</g>
</g>
<g>
</g>
<g>
</g>
<g>
</g>
<g>
</g>
<g>
</g>
<g>
</g>
<g>
</g>
<g>
</g>
<g>
</g>
<g>
</g>
<g>
</g>
<g>
</g>
<g>
</g>
<g>
</g>
<g>
</g>
</svg>
