<?xml version="1.0" encoding="iso-8859-1"?>
<!-- Generator: Adobe Illustrator 19.0.0, SVG Export Plug-In . SVG Version: 6.00 Build 0)  -->
<svg xmlns="http://www.w3.org/2000/svg" xmlns:xlink="http://www.w3.org/1999/xlink" version="1.1" id="Layer_1" x="0px" y="0px" viewBox="0 0 477.432 477.432" style="enable-background:new 0 0 477.432 477.432;" xml:space="preserve">
<g>
	<g>
		<path d="M202.445,70.319L134.179,2.052c-3.58-3.065-8.967-2.649-12.032,0.931c-2.736,3.195-2.736,7.906,0,11.101l68.267,68.267    c3.58,3.065,8.967,2.649,12.032-0.931C205.181,78.225,205.181,73.513,202.445,70.319z"/>
	</g>
</g>
<g>
	<g>
		<path d="M363.733,2.052c-3.195-2.736-7.906-2.736-11.101,0l-68.267,68.267c-3.299,3.365-3.246,8.768,0.119,12.067    c1.566,1.535,3.662,2.409,5.854,2.439c2.268,0.013,4.448-0.877,6.059-2.475l68.267-68.267    C367.73,10.504,367.313,5.118,363.733,2.052z"/>
	</g>
</g>
<g>
	<g>
		<path d="M151.331,300.633c-3.328-3.309-8.704-3.309-12.032,0L71.032,368.9c-3.58,3.065-3.996,8.452-0.931,12.032    s8.452,3.996,12.032,0.931c0.334-0.286,0.645-0.597,0.931-0.931l68.267-68.267C154.639,309.337,154.639,303.962,151.331,300.633z"/>
	</g>
</g>
<g>
	<g>
		<path d="M407.331,368.9l-68.267-68.267c-3.58-3.066-8.966-2.649-12.032,0.931c-2.736,3.195-2.736,7.906,0,11.101l68.267,68.267    c3.58,3.065,8.966,2.649,12.032-0.931C410.067,376.806,410.067,372.095,407.331,368.9z"/>
	</g>
</g>
<g>
	<g>
		<path d="M239.139,8.025c-4.713,0-8.533,3.82-8.533,8.533v59.733c0,4.713,3.82,8.533,8.533,8.533s8.533-3.82,8.533-8.533V16.559    C247.672,11.846,243.852,8.025,239.139,8.025z"/>
	</g>
</g>
<g>
	<g>
		<path d="M396.835,258.308h-0.085l-48.213-136.533c-2.425-6.821-8.889-11.369-16.128-11.349H154.403    c-7.239-0.02-13.703,4.529-16.128,11.349L90.061,258.308c-3.158,8.881,1.482,18.64,10.363,21.798    c1.824,0.648,3.744,0.982,5.68,0.986h81.835v17.067c-0.013,13.716,10.787,25.006,24.491,25.6    c-2.527,14.557-15.009,25.287-29.781,25.6h-2.645c-0.483-0.036-0.968-0.036-1.451,0c-35.346,1.39-62.873,31.171-61.483,66.517    c1.39,35.346,31.171,62.873,66.517,61.483H294.52c35.346,1.673,65.356-25.624,67.029-60.971    c1.673-35.346-25.624-65.356-60.971-67.029c-0.567-0.057-1.139-0.057-1.707,0h-3.243c-14.798-0.246-27.317-11.007-29.781-25.6    c13.703-0.594,24.504-11.884,24.491-25.6v-17.067h90.368c9.426,0.026,17.088-7.594,17.114-17.019    C397.826,262.109,397.493,260.159,396.835,258.308z M151.38,244.264c-0.016,0.017-0.033,0.033-0.049,0.049v0.171    c-1.635,1.559-3.799,2.443-6.059,2.475h-1.707l-1.536-0.512c-0.544-0.187-1.06-0.445-1.536-0.768l-1.28-1.024    c-1.64-1.652-2.534-3.902-2.475-6.229c0.013-1.115,0.245-2.217,0.683-3.243c0.432-1.034,1.038-1.987,1.792-2.816l1.28-1.024    c0.476-0.323,0.992-0.581,1.536-0.768c0.473-0.307,0.991-0.537,1.536-0.683c2.811-0.588,5.729,0.278,7.765,2.304    C154.677,235.515,154.699,240.918,151.38,244.264z M183.416,400.559h0.085c-3.205,0.103-6.253,1.414-8.533,3.669    c-2.532,2.373-4.007,5.662-4.096,9.131c0,4.713-3.82,8.533-8.533,8.533s-8.533-3.821-8.533-8.533    c-0.047-16.415,13.196-29.773,29.611-29.867c4.713,0,8.533,3.82,8.533,8.533S188.129,400.559,183.416,400.559z M273.272,298.159    c0,4.713-3.82,8.533-8.533,8.533h-51.2c-4.713,0-8.533-3.821-8.533-8.533v-17.067h68.267V298.159z M273.272,246.959h-93.867    c-4.713,0-8.533-3.821-8.533-8.533c0-4.713,3.82-8.533,8.533-8.533h93.867c4.713,0,8.533,3.821,8.533,8.533    C281.805,243.138,277.985,246.959,273.272,246.959z"/>
	</g>
</g>
<g>
</g>
<g>
</g>
<g>
</g>
<g>
</g>
<g>
</g>
<g>
</g>
<g>
</g>
<g>
</g>
<g>
</g>
<g>
</g>
<g>
</g>
<g>
</g>
<g>
</g>
<g>
</g>
<g>
</g>
</svg>
