<?xml version="1.0" encoding="iso-8859-1"?>
<!-- Generator: Adobe Illustrator 19.0.0, SVG Export Plug-In . SVG Version: 6.00 Build 0)  -->
<svg xmlns="http://www.w3.org/2000/svg" xmlns:xlink="http://www.w3.org/1999/xlink" version="1.1" id="Layer_1" x="0px" y="0px" viewBox="0 0 512 512" style="enable-background:new 0 0 512 512;" xml:space="preserve">
<g>
	<g>
		<path d="M307.2,110.933H204.8c-4.713,0-8.533,3.82-8.533,8.533v51.2c0,4.713,3.82,8.533,8.533,8.533h102.4    c4.713,0,8.533-3.82,8.533-8.533v-51.2C315.733,114.754,311.913,110.933,307.2,110.933z M264.533,145.067v8.533    c0,4.713-3.82,8.533-8.533,8.533s-8.533-3.821-8.533-8.533v-8.533c-4.713,0-8.533-3.82-8.533-8.533s3.82-8.533,8.533-8.533h17.067    c4.713,0,8.533,3.82,8.533,8.533S269.246,145.067,264.533,145.067z"/>
	</g>
</g>
<g>
	<g>
		<path d="M503.979,263.339l-131.669-82.517C379.989,164.27,383.978,146.246,384,128C384,57.308,326.692,0,256,0S128,57.308,128,128    c0.022,18.246,4.011,36.27,11.691,52.821L8.021,263.339C3.047,266.448,0.018,271.894,0,277.76v20.907    c0,9.426,7.641,17.067,17.067,17.067H25.6v179.2c0,9.426,7.641,17.067,17.067,17.067h17.067c9.426,0,17.067-7.641,17.067-17.067    V460.8h34.133c4.713,0,8.533-3.821,8.533-8.533c0-4.713-3.82-8.533-8.533-8.533H76.8v-17.067h34.133    c4.713,0,8.533-3.82,8.533-8.533s-3.82-8.533-8.533-8.533H76.8v-17.067h34.133c4.713,0,8.533-3.82,8.533-8.533    s-3.82-8.533-8.533-8.533H76.8V358.4h34.133c4.713,0,8.533-3.82,8.533-8.533s-3.82-8.533-8.533-8.533H76.8v-17.067h34.133    c4.713,0,8.533-3.82,8.533-8.533s-3.82-8.533-8.533-8.533H76.8v-17.067h358.4V307.2H145.067c-4.713,0-8.533,3.82-8.533,8.533    s3.82,8.533,8.533,8.533H435.2v17.067H145.067c-4.713,0-8.533,3.82-8.533,8.533s3.82,8.533,8.533,8.533H435.2v17.067H145.067    c-4.713,0-8.533,3.82-8.533,8.533s3.82,8.533,8.533,8.533H435.2V409.6H145.067c-4.713,0-8.533,3.82-8.533,8.533    s3.82,8.533,8.533,8.533H435.2v17.067H145.067c-4.713,0-8.533,3.821-8.533,8.533c0,4.713,3.82,8.533,8.533,8.533H435.2v34.133    c0,9.426,7.641,17.067,17.067,17.067h17.067c9.426,0,17.067-7.641,17.067-17.067v-179.2h8.533c9.426,0,17.067-7.641,17.067-17.067    V277.76C511.982,271.894,508.953,266.448,503.979,263.339z M332.8,170.667c0,14.138-11.461,25.6-25.6,25.6H204.8    c-14.138,0-25.6-11.461-25.6-25.6v-51.2c0-14.138,11.461-25.6,25.6-25.6h8.533v-8.533c-0.012-23.564,19.081-42.676,42.645-42.688    c10.411-0.005,20.464,3.796,28.267,10.688c3.82,2.76,4.679,8.094,1.919,11.914s-8.094,4.679-11.914,1.919    c-0.425-0.307-0.821-0.653-1.183-1.033c-10.538-9.426-26.722-8.524-36.148,2.014c-4.226,4.724-6.548,10.848-6.519,17.186v8.533    h76.8c14.138,0,25.6,11.461,25.6,25.6V170.667z"/>
	</g>
</g>
<g>
</g>
<g>
</g>
<g>
</g>
<g>
</g>
<g>
</g>
<g>
</g>
<g>
</g>
<g>
</g>
<g>
</g>
<g>
</g>
<g>
</g>
<g>
</g>
<g>
</g>
<g>
</g>
<g>
</g>
</svg>
