<?xml version="1.0" encoding="iso-8859-1"?>
<!-- Generator: Adobe Illustrator 19.0.0, SVG Export Plug-In . SVG Version: 6.00 Build 0)  -->
<svg xmlns="http://www.w3.org/2000/svg" xmlns:xlink="http://www.w3.org/1999/xlink" version="1.1" id="Layer_1" x="0px" y="0px" viewBox="0 0 512.199 512.199" style="enable-background:new 0 0 512.199 512.199;" xml:space="preserve">
<g>
	<g>
		<path d="M290.233,97.394c0,0.683,0,1.28,0,1.963c0,18.851-15.282,34.133-34.133,34.133c-18.851,0-34.133-15.282-34.133-34.133    c0-0.683,0-1.28,0-1.963c-12.696,6.888-23.779,16.4-32.512,27.904c18.347,27.221,41.045,42.155,65.621,42.411h0.512    c24.491,0,48.043-14.933,66.901-42.667C313.805,113.656,302.813,104.234,290.233,97.394z"/>
	</g>
</g>
<g>
	<g>
		<path d="M270.521,90.396c-9.487-2.21-19.355-2.21-28.843,0c-4.949,8.022-2.457,18.537,5.565,23.486    c2.663,1.643,5.727,2.522,8.856,2.541c9.425-0.057,17.02-7.745,16.962-17.17C273.043,96.123,272.164,93.06,270.521,90.396z"/>
	</g>
</g>
<g>
	<g>
		<path d="M436.153,297.756l-102.4-68.267l1.28-0.853c55.577-43.688,65.215-124.158,21.527-179.735S232.402-16.313,176.825,27.375    s-65.215,124.158-21.527,179.735c6.294,8.006,13.52,15.233,21.527,21.527l1.195,0.939l-102.4,68.267    c-4.606,3.237-7.32,8.536-7.253,14.165v12.459c0,9.426,7.641,17.067,17.067,17.067v153.6c0,9.426,7.641,17.067,17.067,17.067    h17.067c9.426,0,17.067-7.641,17.067-17.067v-102.4h59.733v102.4c0,9.426,7.641,17.067,17.067,17.067H409.7    c9.426,0,17.067-7.641,17.067-17.067v-153.6c9.426,0,17.067-7.641,17.067-17.067v-12.459    C443.832,306.268,440.947,300.913,436.153,297.756z M172.047,129.479h-0.427c-1.875-2.848-1.875-6.539,0-9.387    c14.422-21.73,35.967-37.753,60.928-45.312c1.273-0.62,2.681-0.913,4.096-0.853c12.339-2.977,25.208-2.977,37.547,0    c1.415-0.06,2.823,0.233,4.096,0.853c25.117,7.326,46.882,23.204,61.525,44.885c1.951,2.887,1.951,6.67,0,9.557    c-22.613,35.584-52.651,55.125-84.565,55.125h-0.597C223.161,184.519,193.721,164.892,172.047,129.479z M136.633,334.706    c-0.095,0.534-0.267,1.052-0.512,1.536c-0.187,0.544-0.445,1.06-0.768,1.536c-0.315,0.447-0.657,0.874-1.024,1.28    c-3.219,3.442-8.619,3.623-12.061,0.404c-1.784-1.668-2.767-4.021-2.701-6.462c0.013-1.115,0.245-2.217,0.683-3.243    c0.432-1.034,1.038-1.987,1.792-2.816c3.319-3.346,8.722-3.368,12.068-0.05c1.628,1.614,2.537,3.816,2.524,6.108    C136.675,333.567,136.675,334.137,136.633,334.706z M367.033,341.532H153.7c-4.713,0-8.533-3.821-8.533-8.533    c0-4.713,3.821-8.533,8.533-8.533h213.333c4.713,0,8.533,3.821,8.533,8.533C375.567,337.712,371.746,341.532,367.033,341.532z"/>
	</g>
</g>
<g>
</g>
<g>
</g>
<g>
</g>
<g>
</g>
<g>
</g>
<g>
</g>
<g>
</g>
<g>
</g>
<g>
</g>
<g>
</g>
<g>
</g>
<g>
</g>
<g>
</g>
<g>
</g>
<g>
</g>
</svg>
