<?xml version="1.0" encoding="iso-8859-1"?>
<!-- Generator: Adobe Illustrator 19.0.0, SVG Export Plug-In . SVG Version: 6.00 Build 0)  -->
<svg xmlns="http://www.w3.org/2000/svg" xmlns:xlink="http://www.w3.org/1999/xlink" version="1.1" id="Layer_1" x="0px" y="0px" viewBox="0 0 512.199 512.199" style="enable-background:new 0 0 512.199 512.199;" xml:space="preserve">
<g>
	<g>
		<path d="M260.623,187.932h-9.045c-2.215,0-4.011,1.796-4.011,4.011v9.045c0,2.215,1.796,4.011,4.011,4.011h9.045    c2.215,0,4.011-1.796,4.011-4.011v-9.045C264.633,189.728,262.838,187.932,260.623,187.932z"/>
	</g>
</g>
<g>
	<g>
		<polygon points="239.119,59.932 245.263,136.732 266.937,136.732 273.081,59.591   "/>
	</g>
</g>
<g>
	<g>
		<path d="M436.153,297.756l-102.4-68.267l1.28-0.853c55.577-43.688,65.215-124.158,21.527-179.735S232.402-16.313,176.825,27.375    s-65.215,124.158-21.527,179.735c6.294,8.006,13.52,15.233,21.527,21.527l1.195,0.939l-102.4,68.267    c-4.606,3.237-7.32,8.536-7.253,14.165v12.459c0,9.426,7.641,17.067,17.067,17.067v153.6c0,9.426,7.641,17.067,17.067,17.067    h17.067c9.426,0,17.067-7.641,17.067-17.067v-102.4h59.733v102.4c0,9.426,7.641,17.067,17.067,17.067H409.7    c9.426,0,17.067-7.641,17.067-17.067v-153.6c9.426,0,17.067-7.641,17.067-17.067v-12.459    C443.832,306.268,440.947,300.913,436.153,297.756z M225.977,48.071c3.111-3.334,7.472-5.22,12.032-5.205h36.181    c4.56-0.015,8.921,1.871,12.032,5.205c3,3.181,4.464,7.512,4.011,11.861l-6.4,79.872c-0.922,8.078-7.828,14.135-15.957,13.995    h-23.552c-8.247,0.124-15.2-6.122-15.957-14.336l-6.4-79.531C221.513,55.583,222.978,51.252,225.977,48.071z M281.7,191.943v9.045    c0,11.641-9.437,21.077-21.077,21.077h-9.045c-11.641,0-21.077-9.437-21.077-21.077v-9.045c0-11.641,9.437-21.077,21.077-21.077    h9.045C272.263,170.866,281.7,180.302,281.7,191.943z M135.951,336.242c-0.776,2.144-2.464,3.832-4.608,4.608    c-1.026,0.437-2.128,0.669-3.243,0.683h-1.707l-1.536-0.512l-1.536-0.768l-1.28-1.024c-0.752-0.831-1.358-1.783-1.792-2.816    c-0.46-1.079-0.692-2.241-0.683-3.413c0.031-2.259,0.915-4.423,2.475-6.059l1.28-1.024l1.536-0.768    c0.473-0.307,0.991-0.537,1.536-0.683c1.664-0.325,3.387-0.147,4.949,0.512c1.033,0.434,1.986,1.04,2.816,1.792    c1.6,1.678,2.487,3.911,2.475,6.229C136.662,334.118,136.428,335.229,135.951,336.242z M367.033,341.532H153.7    c-4.713,0-8.533-3.821-8.533-8.533c0-4.713,3.821-8.533,8.533-8.533h213.333c4.713,0,8.533,3.821,8.533,8.533    C375.567,337.712,371.746,341.532,367.033,341.532z"/>
	</g>
</g>
<g>
</g>
<g>
</g>
<g>
</g>
<g>
</g>
<g>
</g>
<g>
</g>
<g>
</g>
<g>
</g>
<g>
</g>
<g>
</g>
<g>
</g>
<g>
</g>
<g>
</g>
<g>
</g>
<g>
</g>
</svg>
