<?xml version="1.0" encoding="iso-8859-1"?>
<!-- Generator: Adobe Illustrator 19.0.0, SVG Export Plug-In . SVG Version: 6.00 Build 0)  -->
<svg xmlns="http://www.w3.org/2000/svg" xmlns:xlink="http://www.w3.org/1999/xlink" version="1.1" id="Layer_1" x="0px" y="0px" viewBox="0 0 512.159 512.159" style="enable-background:new 0 0 512.159 512.159;" xml:space="preserve">
<g>
	<g>
		<g>
			<path d="M445.624,274.602c-22.402-17.503-49.993-27.05-78.422-27.135c-39.784-0.155-77.329,18.396-101.376,50.091     c-11.376-16.517-26.304-30.28-43.691-40.277V68.267C222.135,30.564,191.571,0,153.869,0c-37.703,0-68.267,30.564-68.267,68.267     V257.28c-42.304,24.302-68.353,69.399-68.267,118.187c0,1.621,0,3.328,0,4.693c0,2.816,0,5.547,0.597,8.533h-0.597     c0.008,1.336,0.33,2.651,0.939,3.84c9.346,74.824,77.578,127.905,152.402,118.559c38.385-4.794,72.935-25.646,95.064-57.375     c6.427,8.459,13.912,16.059,22.272,22.613c55.706,43.523,136.147,33.647,179.67-22.059     C511.206,398.566,501.33,318.125,445.624,274.602z M205.069,128v17.067h-42.667c-4.713,0-8.533-3.82-8.533-8.533     s3.82-8.533,8.533-8.533H205.069z M162.402,213.333c-4.713,0-8.533-3.821-8.533-8.533s3.82-8.533,8.533-8.533h42.667v17.067     H162.402z M205.069,230.4v17.067h-42.667c-4.713,0-8.533-3.82-8.533-8.533s3.82-8.533,8.533-8.533H205.069z M162.402,179.2     c-4.713,0-8.533-3.82-8.533-8.533s3.82-8.533,8.533-8.533h42.667V179.2H162.402z M153.869,34.133c4.713,0,8.533,3.82,8.533,8.533     s-3.821,8.533-8.533,8.533c-9.426,0-17.067,7.641-17.067,17.067c0,4.713-3.82,8.533-8.533,8.533s-8.533-3.82-8.533-8.533     C119.735,49.415,135.017,34.133,153.869,34.133z M51.469,375.296c0.073-37.91,21.085-72.677,54.613-90.368     c4.171-2.19,9.328-0.586,11.52,3.584c2.19,4.171,0.586,9.328-3.584,11.52c-27.97,14.772-45.475,43.804-45.483,75.435     c0,1.024,0,1.707,0,2.816c0.236,4.707-3.389,8.714-8.096,8.949c-0.146,0.007-0.291,0.011-0.437,0.011     c-4.713,0-8.533-3.82-8.533-8.533C51.469,377.088,51.469,376.149,51.469,375.296z M240.909,354.475     c-0.878,5.138-1.448,10.324-1.707,15.531c-6.924-2.055-14.111-3.09-21.333-3.072c-22.184-0.29-43.292,9.542-57.344,26.709     c-17.314,21.168-43.311,33.319-70.656,33.024c-17.546,0.066-34.746-4.878-49.579-14.251c-2.977-8.62-4.952-17.553-5.888-26.624     c14.257,15.469,34.432,24.129,55.467,23.808c22.184,0.29,43.292-9.542,57.344-26.709c17.314-21.168,43.311-33.319,70.656-33.024     c7.886-0.034,15.743,0.941,23.381,2.901C241.095,353.328,240.981,353.898,240.909,354.475z M452.535,384h-26.283     c-1.437,9.842-5.309,19.17-11.264,27.136l18.603,18.603c3.346,3.319,3.368,8.722,0.049,12.068     c-0.016,0.017-0.033,0.033-0.049,0.049c-1.61,1.597-3.79,2.488-6.059,2.475c-2.268,0.013-4.448-0.877-6.059-2.475l-18.517-18.603     c-7.991,5.968-17.349,9.841-27.221,11.264V460.8c0,4.713-3.82,8.533-8.533,8.533s-8.533-3.82-8.533-8.533v-26.283     c-9.872-1.423-19.23-5.296-27.221-11.264l-18.517,18.603c-1.61,1.597-3.79,2.488-6.059,2.475     c-2.268,0.013-4.448-0.877-6.059-2.475c-3.346-3.319-3.368-8.722-0.049-12.068c0.016-0.017,0.033-0.033,0.049-0.049     l18.773-18.688c-1.109-1.536-2.389-2.901-3.328-4.437c-4.356-6.878-7.26-14.573-8.533-22.613h-25.856     c-4.713,0-8.533-3.82-8.533-8.533s3.82-8.533,8.533-8.533h26.283c-0.038-0.283-0.038-0.57,0-0.853     c1.163-7.779,3.83-15.256,7.851-22.016c0.939-1.536,2.048-2.901,3.072-4.267l-18.603-18.603c-3.346-3.346-3.346-8.771,0-12.117     c3.346-3.346,8.771-3.346,12.117,0l18.517,18.517c8.056-6.065,17.558-9.918,27.563-11.179v-26.283     c0-4.713,3.82-8.533,8.533-8.533s8.533,3.82,8.533,8.533v26.283c9.842,1.437,19.17,5.309,27.136,11.264l18.603-18.603     c3.346-3.346,8.771-3.346,12.117,0c3.346,3.346,3.346,8.771,0,12.117l-18.603,18.603c5.955,7.966,9.827,17.294,11.264,27.136     h26.283c4.713,0,8.533,3.82,8.533,8.533S457.248,384,452.535,384z"/>
			<path d="M367.202,332.8c-14.775,0.007-28.495,7.658-36.267,20.224c-3.014,4.87-5.016,10.297-5.888,15.957     c-0.357,2.143-0.528,4.313-0.512,6.485c0.029,13.057,6.034,25.382,16.299,33.451c18.526,14.563,45.349,11.35,59.912-7.175     c5.891-7.494,9.102-16.744,9.123-26.275C409.869,351.903,390.766,332.8,367.202,332.8z"/>
		</g>
	</g>
</g>
<g>
</g>
<g>
</g>
<g>
</g>
<g>
</g>
<g>
</g>
<g>
</g>
<g>
</g>
<g>
</g>
<g>
</g>
<g>
</g>
<g>
</g>
<g>
</g>
<g>
</g>
<g>
</g>
<g>
</g>
</svg>
