<?xml version="1.0" encoding="iso-8859-1"?>
<!-- Generator: Adobe Illustrator 19.0.0, SVG Export Plug-In . SVG Version: 6.00 Build 0)  -->
<svg xmlns="http://www.w3.org/2000/svg" xmlns:xlink="http://www.w3.org/1999/xlink" version="1.1" id="Layer_1" x="0px" y="0px" viewBox="0 0 512.159 512.159" style="enable-background:new 0 0 512.159 512.159;" xml:space="preserve">
<g>
	<g>
		<path d="M445.624,274.602c-22.402-17.503-49.993-27.05-78.422-27.135c-39.784-0.155-77.329,18.396-101.376,50.091    c-11.376-16.517-26.304-30.28-43.691-40.277V68.267C222.135,30.564,191.571,0,153.869,0c-37.703,0-68.267,30.564-68.267,68.267    V257.28c-42.304,24.302-68.353,69.399-68.267,118.187c0,1.621,0,3.328,0,4.693c0,2.816,0,5.547,0.597,8.533h-0.597    c0.008,1.336,0.33,2.651,0.939,3.84c9.346,74.824,77.578,127.905,152.402,118.559c38.385-4.794,72.935-25.646,95.064-57.375    c6.427,8.459,13.912,16.059,22.272,22.613c55.706,43.523,136.147,33.647,179.67-22.059    C511.206,398.566,501.33,318.125,445.624,274.602z M205.069,128v17.067h-42.667c-4.713,0-8.533-3.82-8.533-8.533    s3.82-8.533,8.533-8.533H205.069z M162.402,213.333c-4.713,0-8.533-3.821-8.533-8.533s3.82-8.533,8.533-8.533h42.667v17.067    H162.402z M205.069,230.4v17.067h-42.667c-4.713,0-8.533-3.82-8.533-8.533s3.82-8.533,8.533-8.533H205.069z M162.402,179.2    c-4.713,0-8.533-3.82-8.533-8.533s3.82-8.533,8.533-8.533h42.667V179.2H162.402z M153.869,34.133c4.713,0,8.533,3.82,8.533,8.533    s-3.821,8.533-8.533,8.533c-9.426,0-17.067,7.641-17.067,17.067c0,4.713-3.82,8.533-8.533,8.533s-8.533-3.82-8.533-8.533    C119.735,49.415,135.017,34.133,153.869,34.133z M51.469,375.296c0.073-37.91,21.085-72.677,54.613-90.368    c4.171-2.19,9.328-0.586,11.52,3.584c2.19,4.171,0.586,9.328-3.584,11.52c-27.97,14.772-45.475,43.804-45.483,75.435    c0,1.024,0,1.707,0,2.816c0.236,4.707-3.389,8.714-8.096,8.949c-0.146,0.007-0.291,0.011-0.437,0.011    c-4.713,0-8.533-3.82-8.533-8.533C51.469,377.088,51.469,376.149,51.469,375.296z M240.909,354.475    c-0.878,5.138-1.448,10.324-1.707,15.531c-6.924-2.055-14.111-3.09-21.333-3.072c-22.184-0.29-43.292,9.542-57.344,26.709    c-17.314,21.168-43.311,33.319-70.656,33.024c-17.546,0.066-34.746-4.878-49.579-14.251c-2.977-8.62-4.952-17.553-5.888-26.624    c14.257,15.469,34.432,24.129,55.467,23.808c22.184,0.29,43.292-9.542,57.344-26.709c17.314-21.168,43.311-33.319,70.656-33.024    c7.886-0.034,15.743,0.941,23.381,2.901C241.095,353.328,240.981,353.898,240.909,354.475z M452.535,384h-9.643l8.533,12.373    c2.571,3.916,1.504,9.172-2.389,11.776c-1.469,1.034-3.241,1.544-5.035,1.451c-2.855-0.015-5.513-1.456-7.083-3.84L422.327,384    h-34.56l28.16,28.075c3.346,3.319,3.368,8.722,0.049,12.068c-0.016,0.017-0.033,0.033-0.049,0.049    c-3.319,3.346-8.722,3.368-12.068,0.049c-0.017-0.016-0.033-0.033-0.049-0.049l-28.075-28.16v34.133l21.76,14.592    c4.163,2.209,5.746,7.375,3.537,11.538c-1.598,3.01-4.833,4.781-8.23,4.505c-1.678,0.019-3.319-0.488-4.693-1.451l-12.373-8.533    v9.984c0,4.713-3.82,8.533-8.533,8.533s-8.533-3.82-8.533-8.533v-9.643l-12.373,8.533c-1.414,0.842-3.052,1.23-4.693,1.109    c-4.713-0.036-8.504-3.886-8.467-8.599c0.022-2.819,1.434-5.445,3.774-7.017l21.76-14.592v-34.133l-28.075,28.16    c-3.319,3.346-8.722,3.368-12.068,0.049c-0.017-0.016-0.033-0.033-0.049-0.049c-3.346-3.319-3.368-8.722-0.049-12.068    c0.016-0.017,0.033-0.033,0.049-0.049L346.637,384h-34.56l-14.592,21.76c-1.57,2.384-4.228,3.825-7.083,3.84    c-1.678,0.019-3.319-0.488-4.693-1.451c-3.894-2.604-4.96-7.86-2.389-11.776L291.853,384h-9.984c-4.713,0-8.533-3.82-8.533-8.533    s3.82-8.533,8.533-8.533h9.643l-8.533-12.373c-2.956-3.67-2.378-9.042,1.292-11.999s9.042-2.378,11.999,1.292    c0.332,0.412,0.624,0.853,0.874,1.319l14.933,21.76h34.56l-28.16-28.075c-3.346-3.346-3.346-8.771,0-12.117    c3.346-3.346,8.771-3.346,12.117,0l28.075,28.16v-34.133l-21.76-14.592c-4.153-2.228-5.714-7.4-3.486-11.553    c2.228-4.153,7.4-5.714,11.553-3.486c0.466,0.25,0.908,0.543,1.319,0.874l12.373,8.533v-10.411c0-4.713,3.82-8.533,8.533-8.533    s8.533,3.82,8.533,8.533v9.643l12.373-8.533c3.67-2.956,9.042-2.378,11.999,1.292c2.956,3.67,2.378,9.042-1.292,11.999    c-0.412,0.332-0.853,0.624-1.319,0.874l-21.76,14.933v34.133l28.075-28.16c3.346-3.346,8.771-3.346,12.117,0    c3.346,3.346,3.346,8.771,0,12.117l-28.16,28.501h34.56l14.592-21.76c2.956-3.67,8.328-4.249,11.999-1.292    c3.197,2.575,4.107,7.062,2.167,10.679l-8.533,12.373h9.984c4.713,0,8.533,3.82,8.533,8.533S457.248,384,452.535,384z"/>
	</g>
</g>
<g>
</g>
<g>
</g>
<g>
</g>
<g>
</g>
<g>
</g>
<g>
</g>
<g>
</g>
<g>
</g>
<g>
</g>
<g>
</g>
<g>
</g>
<g>
</g>
<g>
</g>
<g>
</g>
<g>
</g>
</svg>
