<?xml version="1.0" encoding="iso-8859-1"?>
<!-- Generator: Adobe Illustrator 19.0.0, SVG Export Plug-In . SVG Version: 6.00 Build 0)  -->
<svg xmlns="http://www.w3.org/2000/svg" xmlns:xlink="http://www.w3.org/1999/xlink" version="1.1" id="Layer_1" x="0px" y="0px" viewBox="0 0 510.895 510.895" style="enable-background:new 0 0 510.895 510.895;" xml:space="preserve">
<g>
	<g>
		<path d="M435.501,296.452L281.047,193.455v-53.504c18.851-14.138,22.672-40.882,8.533-59.733s-40.882-22.672-59.733-8.533    s-22.672,40.882-8.533,59.733c2.426,3.234,5.299,6.108,8.533,8.533v53.504L75.309,296.452c-4.761,3.176-7.613,8.528-7.595,14.251    v12.459c0,9.426,7.641,17.067,17.067,17.067v153.6c0,9.426,7.641,17.067,17.067,17.067h17.067c9.426,0,17.067-7.641,17.067-17.067    v-102.4h59.733v102.4c0,9.426,7.641,17.067,17.067,17.067h196.267c9.426,0,17.067-7.641,17.067-17.067v-153.6    c9.426,0,17.067-7.641,17.067-17.067v-12.459C443.18,304.963,440.294,299.609,435.501,296.452z M135.298,334.767v0.171    c-0.406,1.048-1.015,2.005-1.792,2.816l-1.28,1.024c-0.476,0.323-0.992,0.581-1.536,0.768l-1.536,0.683h-1.707    c-4.713,0.027-8.555-3.771-8.583-8.484c-0.013-2.293,0.896-4.494,2.524-6.108l1.28-1.024l1.536-0.768    c0.473-0.307,0.991-0.537,1.536-0.683c1.123-0.259,2.29-0.259,3.413,0c0.535,0.092,1.053,0.265,1.536,0.512    c0.544,0.187,1.06,0.445,1.536,0.768l1.28,1.024c0.752,0.831,1.358,1.783,1.792,2.816    C136.211,330.347,136.211,332.701,135.298,334.767z M366.381,340.228H153.047c-4.713,0-8.533-3.821-8.533-8.533    c0-4.713,3.821-8.533,8.533-8.533h213.333c4.713,0,8.533,3.821,8.533,8.533C374.914,336.408,371.094,340.228,366.381,340.228z"/>
	</g>
</g>
<g>
	<g>
		<path d="M133.506,189.103c-48.249-48.364-48.249-126.655,0-175.019c2.782-3.804,1.954-9.143-1.85-11.925    c-2.945-2.154-6.935-2.197-9.926-0.107c-54.866,55.02-54.866,144.062,0,199.083c1.512,1.547,3.556,2.462,5.717,2.56    c4.713,0.027,8.555-3.771,8.583-8.484C136.044,192.919,135.134,190.717,133.506,189.103z"/>
	</g>
</g>
<g>
	<g>
		<path d="M157.826,38.319c3.346-3.323,3.365-8.729,0.043-12.075c-3.323-3.346-8.729-3.365-12.075-0.043    c-41.622,41.678-41.622,109.192,0,150.869c3.58,3.065,8.966,2.649,12.032-0.931c2.736-3.195,2.736-7.906,0-11.101    C122.878,130.028,122.878,73.33,157.826,38.319z"/>
	</g>
</g>
<g>
	<g>
		<path d="M182.146,62.468c3.417-3.323,3.493-8.786,0.171-12.203c-3.323-3.417-8.786-3.493-12.203-0.171    c-28.395,28.324-28.452,74.303-0.128,102.698c0.043,0.043,0.086,0.086,0.128,0.128c3.58,3.065,8.966,2.649,12.032-0.931    c2.736-3.195,2.736-7.906,0-11.101C160.546,119.211,160.546,84.146,182.146,62.468z"/>
	</g>
</g>
<g>
	<g>
		<path d="M389.165,2.052c-3.58-3.065-8.966-2.649-12.032,0.931c-2.736,3.195-2.736,7.906,0,11.101    c48.249,48.364,48.249,126.655,0,175.019c-3.58,3.065-3.996,8.452-0.931,12.032c3.065,3.58,8.452,3.996,12.032,0.931    c0.334-0.286,0.645-0.597,0.931-0.931C444.031,146.114,444.031,57.072,389.165,2.052z"/>
	</g>
</g>
<g>
	<g>
		<path d="M365.015,25.775c-3.58-3.065-8.966-2.649-12.032,0.931c-2.736,3.195-2.736,7.906,0,11.101    c16.875,16.805,26.311,39.673,26.197,63.488c0.068,23.756-9.365,46.554-26.197,63.317c-3.58,3.065-3.996,8.452-0.931,12.032    c3.066,3.58,8.452,3.996,12.032,0.931c0.334-0.286,0.645-0.597,0.931-0.931C406.638,134.966,406.638,67.452,365.015,25.775z"/>
	</g>
</g>
<g>
	<g>
		<path d="M340.909,50.223c-0.043-0.043-0.086-0.086-0.129-0.128c-3.393-3.299-8.818-3.223-12.117,0.171    c-3.299,3.393-3.223,8.818,0.171,12.117c21.601,21.678,21.601,56.743,0,78.421c-3.346,3.319-3.368,8.722-0.049,12.068    c0.016,0.017,0.033,0.033,0.049,0.049c3.328,3.309,8.704,3.309,12.032,0C369.237,124.574,369.257,78.594,340.909,50.223z"/>
	</g>
</g>
<g>
</g>
<g>
</g>
<g>
</g>
<g>
</g>
<g>
</g>
<g>
</g>
<g>
</g>
<g>
</g>
<g>
</g>
<g>
</g>
<g>
</g>
<g>
</g>
<g>
</g>
<g>
</g>
<g>
</g>
</svg>
