<?xml version="1.0" encoding="iso-8859-1"?>
<!-- Generator: Adobe Illustrator 19.0.0, SVG Export Plug-In . SVG Version: 6.00 Build 0)  -->
<svg xmlns="http://www.w3.org/2000/svg" xmlns:xlink="http://www.w3.org/1999/xlink" version="1.1" id="Layer_1" x="0px" y="0px" viewBox="0 0 512 512" style="enable-background:new 0 0 512 512;" xml:space="preserve">
<g>
	<g>
		<g>
			<path d="M469.333,0H42.667C19.103,0,0,19.103,0,42.667v426.667C0,492.898,19.103,512,42.667,512h426.667     C492.898,512,512,492.898,512,469.333V42.667C512,19.103,492.898,0,469.333,0z M460.789,245.493     c0.007,0.146,0.011,0.292,0.011,0.437c0,2.901,0,5.888,0,8.533c0,4.713-3.821,8.533-8.533,8.533c-4.713,0-8.533-3.82-8.533-8.533     c0-2.731,0-5.461,0-8.533c-0.006-4.551,3.561-8.306,8.107-8.533C456.547,237.162,460.554,240.786,460.789,245.493z      M453.632,201.813l0.256,0.256c0.768,2.816,1.451,5.717,2.133,8.533c1.052,4.594-1.818,9.171-6.412,10.224     c-0.024,0.006-0.049,0.011-0.073,0.016h-1.877c-4.068,0.099-7.639-2.687-8.533-6.656c-0.597-2.645-1.28-5.291-1.963-7.851     c-1.249-4.548,1.425-9.247,5.973-10.496C447.684,194.591,452.383,197.265,453.632,201.813z M425.728,157.184h0.256     c4.171-2.19,9.328-0.586,11.52,3.584c1.365,2.56,2.731,5.205,4.011,7.936c2.002,4.265,0.168,9.346-4.096,11.349     c-1.137,0.575-2.396,0.868-3.669,0.853c-3.302-0.025-6.293-1.953-7.68-4.949c-1.195-2.389-2.389-4.864-3.669-7.253     C420.17,164.6,421.653,159.466,425.728,157.184z M400.376,122.972c0.003-0.002,0.005-0.005,0.008-0.007v0.085     c3.581-3.063,8.968-2.643,12.031,0.938c0,0,0,0,0.001,0.001c1.963,2.304,3.84,4.608,5.632,6.997     c2.866,3.726,2.179,9.067-1.536,11.947c-3.713,2.903-9.076,2.246-11.979-1.467c-0.018-0.023-0.036-0.046-0.054-0.069     c-1.621-2.219-3.328-4.267-5.12-6.4C396.32,131.396,396.775,126.012,400.376,122.972z M368.245,94.96     c0.018-0.023,0.036-0.046,0.054-0.069v0.085c2.854-3.742,8.199-4.468,11.947-1.621c2.389,1.792,4.693,3.669,6.997,5.632     c3.605,3.04,4.064,8.427,1.024,12.032c-3.04,3.605-8.427,4.064-12.032,1.024c-2.048-1.82-4.181-3.527-6.4-5.12     C366.092,104.058,365.381,98.702,368.245,94.96z M330.875,74.511c0.016-0.034,0.031-0.067,0.047-0.1v0.085     c1.965-4.283,7.031-6.163,11.314-4.197c0.012,0.005,0.023,0.011,0.035,0.016l8.021,4.011c4.147,2.238,5.695,7.415,3.457,11.562     c-1.482,2.747-4.346,4.465-7.467,4.48c-1.365,0.005-2.711-0.316-3.925-0.939c-2.389-1.28-4.864-2.475-7.339-3.584     C330.745,83.86,328.89,78.785,330.875,74.511z M289.959,63.127c0.049-0.223,0.108-0.444,0.175-0.663     c1.02-4.59,5.561-7.491,10.155-6.485l8.533,2.133c4.713,0.613,8.037,4.93,7.424,9.643c-0.613,4.713-4.93,8.037-9.643,7.424     c-0.738,0.076-1.481,0.076-2.219,0c-2.56-0.683-5.205-1.365-7.936-1.877C291.846,72.284,288.941,67.728,289.959,63.127z      M59.051,472.576c-0.432,1.034-1.038,1.987-1.792,2.816l-1.365,1.024c-0.436,0.338-0.926,0.598-1.451,0.768     c-0.508,0.26-1.056,0.433-1.621,0.512l-1.621,0.171h-1.707c-0.535-0.092-1.053-0.265-1.536-0.512     c-0.544-0.187-1.06-0.445-1.536-0.768l-1.28-1.024c-0.754-0.829-1.36-1.782-1.792-2.816c-0.46-1.079-0.692-2.241-0.683-3.413     c-0.013-2.268,0.877-4.448,2.475-6.059l1.28-1.024l1.536-0.768c0.474-0.305,0.992-0.536,1.536-0.683     c1.095-0.255,2.233-0.255,3.328,0c0.565,0.079,1.113,0.252,1.621,0.512c0.524,0.17,1.015,0.43,1.451,0.768l1.365,1.024     c1.6,1.678,2.487,3.911,2.475,6.229C59.72,470.448,59.488,471.55,59.051,472.576z M59.733,264.533     c-4.713,0-8.533-3.82-8.533-8.533c0-113.108,91.692-204.8,204.8-204.8h8.533c4.713,0,8.533,3.82,8.533,8.533     s-3.821,8.533-8.533,8.533H256C152.318,68.267,68.267,152.318,68.267,256C68.267,260.713,64.446,264.533,59.733,264.533z      M187.733,477.867H76.8c-4.713,0-8.533-3.82-8.533-8.533s3.82-8.533,8.533-8.533h110.933c4.713,0,8.533,3.82,8.533,8.533     S192.446,477.867,187.733,477.867z M407.04,281.856c0,0,0,0.512,0,0.853c-0.033,0.198-0.033,0.4,0,0.597     c-3.073,17.141-9.077,33.624-17.749,48.725c0.036,0.255,0.036,0.513,0,0.768c-0.266,0.482-0.613,0.914-1.024,1.28     c-8.672,14.71-19.748,27.863-32.768,38.912c-0.121,0.261-0.295,0.494-0.512,0.683h-0.512     c-13.435,11.015-28.641,19.671-44.971,25.6h-0.683c-0.336,0.083-0.688,0.083-1.024,0c-33.282,12.176-69.8,12.176-103.083,0     c-0.336,0.083-0.688,0.083-1.024,0h-0.683c-16.33-5.929-31.536-14.585-44.971-25.6h-0.512c-0.217-0.189-0.391-0.422-0.512-0.683     c-13.02-11.049-24.096-24.202-32.768-38.912c-0.411-0.366-0.758-0.798-1.024-1.28c-0.036-0.255-0.036-0.513,0-0.768     c-8.851-15.068-15.029-31.552-18.261-48.725c0.033-0.198,0.033-0.4,0-0.597c0,0,0-0.597,0-0.853     c-3.187-17.09-3.187-34.622,0-51.712c0,0,0-0.512,0-0.853v-0.597c3.088-17.137,9.091-33.617,17.749-48.725     c-0.036-0.255-0.036-0.513,0-0.768c0,0,0.512-0.512,0.683-0.768c8.74-14.911,19.933-28.239,33.109-39.424     c0.121-0.261,0.295-0.494,0.512-0.683h0.512c13.419-11.039,28.629-19.697,44.971-25.6l0.683-0.427c0,0,0.597,0,0.939,0     c33.341-12.173,69.912-12.173,103.253,0c0,0,0.597,0,0.939,0l0.683,0.427c16.342,5.903,31.552,14.561,44.971,25.6h0.512     c0.217,0.189,0.391,0.422,0.512,0.683c13.176,11.185,24.37,24.513,33.109,39.424c0,0,0.512,0,0.683,0.768     c0.036,0.255,0.036,0.513,0,0.768c8.837,15.074,15.014,31.556,18.261,48.725v0.597c0,0,0,0.597,0,0.853     C410.227,247.234,410.227,264.766,407.04,281.856z M443.733,477.867c-18.851,0-34.133-15.282-34.133-34.133     c0-18.851,15.282-34.133,34.133-34.133c18.851,0,34.133,15.282,34.133,34.133C477.867,462.585,462.585,477.867,443.733,477.867z"/>
			<circle cx="256" cy="256" r="51.2"/>
			<path d="M391.595,240.469l-8.021,1.707h-1.536c-3.535,0.3-6.75-1.591-8.306-4.543c-0.519-0.984-0.853-2.086-0.953-3.265     c-0.025-0.295-0.035-0.587-0.03-0.876c0.057-3.472,2.211-6.513,5.333-7.783c0.26-0.106,0.527-0.199,0.8-0.28     c0.546-0.161,1.116-0.269,1.705-0.32l8.021-1.365c-2.42-9.918-5.94-19.535-10.496-28.672l-6.997,4.096     c-1.025,0.589-2.121,0.943-3.225,1.077c-3.312,0.404-6.698-1.16-8.466-4.235c-0.589-1.025-0.943-2.121-1.077-3.225     c-0.034-0.276-0.054-0.553-0.06-0.829c-0.007-0.276,0-0.552,0.02-0.826c0.02-0.274,0.053-0.547,0.099-0.817     c0.23-1.351,0.781-2.642,1.622-3.75c0.168-0.221,0.348-0.436,0.539-0.642c0.382-0.412,0.809-0.79,1.279-1.128     c0.235-0.169,0.481-0.327,0.737-0.475l7.083-4.096c-0.717-1.044-1.448-2.079-2.193-3.102c-2.98-4.094-6.182-8.02-9.591-11.76     c-2.557-2.805-5.23-5.505-8.013-8.093l-5.205,6.144c-1.624,1.95-4.033,3.076-6.571,3.072c-1.994,0.004-3.926-0.69-5.461-1.963     c-3.605-3.036-4.066-8.419-1.031-12.024c0.002-0.003,0.005-0.005,0.007-0.008l5.12-6.229     c-8.182-6.052-16.994-11.202-26.283-15.36l-2.816,7.765c-1.222,3.379-4.429,5.63-8.021,5.632     c-0.998,0.008-1.987-0.196-2.901-0.597c-4.429-1.604-6.72-6.493-5.12-10.923l2.816-7.68c-9.722-2.955-19.736-4.844-29.867-5.632     V128c0,4.713-3.82,8.533-8.533,8.533s-8.533-3.82-8.533-8.533v-8.533c-10.172,0.637-20.244,2.382-30.037,5.205l2.816,7.68     c1.6,4.43-0.691,9.319-5.12,10.923c-0.914,0.401-1.903,0.605-2.901,0.597c-3.593-0.002-6.8-2.253-8.021-5.632l-2.816-7.765     c-9.289,4.158-18.101,9.308-26.283,15.36l5.12,6.229c3.178,3.481,2.932,8.878-0.549,12.055c-0.154,0.14-0.312,0.275-0.475,0.403     c-1.535,1.272-3.468,1.967-5.461,1.963c-2.538,0.004-4.946-1.122-6.571-3.072l-5.035-6.144     c-7.377,6.99-13.959,14.775-19.627,23.211l7.083,4.096c4.1,2.356,5.514,7.591,3.157,11.691c-2.356,4.1-7.59,5.514-11.691,3.157     l-6.997-4.096c-4.556,9.137-8.076,18.754-10.496,28.672l8.021,1.365c4.713,0.401,8.209,4.546,7.808,9.259     s-4.546,8.209-9.259,7.808h-1.536l-8.021-1.451c-1.251,10.145-1.251,20.405,0,30.549l8.021-1.451     c4.713-0.825,9.202,2.327,10.027,7.04c0.825,4.713-2.327,9.202-7.04,10.027l-8.021,1.365c2.42,9.918,5.94,19.535,10.496,28.672     l6.997-4.096c4.1-2.356,9.334-0.943,11.691,3.157c2.356,4.1,0.943,9.334-3.157,11.691l-7.083,4.096     c5.698,8.257,12.279,15.868,19.627,22.699l5.205-6.144c2.999-3.525,8.261-4.017,11.861-1.109     c3.605,3.036,4.067,8.419,1.031,12.024c-0.002,0.003-0.005,0.005-0.007,0.008l-5.12,6.229     c8.182,6.052,16.994,11.202,26.283,15.36l2.816-7.765c1.626-4.43,6.535-6.703,10.965-5.077c4.43,1.626,6.703,6.535,5.077,10.965     l-2.816,7.68c9.777,2.968,19.849,4.856,30.037,5.632V384c0-4.713,3.82-8.533,8.533-8.533s8.533,3.82,8.533,8.533v8.533     c10.172-0.637,20.244-2.382,30.037-5.205l-2.816-7.68c-1.626-4.43,0.647-9.339,5.077-10.965c4.43-1.626,9.339,0.647,10.965,5.077     l2.816,7.765c9.289-4.158,18.101-9.308,26.283-15.36l-5.12-6.229c-3.178-3.481-2.932-8.878,0.549-12.055     c0.154-0.14,0.312-0.275,0.475-0.403c3.621-3.017,9.001-2.528,12.018,1.093c0.005,0.005,0.009,0.011,0.014,0.016l5.205,6.144     c7.377-6.99,13.959-14.775,19.627-23.211l-7.083-4.096c-4.1-2.356-5.514-7.59-3.157-11.691c2.356-4.1,7.591-5.514,11.691-3.157     l6.997,4.096c4.556-9.137,8.076-18.754,10.496-28.672l-8.021-1.365c-4.713-0.825-7.865-5.314-7.04-10.027     c0.825-4.713,5.314-7.865,10.027-7.04l0,0.256l8.021,1.451c0.631-5.115,0.942-10.259,0.937-15.403     C392.537,250.728,392.226,245.584,391.595,240.469z M323.205,265.001c-4.488,33.75-33.159,59.034-67.205,59.266     c-37.702-0.257-68.057-31.029-67.799-68.731c0.232-34.046,25.516-62.717,59.266-67.205v-26.197c0-4.713,3.82-8.533,8.533-8.533     s8.533,3.82,8.533,8.533v26.197C301.907,193.301,328.175,227.627,323.205,265.001z"/>
			<circle cx="443.733" cy="443.733" r="17.067"/>
		</g>
	</g>
</g>
<g>
</g>
<g>
</g>
<g>
</g>
<g>
</g>
<g>
</g>
<g>
</g>
<g>
</g>
<g>
</g>
<g>
</g>
<g>
</g>
<g>
</g>
<g>
</g>
<g>
</g>
<g>
</g>
<g>
</g>
</svg>
