<?xml version="1.0" encoding="iso-8859-1"?>
<!-- Generator: Adobe Illustrator 19.0.0, SVG Export Plug-In . SVG Version: 6.00 Build 0)  -->
<svg xmlns="http://www.w3.org/2000/svg" xmlns:xlink="http://www.w3.org/1999/xlink" version="1.1" id="Layer_1" x="0px" y="0px" viewBox="0 0 426.743 426.743" style="enable-background:new 0 0 426.743 426.743;" xml:space="preserve">
<g>
	<g>
		<path d="M418.889,311.505L247.539,188.027v-21.589c-0.05-15.523-10.569-29.058-25.6-32.939V38.438c0-4.713-3.82-8.533-8.533-8.533    s-8.533,3.82-8.533,8.533v95.061c-15.031,3.881-25.55,17.415-25.6,32.939v21.589L7.923,311.505    c-6.702,4.652-9.549,13.157-6.997,20.907c2.542,8.038,10.089,13.429,18.517,13.227h159.829v17.067    c0,18.851,15.282,34.133,34.133,34.133c18.851,0,34.133-15.282,34.133-34.133v-17.067h159.829    c8.397,0.164,15.899-5.22,18.432-13.227C428.37,324.681,425.56,316.181,418.889,311.505z M196.339,166.438    c0-9.426,7.641-17.067,17.067-17.067s17.067,7.641,17.067,17.067v17.067h-34.133V166.438z M230.473,362.705    c0,9.426-7.641,17.067-17.067,17.067s-17.067-7.641-17.067-17.067v-17.067h34.133V362.705z M230.473,234.705h-34.133    c-4.713,0-8.533-3.82-8.533-8.533s3.82-8.533,8.533-8.533h34.133c4.713,0,8.533,3.82,8.533,8.533S235.186,234.705,230.473,234.705    z"/>
	</g>
</g>
<g>
</g>
<g>
</g>
<g>
</g>
<g>
</g>
<g>
</g>
<g>
</g>
<g>
</g>
<g>
</g>
<g>
</g>
<g>
</g>
<g>
</g>
<g>
</g>
<g>
</g>
<g>
</g>
<g>
</g>
</svg>
