<?xml version="1.0" encoding="iso-8859-1"?>
<!-- Generator: Adobe Illustrator 19.0.0, SVG Export Plug-In . SVG Version: 6.00 Build 0)  -->
<svg xmlns="http://www.w3.org/2000/svg" xmlns:xlink="http://www.w3.org/1999/xlink" version="1.1" id="Layer_1" x="0px" y="0px" viewBox="0 0 460.8 460.8" style="enable-background:new 0 0 460.8 460.8;" xml:space="preserve">
<g>
	<g>
		<path d="M184.277,369.408c-3.195-2.736-7.906-2.736-11.101,0l-68.267,68.267c-3.58,3.065-3.996,8.452-0.931,12.032    c3.065,3.58,8.452,3.996,12.032,0.931c0.334-0.286,0.645-0.597,0.931-0.931l68.267-68.267    C188.273,377.86,187.857,372.474,184.277,369.408z"/>
	</g>
</g>
<g>
	<g>
		<path d="M355.96,437.675l-68.267-68.267c-3.58-3.065-8.966-2.649-12.032,0.931c-2.736,3.195-2.736,7.906,0,11.101l68.267,68.267    c3.58,3.065,8.966,2.649,12.032-0.931C358.696,445.581,358.696,440.869,355.96,437.675z"/>
	</g>
</g>
<g>
	<g>
		<path d="M170.701,332.8h-59.733c-4.713,0-8.533,3.821-8.533,8.533s3.82,8.533,8.533,8.533h59.733c4.713,0,8.533-3.82,8.533-8.533    S175.414,332.8,170.701,332.8z"/>
	</g>
</g>
<g>
	<g>
		<path d="M341.368,332.8h-59.733c-4.713,0-8.533,3.821-8.533,8.533s3.82,8.533,8.533,8.533h59.733c4.713,0,8.533-3.82,8.533-8.533    S346.081,332.8,341.368,332.8z"/>
	</g>
</g>
<g>
	<g>
		<path d="M230.435,384c-4.713,0-8.533,3.821-8.533,8.533v59.733c0,4.713,3.82,8.533,8.533,8.533s8.533-3.821,8.533-8.533v-59.733    C238.968,387.821,235.148,384,230.435,384z"/>
	</g>
</g>
<g>
	<g>
		<path d="M435.917,281.6L264.568,158.123v-21.589c-0.05-15.523-10.569-29.058-25.6-32.939V8.533c0-4.713-3.82-8.533-8.533-8.533    s-8.533,3.82-8.533,8.533v95.061c-15.031,3.881-25.55,17.415-25.6,32.939v21.589L24.952,281.6    c-6.702,4.652-9.549,13.157-6.997,20.907c2.542,8.038,10.089,13.429,18.517,13.227h159.829V332.8    c0,18.851,15.282,34.133,34.133,34.133c18.851,0,34.133-15.282,34.133-34.133v-17.067h159.829    c8.397,0.164,15.899-5.22,18.432-13.227C445.399,294.776,442.588,286.276,435.917,281.6z M213.368,136.533    c0-9.426,7.641-17.067,17.067-17.067s17.067,7.641,17.067,17.067V153.6h-34.133V136.533z M247.501,332.8    c0,9.426-7.641,17.067-17.067,17.067s-17.067-7.641-17.067-17.067v-17.067h34.133V332.8z M247.501,204.8h-34.133    c-4.713,0-8.533-3.82-8.533-8.533s3.82-8.533,8.533-8.533h34.133c4.713,0,8.533,3.82,8.533,8.533S252.214,204.8,247.501,204.8z"/>
	</g>
</g>
<g>
</g>
<g>
</g>
<g>
</g>
<g>
</g>
<g>
</g>
<g>
</g>
<g>
</g>
<g>
</g>
<g>
</g>
<g>
</g>
<g>
</g>
<g>
</g>
<g>
</g>
<g>
</g>
<g>
</g>
</svg>
