<?xml version="1.0" encoding="iso-8859-1"?>
<!-- Generator: Adobe Illustrator 19.0.0, SVG Export Plug-In . SVG Version: 6.00 Build 0)  -->
<svg xmlns="http://www.w3.org/2000/svg" xmlns:xlink="http://www.w3.org/1999/xlink" version="1.1" id="Layer_1" x="0px" y="0px" viewBox="0 0 512 512" style="enable-background:new 0 0 512 512;" xml:space="preserve">
<g>
	<g>
		<path d="M170.733,366.933c-23.564,0-42.667,19.103-42.667,42.667s19.103,42.667,42.667,42.667s42.667-19.102,42.667-42.667    S194.297,366.933,170.733,366.933z M187.799,418.133c-4.713,0-8.533-3.82-8.533-8.533s-3.82-8.533-8.533-8.533    s-8.533-3.821-8.533-8.533c0-4.713,3.82-8.533,8.533-8.533c14.138,0,25.6,11.462,25.6,25.6    C196.333,414.313,192.512,418.133,187.799,418.133z"/>
	</g>
</g>
<g>
	<g>
		<polygon points="315.97,59.733 322.029,136.533 343.703,136.533 349.847,59.392   "/>
	</g>
</g>
<g>
	<g>
		<path d="M337.389,187.733h-9.045c-2.215,0-4.011,1.796-4.011,4.011v9.045c0,2.215,1.796,4.011,4.011,4.011h9.045    c2.215,0,4.011-1.796,4.011-4.011v-9.045C341.399,189.529,339.604,187.733,337.389,187.733z"/>
	</g>
</g>
<g>
	<g>
		<path d="M433.251,48.759C409.009,18.006,372.024,0.042,332.866,0c-60.72,0.258-112.985,42.953-125.355,102.4H76.866    c-14.138,0-25.6,11.461-25.6,25.6v358.4c0,14.138,11.461,25.6,25.6,25.6h187.733c14.138,0,25.6-11.461,25.6-25.6V248.576    c41.334,14.75,87.349,7.172,121.771-20.053C467.487,184.759,477.015,104.276,433.251,48.759z M206.487,213.333    c0.565,0.081,1.113,0.254,1.621,0.512c0.524,0.17,1.015,0.43,1.451,0.768l1.365,1.024c3.346,3.319,3.368,8.722,0.049,12.068    c-0.016,0.017-0.033,0.033-0.049,0.049l-1.365,1.024c-0.436,0.338-0.926,0.598-1.451,0.768c-0.509,0.257-1.057,0.43-1.621,0.512    l-1.621,0.341c-4.713,0.027-8.555-3.771-8.583-8.484c-0.013-2.293,0.896-4.494,2.524-6.108    C200.791,213.748,203.674,212.819,206.487,213.333z M196.333,256c0,4.713-3.82,8.533-8.533,8.533h-1.707l-1.536-0.512    c-0.544-0.187-1.06-0.445-1.536-0.768l-1.28-1.024c-0.777-0.812-1.386-1.769-1.792-2.816c-0.913-2.065-0.913-4.42,0-6.485    c0.432-1.034,1.038-1.987,1.792-2.816l1.28-1.024c0.476-0.323,0.992-0.581,1.536-0.768c0.462-0.367,0.981-0.655,1.536-0.853    c2.811-0.588,5.73,0.278,7.765,2.304c0.754,0.829,1.36,1.782,1.792,2.816C196.151,253.652,196.385,254.824,196.333,256z     M181.691,181.895c0.016-0.017,0.033-0.033,0.049-0.049v-0.341l1.28-1.024c0.476-0.323,0.992-0.581,1.536-0.768    c0.483-0.247,1.001-0.42,1.536-0.512c2.811-0.588,5.73,0.278,7.765,2.304c3.346,3.319,3.368,8.722,0.049,12.068    c-0.016,0.017-0.033,0.033-0.049,0.049c-1.582,1.66-3.766,2.613-6.059,2.645h-1.707l-1.536-0.512    c-0.544-0.187-1.06-0.445-1.536-0.768l-1.28-1.024C178.395,190.644,178.372,185.241,181.691,181.895z M164.674,215.808    c0.405-0.368,0.832-0.71,1.28-1.024c0.476-0.323,0.992-0.581,1.536-0.768c0.473-0.307,0.991-0.537,1.536-0.683    c1.664-0.325,3.387-0.147,4.949,0.512c1.033,0.434,1.986,1.04,2.816,1.792c3.442,3.219,3.623,8.619,0.404,12.061    c-1.668,1.784-4.021,2.767-6.462,2.701h-1.707l-1.536-0.512c-0.544-0.187-1.06-0.445-1.536-0.768l-1.28-1.024    c-1.64-1.652-2.534-3.902-2.475-6.229c0.013-1.115,0.245-2.217,0.683-3.243C163.273,217.569,163.884,216.609,164.674,215.808z     M145.815,184.491c0.432-1.034,1.038-1.987,1.792-2.816c3.319-3.346,8.722-3.368,12.068-0.049    c0.017,0.016,0.033,0.033,0.049,0.049c0.754,0.829,1.36,1.782,1.792,2.816c0.437,1.026,0.669,2.128,0.683,3.243    c0,4.713-3.821,8.533-8.533,8.533s-8.533-3.82-8.533-8.533C145.146,186.618,145.378,185.517,145.815,184.491z M162.199,256    c-0.031,2.259-0.915,4.423-2.475,6.059c-3.319,3.346-8.722,3.368-12.068,0.049c-0.017-0.016-0.033-0.033-0.049-0.049    c-3.319-3.346-3.296-8.749,0.05-12.068c3.346-3.319,8.749-3.296,12.068,0.05C161.298,251.627,162.186,253.766,162.199,256z     M128.749,218.624c0.432-1.034,1.038-1.987,1.792-2.816c3.319-3.346,8.722-3.368,12.068-0.049    c0.017,0.016,0.033,0.033,0.049,0.049c0.754,0.829,1.36,1.782,1.792,2.816c0.437,1.026,0.669,2.128,0.683,3.243    c0,4.713-3.82,8.533-8.533,8.533s-8.533-3.82-8.533-8.533C128.034,220.747,128.268,219.636,128.749,218.624z M170.733,469.333    c-32.99,0-59.733-26.744-59.733-59.733s26.744-59.733,59.733-59.733s59.733,26.744,59.733,59.733S203.722,469.333,170.733,469.333    z M247.533,324.267h-153.6c-4.713,0-8.533-3.82-8.533-8.533s3.82-8.533,8.533-8.533h153.6c4.713,0,8.533,3.82,8.533,8.533    S252.245,324.267,247.533,324.267z M358.466,200.789c-0.047,11.621-9.456,21.031-21.077,21.077h-9.045    c-11.621-0.047-21.031-9.456-21.077-21.077v-9.045c0.047-11.621,9.456-21.031,21.077-21.077h8.96    c11.655,0,21.116,9.423,21.163,21.077V200.789z M366.999,59.733l-6.4,79.616c-0.837,8.16-7.755,14.338-15.957,14.251H321.09    c-8.202,0.087-15.12-6.091-15.957-14.251l-6.4-79.616c-0.321-4.23,1.132-8.404,4.011-11.52c3.044-3.469,7.417-5.485,12.032-5.547    h36.267c4.533-0.002,8.862,1.884,11.947,5.205C365.959,51.071,367.419,55.388,366.999,59.733z"/>
	</g>
</g>
<g>
</g>
<g>
</g>
<g>
</g>
<g>
</g>
<g>
</g>
<g>
</g>
<g>
</g>
<g>
</g>
<g>
</g>
<g>
</g>
<g>
</g>
<g>
</g>
<g>
</g>
<g>
</g>
<g>
</g>
</svg>
