<?xml version="1.0" encoding="iso-8859-1"?>
<!-- Generator: Adobe Illustrator 19.0.0, SVG Export Plug-In . SVG Version: 6.00 Build 0)  -->
<svg xmlns="http://www.w3.org/2000/svg" xmlns:xlink="http://www.w3.org/1999/xlink" version="1.1" id="Layer_1" x="0px" y="0px" viewBox="0 0 512 512" style="enable-background:new 0 0 512 512;" xml:space="preserve">
<g>
	<g>
		<path d="M384.066,59.733c-14.138,0-25.6,11.461-25.6,25.6v8.533h51.2v-3.499v-5.035C409.666,71.195,398.204,59.733,384.066,59.733    z"/>
	</g>
</g>
<g>
	<g>
		<path d="M484.451,48.759C460.209,18.006,423.224,0.042,384.066,0c-60.732,0.225-113.015,42.935-125.355,102.4H128.066    c-14.138,0-25.6,11.461-25.6,25.6v128H27.117c-14.532-0.382-26.632,11.069-27.051,25.6c0.069,7.035,3.182,13.695,8.533,18.261    c5.028,4.69,11.641,7.311,18.517,7.339h75.349v179.2c0,14.138,11.461,25.6,25.6,25.6h187.733c14.138,0,25.6-11.461,25.6-25.6    V248.576c41.335,14.733,87.343,7.156,121.771-20.053C518.687,184.759,528.215,104.276,484.451,48.759z M170.733,136.533h59.733    c4.713,0,8.533,3.82,8.533,8.533s-3.82,8.533-8.533,8.533h-59.733c-4.713,0-8.533-3.821-8.533-8.533    S166.02,136.533,170.733,136.533z M136.599,145.067c0.013-1.115,0.245-2.217,0.683-3.243c0.786-2.137,2.471-3.822,4.608-4.608    c3.178-1.336,6.847-0.629,9.301,1.792c0.752,0.83,1.358,1.783,1.792,2.816c0.437,1.026,0.669,2.128,0.683,3.243    c0.041,0.568,0.041,1.139,0,1.707c-0.095,0.534-0.267,1.052-0.512,1.536c-0.187,0.544-0.445,1.06-0.768,1.536    c-0.315,0.447-0.657,0.874-1.024,1.28l-1.28,1.024c-0.476,0.323-0.992,0.581-1.536,0.768l-1.707,0.683h-1.707    c-1.115-0.013-2.217-0.245-3.243-0.683c-1.033-0.434-1.986-1.04-2.816-1.792c-0.367-0.406-0.709-0.833-1.024-1.28    c-0.323-0.476-0.581-0.992-0.768-1.536c-0.307-0.473-0.537-0.991-0.683-1.536C136.556,146.205,136.556,145.635,136.599,145.067z     M27.117,290.133c-2.719,0.047-5.35-0.962-7.339-2.816c-1.668-1.433-2.633-3.518-2.645-5.717c0.495-5.065,4.904-8.833,9.984-8.533    h184.832c2.72-0.056,5.354,0.954,7.339,2.816c1.668,1.433,2.633,3.518,2.645,5.717c-0.495,5.065-4.904,8.833-9.984,8.533H27.117z     M254.982,409.489c-3.104,12.023-12.493,21.412-24.516,24.516v35.328c0,4.713-3.82,8.533-8.533,8.533s-8.533-3.82-8.533-8.533    v-35.328c-18.253-4.713-29.229-23.33-24.516-41.583c4.713-18.253,23.33-29.229,41.583-24.516    C248.719,372.619,259.695,391.237,254.982,409.489z M221.933,332.8c-18.271,0.057-35.159-9.724-44.203-25.6h34.133    c14.556,0.43,26.705-11.021,27.135-25.578c0-0.007,0-0.015,0.001-0.022c-0.069-7.035-3.182-13.695-8.533-18.261    c-5.028-4.69-11.641-7.311-18.517-7.339h-34.133c9.028-15.85,25.877-25.626,44.117-25.6c28.277,0,51.2,22.923,51.2,51.2    C273.133,309.877,250.21,332.8,221.933,332.8z M460.866,170.667c0,14.138-11.462,25.6-25.6,25.6h-102.4    c-14.138,0-25.6-11.461-25.6-25.6v-51.2c0-14.138,11.462-25.6,25.6-25.6h8.533v-8.533c0-23.564,19.102-42.667,42.667-42.667    c23.564,0,42.667,19.102,42.667,42.667v8.533h8.533c14.138,0,25.6,11.461,25.6,25.6V170.667z"/>
	</g>
</g>
<g>
	<g>
		<path d="M435.266,110.933h-102.4c-4.713,0-8.533,3.82-8.533,8.533v51.2c0,4.713,3.821,8.533,8.533,8.533h102.4    c4.713,0,8.533-3.82,8.533-8.533v-51.2C443.799,114.754,439.979,110.933,435.266,110.933z M392.599,145.067v8.533    c0,4.713-3.82,8.533-8.533,8.533s-8.533-3.821-8.533-8.533v-8.533c-4.713,0-8.533-3.82-8.533-8.533s3.82-8.533,8.533-8.533h17.067    c4.713,0,8.533,3.82,8.533,8.533S397.312,145.067,392.599,145.067z"/>
	</g>
</g>
<g>
	<g>
		<circle cx="221.933" cy="401.067" r="17.067"/>
	</g>
</g>
<g>
</g>
<g>
</g>
<g>
</g>
<g>
</g>
<g>
</g>
<g>
</g>
<g>
</g>
<g>
</g>
<g>
</g>
<g>
</g>
<g>
</g>
<g>
</g>
<g>
</g>
<g>
</g>
<g>
</g>
</svg>
