<?xml version="1.0" encoding="iso-8859-1"?>
<!-- Generator: Adobe Illustrator 19.0.0, SVG Export Plug-In . SVG Version: 6.00 Build 0)  -->
<svg xmlns="http://www.w3.org/2000/svg" xmlns:xlink="http://www.w3.org/1999/xlink" version="1.1" id="Layer_1" x="0px" y="0px" viewBox="0 0 512 512" style="enable-background:new 0 0 512 512;" xml:space="preserve">
<g>
	<g>
		<circle cx="256" cy="383.049" r="34.133"/>
	</g>
</g>
<g>
	<g>
		<path d="M290.133,96.244c0,0.683,0,1.28,0,1.963c0,18.851-15.282,34.133-34.133,34.133c-18.851,0-34.133-15.282-34.133-34.133    c0-0.683,0-1.28,0-1.963c-12.696,6.888-23.779,16.4-32.512,27.904c18.347,27.221,41.045,42.155,65.621,42.411h0.512    c24.491,0,48.043-14.933,66.901-42.667C313.705,112.506,302.713,103.084,290.133,96.244z"/>
	</g>
</g>
<g>
	<g>
		<path d="M270.421,89.246c-9.487-2.21-19.355-2.21-28.843,0c-4.949,8.022-2.457,18.537,5.565,23.486    c2.663,1.643,5.727,2.522,8.856,2.541c9.425-0.057,17.02-7.745,16.962-17.17C272.943,94.973,272.064,91.91,270.421,89.246z"/>
	</g>
</g>
<g>
	<g>
		<path d="M256,314.782c-37.703,0-68.267,30.564-68.267,68.267s30.564,68.267,68.267,68.267s68.267-30.564,68.267-68.267    S293.703,314.782,256,314.782z M256,434.249c-28.277,0-51.2-22.923-51.2-51.2s22.923-51.2,51.2-51.2s51.2,22.923,51.2,51.2    S284.277,434.249,256,434.249z"/>
	</g>
</g>
<g>
	<g>
		<path d="M486.4,118.516H383.573C377.806,48.059,316.014-4.383,245.558,1.385c-62.45,5.112-112.019,54.681-117.131,117.131H25.6    c-14.138,0-25.6,11.461-25.6,25.6v59.733c0.03,10.822,6.863,20.457,17.067,24.064v44.203    c0,131.959,106.974,238.933,238.933,238.933s238.933-106.974,238.933-238.933v-44.203c10.204-3.607,17.036-13.242,17.067-24.064    v-59.733C512,129.977,500.539,118.516,486.4,118.516z M172.288,118.516c14.422-21.73,35.967-37.753,60.928-45.312    c1.248-0.606,2.624-0.899,4.011-0.853c12.339-2.977,25.208-2.977,37.547,0c1.415-0.06,2.823,0.233,4.096,0.853    c24.93,7.576,46.442,23.598,60.843,45.312c1.951,2.887,1.951,6.67,0,9.557c-22.613,35.584-52.651,55.125-84.565,55.125h-0.597    c-31.744,0-61.184-19.883-82.944-55.296C169.931,124.919,170.2,121.225,172.288,118.516z M59.733,263.582    c-4.713,0-8.533-3.82-8.533-8.533s3.82-8.533,8.533-8.533s8.533,3.82,8.533,8.533S64.446,263.582,59.733,263.582z     M162.133,263.582h-76.8c-4.713,0-8.533-3.82-8.533-8.533s3.82-8.533,8.533-8.533h76.8c4.713,0,8.533,3.82,8.533,8.533    S166.846,263.582,162.133,263.582z M256,468.382c-47.128,0-85.333-38.205-85.333-85.333s38.205-85.333,85.333-85.333    s85.333,38.205,85.333,85.333S303.128,468.382,256,468.382z"/>
	</g>
</g>
<g>
</g>
<g>
</g>
<g>
</g>
<g>
</g>
<g>
</g>
<g>
</g>
<g>
</g>
<g>
</g>
<g>
</g>
<g>
</g>
<g>
</g>
<g>
</g>
<g>
</g>
<g>
</g>
<g>
</g>
</svg>
