<?xml version="1.0" encoding="iso-8859-1"?>
<!-- Generator: Adobe Illustrator 19.0.0, SVG Export Plug-In . SVG Version: 6.00 Build 0)  -->
<svg xmlns="http://www.w3.org/2000/svg" xmlns:xlink="http://www.w3.org/1999/xlink" version="1.1" id="Layer_1" x="0px" y="0px" viewBox="0 0 512 512" style="enable-background:new 0 0 512 512;" xml:space="preserve">
<g>
	<g>
		<path d="M256,314.782c-37.703,0-68.267,30.564-68.267,68.267s30.564,68.267,68.267,68.267s68.267-30.564,68.267-68.267    S293.703,314.782,256,314.782z M256,434.249c-28.277,0-51.2-22.923-51.2-51.2s22.923-51.2,51.2-51.2s51.2,22.923,51.2,51.2    S284.277,434.249,256,434.249z"/>
	</g>
</g>
<g>
	<g>
		<polygon points="239.104,58.782 245.163,135.582 266.837,135.582 272.981,58.441   "/>
	</g>
</g>
<g>
	<g>
		<circle cx="256" cy="383.049" r="34.133"/>
	</g>
</g>
<g>
	<g>
		<path d="M486.4,118.516H383.573C377.806,48.059,316.014-4.383,245.558,1.385c-62.45,5.112-112.019,54.681-117.131,117.131H25.6    c-14.138,0-25.6,11.461-25.6,25.6v59.733c0.03,10.822,6.863,20.457,17.067,24.064v44.203    c0,131.959,106.974,238.933,238.933,238.933s238.933-106.974,238.933-238.933v-44.203c10.204-3.607,17.036-13.242,17.067-24.064    v-59.733C512,129.977,500.539,118.516,486.4,118.516z M225.963,46.921c3.085-3.321,7.414-5.207,11.947-5.205h36.267    c4.533-0.002,8.862,1.884,11.947,5.205c2.97,3.199,4.43,7.516,4.011,11.861l-6.4,79.957c-0.999,8.024-7.872,14.015-15.957,13.909    h-23.552c-8.232,0.083-15.161-6.142-15.957-14.336l-6.4-79.531C221.47,54.424,222.961,50.105,225.963,46.921z M281.6,190.793v8.96    c0,11.655-9.423,21.116-21.077,21.163h-9.045c-11.621-0.047-21.031-9.456-21.077-21.077v-9.045    c0.047-11.621,9.456-21.031,21.077-21.077h8.96C272.092,169.715,281.553,179.138,281.6,190.793z M59.733,263.582    c-4.713,0-8.533-3.82-8.533-8.533s3.82-8.533,8.533-8.533s8.533,3.82,8.533,8.533S64.446,263.582,59.733,263.582z     M162.133,263.582h-76.8c-4.713,0-8.533-3.82-8.533-8.533s3.82-8.533,8.533-8.533h76.8c4.713,0,8.533,3.82,8.533,8.533    S166.846,263.582,162.133,263.582z M256,468.382c-47.128,0-85.333-38.205-85.333-85.333s38.205-85.333,85.333-85.333    s85.333,38.205,85.333,85.333S303.128,468.382,256,468.382z"/>
	</g>
</g>
<g>
	<g>
		<path d="M260.523,186.782h-9.045c-2.215,0-4.011,1.796-4.011,4.011v9.045c0,2.215,1.796,4.011,4.011,4.011h9.045    c2.215,0,4.011-1.796,4.011-4.011v-9.045C264.533,188.578,262.738,186.782,260.523,186.782z"/>
	</g>
</g>
<g>
</g>
<g>
</g>
<g>
</g>
<g>
</g>
<g>
</g>
<g>
</g>
<g>
</g>
<g>
</g>
<g>
</g>
<g>
</g>
<g>
</g>
<g>
</g>
<g>
</g>
<g>
</g>
<g>
</g>
</svg>
