<?xml version="1.0" encoding="iso-8859-1"?>
<!-- Generator: Adobe Illustrator 19.0.0, SVG Export Plug-In . SVG Version: 6.00 Build 0)  -->
<svg xmlns="http://www.w3.org/2000/svg" xmlns:xlink="http://www.w3.org/1999/xlink" version="1.1" id="Layer_1" x="0px" y="0px" viewBox="0 0 512 512" style="enable-background:new 0 0 512 512;" xml:space="preserve">
<g>
	<g>
		<circle cx="256" cy="324.267" r="34.133"/>
	</g>
</g>
<g>
	<g>
		<path d="M256,256c-37.703,0-68.267,30.564-68.267,68.267s30.564,68.267,68.267,68.267s68.267-30.564,68.267-68.267    S293.703,256,256,256z M256,375.467c-28.277,0-51.2-22.923-51.2-51.2s22.923-51.2,51.2-51.2s51.2,22.923,51.2,51.2    S284.277,375.467,256,375.467z"/>
	</g>
</g>
<g>
	<g>
		<path d="M486.4,59.733H25.6c-14.138,0-25.6,11.461-25.6,25.6v59.733c0.03,10.822,6.863,20.457,17.067,24.064v44.203    c0,131.959,106.974,238.933,238.933,238.933s238.933-106.974,238.933-238.933v-44.203c10.204-3.607,17.036-13.242,17.067-24.064    V85.333C512,71.195,500.539,59.733,486.4,59.733z M59.733,204.8c-4.713,0-8.533-3.82-8.533-8.533s3.82-8.533,8.533-8.533    s8.533,3.82,8.533,8.533S64.446,204.8,59.733,204.8z M162.133,204.8h-76.8c-4.713,0-8.533-3.82-8.533-8.533    s3.82-8.533,8.533-8.533h76.8c4.713,0,8.533,3.82,8.533,8.533S166.846,204.8,162.133,204.8z M256,409.6    c-47.128,0-85.333-38.205-85.333-85.333s38.205-85.333,85.333-85.333s85.333,38.205,85.333,85.333S303.128,409.6,256,409.6z"/>
	</g>
</g>
<g>
</g>
<g>
</g>
<g>
</g>
<g>
</g>
<g>
</g>
<g>
</g>
<g>
</g>
<g>
</g>
<g>
</g>
<g>
</g>
<g>
</g>
<g>
</g>
<g>
</g>
<g>
</g>
<g>
</g>
</svg>
